<svg width="35" height="35" viewBox="0 0 35 35" fill="none" xmlns="http://www.w3.org/2000/svg">
<circle cx="17.5" cy="17.5" r="17.5" fill="#059669"/>
<g clip-path="url(#clip0_114_7279)">
<path d="M26.0004 23.1165C25.9297 23.4014 25.8412 23.6754 25.6387 23.902C25.4054 24.1636 25.1226 24.3694 24.7767 24.381C23.9774 24.4076 23.1766 24.3894 22.4144 24.3894C22.4235 23.8991 22.4393 23.3985 22.441 22.8978C22.4451 21.6703 22.441 20.4445 22.441 19.2149C22.441 18.7575 22.409 18.3092 22.2589 17.8747C22.2522 17.8414 22.2486 17.8076 22.248 17.7736C22.9549 17.8152 23.666 17.6718 24.3442 17.9217C25.259 18.2593 25.8041 18.9196 25.9696 19.8868C25.9767 19.913 25.9863 19.9383 25.9983 19.9625L26.0004 23.1165Z" fill="white"/>
<path d="M17.5008 24.4144H14.1327C13.7252 24.4144 13.5476 24.2365 13.5472 23.829C13.5472 22.2197 13.5443 20.6101 13.5472 19.0005C13.5501 17.7946 14.3061 16.8382 15.4729 16.5654C15.6504 16.5267 15.8317 16.5078 16.0134 16.5089C17.0031 16.5035 17.9936 16.5005 18.9832 16.5089C20.1708 16.5176 21.1226 17.2765 21.3896 18.427C21.4316 18.6213 21.4517 18.8196 21.4495 19.0183C21.4544 20.6281 21.4553 22.2378 21.4519 23.8473C21.4519 24.2323 21.2686 24.4153 20.8831 24.4157C19.7568 24.4157 18.6294 24.4153 17.5008 24.4144Z" fill="white"/>
<path d="M17.505 10C19.1213 10.0033 20.4494 11.3244 20.4519 12.9315C20.4513 13.715 20.1412 14.4665 19.5891 15.0224C19.037 15.5783 18.2876 15.8936 17.5042 15.8997C15.8854 15.9088 14.5356 14.5487 14.5489 12.9224C14.5581 12.1443 14.8736 11.4013 15.4269 10.8542C15.9803 10.3072 16.7269 10.0003 17.505 10Z" fill="white"/>
<path d="M12.5999 24.4148C12.0681 24.4148 11.5159 24.4202 10.9632 24.4123C10.6772 24.4086 10.3811 24.424 10.1066 24.3562C9.41805 24.1861 9.00555 23.616 9.00223 22.8879C8.99848 22.0301 9.00015 21.1727 9.00223 20.3152C9.00472 18.8765 10.0339 17.8174 11.4718 17.7787C11.8955 17.7679 12.3196 17.7787 12.765 17.7787C12.7276 17.9114 12.6818 18.0195 12.6677 18.1318C12.6261 18.4432 12.5675 18.7555 12.565 19.069C12.5542 20.5182 12.5579 21.9677 12.5621 23.4173C12.5621 23.742 12.5858 24.0664 12.5999 24.4148Z" fill="white"/>
<path d="M14.5226 14.9615C14.5084 16.1811 13.5105 17.1741 12.3108 17.162C11.0904 17.1496 10.1032 16.1545 10.1124 14.947C10.1138 14.6561 10.1728 14.3684 10.2858 14.1005C10.3989 13.8325 10.5638 13.5895 10.7711 13.3855C10.9784 13.1815 11.2239 13.0205 11.4937 12.9118C11.7634 12.803 12.052 12.7487 12.3428 12.7518C13.5574 12.7672 14.5363 13.7598 14.5226 14.9615Z" fill="white"/>
<path d="M24.8898 14.95C24.8948 16.1604 23.9059 17.1538 22.688 17.1622C21.4854 17.1701 20.4908 16.1775 20.4796 14.9583C20.4688 13.7491 21.4601 12.7545 22.6789 12.752C23.2634 12.7507 23.8245 12.9815 24.239 13.3936C24.6535 13.8057 24.8876 14.3655 24.8898 14.95Z" fill="white"/>
</g>
<defs>
<clipPath id="clip0_114_7279">
<rect width="17" height="14.4165" fill="white" transform="translate(9 10)"/>
</clipPath>
</defs>
</svg>
