<svg width="7" height="10" viewBox="0 0 7 10" fill="none" xmlns="http://www.w3.org/2000/svg">
<path d="M0.299544 5.64128L5.30038 9.80865C5.47038 9.94928 5.68918 10.0168 5.90887 9.99644C6.12855 9.97608 6.33121 9.86949 6.47248 9.70002C6.61374 9.53055 6.68209 9.312 6.66255 9.09224C6.64302 8.87249 6.5372 8.66942 6.36826 8.52752L2.13579 5.00069L6.36826 1.47386C6.53785 1.33216 6.64426 1.12893 6.66411 0.908829C6.68396 0.688725 6.61563 0.469742 6.47413 0.299984C6.33263 0.130226 6.12953 0.0235767 5.90945 0.00346375C5.68937 -0.0166502 5.47031 0.0514183 5.30038 0.192714L0.299544 4.36015C0.205775 4.43849 0.130348 4.53646 0.0785904 4.64715C0.0268331 4.75783 7.15256e-06 4.87853 7.15256e-06 5.00072C7.15256e-06 5.12291 0.0268331 5.2436 0.0785904 5.35429C0.130348 5.46497 0.205775 5.56294 0.299544 5.64128Z" fill="black"/>
</svg>
