<svg width="19" height="19" viewBox="0 0 19 19" fill="none" xmlns="http://www.w3.org/2000/svg">
<path d="M17.0701 15.4951L15.8332 3.85769C15.8332 3.12605 15.2664 2.53345 14.5666 2.53345H9.4999H4.43324C3.7334 2.53345 3.16657 3.12605 3.16657 3.85769L1.92967 15.4951C1.9113 15.5858 1.8999 15.6792 1.8999 15.7759C1.8999 16.5075 2.46674 17.1001 3.16657 17.1001H9.4999H15.8332C16.5331 17.1001 17.0999 16.5075 17.0999 15.7759C17.0999 15.6792 17.0885 15.5858 17.0701 15.4951ZM12.6666 5.78314V6.50617C12.6666 8.33164 11.246 9.81678 9.4999 9.81678C7.7538 9.81678 6.33324 8.33164 6.33324 6.50617V5.78314C5.96527 5.64674 5.6999 5.28257 5.6999 4.85087C5.6999 4.30264 6.1255 3.85769 6.6499 3.85769C7.1743 3.85769 7.5999 4.30264 7.5999 4.85087V6.50617C7.5999 7.60132 8.45237 8.49254 9.4999 8.49254C10.5474 8.49254 11.3999 7.60132 11.3999 6.50617V4.85087C11.3999 4.30264 11.8255 3.85769 12.3499 3.85769C12.8743 3.85769 13.2999 4.30264 13.2999 4.85087C13.2999 5.28257 13.0345 5.64674 12.6666 5.78314Z" fill="white"/>
</svg>
