<svg width="21" height="20" viewBox="0 0 21 20" fill="none" xmlns="http://www.w3.org/2000/svg">
<g clip-path="url(#clip0_104_6595)">
<path d="M12.5616 3.81053C13.0294 3.81944 13.4996 3.79923 13.9639 3.84203C15.1314 3.94844 15.9732 4.7896 16.1248 5.97376C16.2764 7.15793 16.422 8.34566 16.5688 9.5322C16.5707 9.56804 16.5707 9.60396 16.5688 9.6398C15.0322 9.36456 13.6066 9.62731 12.3054 10.4756C11.299 11.1295 10.5814 12.0295 10.1291 13.1429C9.22845 15.3656 9.81815 18.3147 12.2388 19.9881C12.1437 19.9929 12.0741 19.9988 12.0046 19.9994C8.81709 19.9994 5.62979 19.9994 2.4427 19.9994C0.89175 19.9994 -0.172927 18.7695 0.0226504 17.2245C0.344848 14.6683 0.661893 12.1122 0.973786 9.55598C1.12775 8.32545 1.26032 7.09194 1.44935 5.86676C1.64018 4.62375 2.59309 3.83906 3.85037 3.82182C4.22905 3.81706 4.60772 3.81588 4.98639 3.81231L4.98044 3.80755C4.98044 4.76404 4.97153 5.72112 4.9751 6.6776C4.97343 6.74086 4.98474 6.80379 5.00831 6.86252C5.03189 6.92124 5.06723 6.97452 5.11217 7.01907C5.15711 7.06362 5.2107 7.0985 5.26963 7.12156C5.32855 7.14463 5.39158 7.15538 5.45482 7.15317C5.73065 7.14604 5.91731 6.93203 5.91791 6.60984C5.92108 5.67455 5.92247 4.73967 5.92207 3.80518L5.91553 3.81171C6.90887 3.81469 7.90221 3.82004 8.89496 3.82004C9.80686 3.82004 10.7182 3.81469 11.6295 3.81171L11.6229 3.80577C11.6229 4.7569 11.6229 5.70448 11.6283 6.65442C11.6283 6.94095 11.8292 7.14663 12.0902 7.15317C12.1535 7.15556 12.2166 7.14492 12.2756 7.12192C12.3346 7.09892 12.3882 7.06405 12.4332 7.01946C12.4782 6.97487 12.5135 6.92153 12.537 6.86272C12.5606 6.80392 12.5717 6.74091 12.5699 6.6776C12.5735 5.72112 12.5699 4.76404 12.5646 3.80696L12.5616 3.81053Z" fill="white"/>
<path d="M10.6842 15.2426C10.6646 12.6466 12.791 10.5048 15.4018 10.4911C16.6607 10.4821 17.8718 10.9725 18.7696 11.855C19.6674 12.7374 20.1787 13.9398 20.1914 15.1986C20.214 17.8077 18.0995 19.9757 15.5118 19.9983C12.8308 20.0209 10.7044 17.9248 10.6842 15.2426ZM14.9643 15.7182C14.9643 16.038 14.9643 16.3198 14.9643 16.6009C14.9685 16.9356 15.1629 17.152 15.4464 17.1455C15.73 17.1389 15.9077 16.9237 15.9107 16.6015C15.9107 16.3144 15.9107 16.0267 15.9107 15.7194H16.7293C17.1085 15.7194 17.3309 15.547 17.3362 15.2515C17.3416 14.9561 17.1181 14.776 16.7221 14.7718H15.9113C15.9113 14.4395 15.9172 14.1363 15.9113 13.8331C15.9054 13.53 15.6985 13.3386 15.4173 13.3481C15.1557 13.357 14.975 13.543 14.9685 13.8284C14.9608 14.1369 14.9685 14.4454 14.9685 14.7718C14.6499 14.7718 14.3687 14.767 14.0881 14.7718C13.9861 14.7721 13.8851 14.7923 13.7909 14.8312C13.6969 14.8786 13.6223 14.9569 13.5796 15.0531C13.5369 15.1492 13.5288 15.2571 13.5566 15.3585C13.582 15.4603 13.6406 15.5507 13.7232 15.6153C13.8058 15.68 13.9077 15.7151 14.0126 15.7152C14.3146 15.7223 14.6249 15.7182 14.9602 15.7182H14.9643Z" fill="white"/>
<path d="M4.98886 3.81057C4.96865 2.66029 5.41568 1.70559 6.27289 0.966673C7.40236 -0.00526876 8.71017 -0.254943 10.1012 0.265209C11.5208 0.796062 12.3245 1.87025 12.5528 3.36769C12.5659 3.51494 12.5688 3.66291 12.5617 3.81057L12.5676 3.80522H11.626L11.6325 3.81116L11.6272 3.7C11.61 3.31184 11.5137 2.93127 11.3443 2.58164C11.1748 2.232 10.9358 1.92065 10.6417 1.66668C10.3477 1.41271 10.0048 1.22146 9.63428 1.10467C9.26371 0.987882 8.87318 0.948003 8.48666 0.987479C7.02547 1.14144 5.98101 2.28935 5.918 3.81116L5.92454 3.80462H4.98291L4.98886 3.81057Z" fill="white"/>
</g>
<defs>
<clipPath id="clip0_104_6595">
<rect width="20.1908" height="20" fill="white"/>
</clipPath>
</defs>
</svg>
