<svg width="50" height="50" viewBox="0 0 50 50" fill="none" xmlns="http://www.w3.org/2000/svg">
<rect width="50" height="50" rx="25" fill="#059669" fill-opacity="0.2"/>
<path d="M20.0244 23.8841C21.3578 26.5045 23.5013 28.648 26.1263 29.9813L28.1633 27.9397C28.418 27.685 28.7837 27.6109 29.1032 27.7128C30.1402 28.0554 31.2559 28.2406 32.4087 28.2406C32.9226 28.2406 33.3346 28.6526 33.3346 29.1665V32.4072C33.3346 32.9211 32.9226 33.3332 32.4087 33.3332C23.7143 33.3332 16.668 26.2869 16.668 17.5924C16.668 17.0785 17.0846 16.6665 17.5939 16.6665H20.8346C21.3485 16.6665 21.7606 17.0785 21.7606 17.5924C21.7606 18.7452 21.9457 19.8609 22.2883 20.898C22.3902 21.2174 22.3161 21.5832 22.0615 21.8378L20.0244 23.8841Z" fill="#059669"/>
</svg>
