<svg width="21" height="20" viewBox="0 0 21 20" fill="none" xmlns="http://www.w3.org/2000/svg">
<circle cx="10.0029" cy="10" r="9.5" stroke="#817D7D"/>
<path d="M10.5386 12.8066L14.0114 8.63925C14.1286 8.49758 14.1849 8.31525 14.1679 8.13218C14.151 7.94911 14.0621 7.78022 13.9209 7.6625C13.7797 7.54479 13.5976 7.48783 13.4144 7.50411C13.2313 7.52038 13.0621 7.60857 12.9438 7.74935L10.0048 11.2764L7.06578 7.74935C6.9477 7.60802 6.77834 7.51935 6.59492 7.50281C6.4115 7.48627 6.22902 7.54321 6.08755 7.66113C5.94609 7.77904 5.85721 7.94829 5.84045 8.13169C5.82369 8.31509 5.88041 8.49765 5.99816 8.63925L9.47103 12.8066C9.53631 12.8848 9.61795 12.9476 9.71019 12.9907C9.80243 13.0339 9.90301 13.0562 10.0048 13.0562C10.1067 13.0562 10.2072 13.0339 10.2995 12.9907C10.3917 12.9476 10.4734 12.8848 10.5386 12.8066Z" fill="#817D7D"/>
</svg>
