<svg width="21" height="20" viewBox="0 0 21 20" fill="none" xmlns="http://www.w3.org/2000/svg">
<circle cx="10.002" cy="10" r="9.5" stroke="#817D7D"/>
<path d="M9.4682 7.74954L5.99539 11.9169C5.87821 12.0586 5.82194 12.2409 5.83891 12.424C5.85587 12.607 5.9447 12.7759 6.08592 12.8936C6.22715 13.0114 6.40927 13.0683 6.5924 13.052C6.77553 13.0358 6.94475 12.9476 7.063 12.8068L10.002 9.27974L12.9411 12.8068C13.0591 12.9481 13.2285 13.0368 13.4119 13.0533C13.5953 13.0699 13.7778 13.0129 13.9193 12.895C14.0607 12.7771 14.1496 12.6079 14.1664 12.4245C14.1831 12.2411 14.1264 12.0585 14.0087 11.9169L10.5358 7.74954C10.4705 7.6714 10.3889 7.60854 10.2966 7.56541C10.2044 7.52228 10.1038 7.49993 10.002 7.49993C9.90018 7.49993 9.7996 7.52228 9.70736 7.56541C9.61513 7.60854 9.53348 7.6714 9.4682 7.74954Z" fill="#817D7D"/>
</svg>
