<svg width="26" height="30" viewBox="0 0 26 30" fill="none" xmlns="http://www.w3.org/2000/svg">
<path d="M18.1283 29.9999H1.1194C0.822517 29.9999 0.537793 29.882 0.327865 29.6721C0.117937 29.4622 0 29.1774 0 28.8805V7.15895C0 6.86207 0.117937 6.57734 0.327865 6.36742C0.537793 6.15749 0.822517 6.03955 1.1194 6.03955H18.1283C18.4252 6.03955 18.7099 6.15749 18.9199 6.36742C19.1298 6.57734 19.2477 6.86207 19.2477 7.15895V28.8805C19.2477 29.1774 19.1298 29.4622 18.9199 29.6721C18.7099 29.882 18.4252 29.9999 18.1283 29.9999ZM2.2388 27.7611H17.0089V8.27835H2.2388V27.7611Z" fill="white"/>
<path d="M24.1654 23.9604H18.1259C17.829 23.9604 17.5443 23.8425 17.3344 23.6325C17.1244 23.4226 17.0065 23.1379 17.0065 22.841C17.0065 22.5441 17.1244 22.2594 17.3344 22.0495C17.5443 21.8395 17.829 21.7216 18.1259 21.7216H23.046V2.2388H8.27591V7.15819C8.27591 7.45508 8.15797 7.7398 7.94805 7.94973C7.73812 8.15966 7.45339 8.27759 7.15651 8.27759C6.85963 8.27759 6.5749 8.15966 6.36497 7.94973C6.15505 7.7398 6.03711 7.45508 6.03711 7.15819V1.1194C6.03711 0.822517 6.15505 0.537793 6.36497 0.327865C6.5749 0.117936 6.85963 0 7.15651 0H24.1654C24.4623 0 24.747 0.117936 24.957 0.327865C25.1669 0.537793 25.2848 0.822517 25.2848 1.1194V22.841C25.2848 23.1379 25.1669 23.4226 24.957 23.6325C24.747 23.8425 24.4623 23.9604 24.1654 23.9604Z" fill="white"/>
</svg>
