<svg width="16" height="16" viewBox="0 0 16 16" fill="none" xmlns="http://www.w3.org/2000/svg">
<g clip-path="url(#clip0_71_3651)">
<path d="M12.0975 0.00403294C11.2072 0.00403294 10.3168 0.00403294 9.42645 0.00403294C9.24257 -0.00355031 9.05917 0.0280268 8.88842 0.0966786C8.71768 0.16533 8.56347 0.269492 8.43602 0.402249C5.75812 3.08559 3.07818 5.76689 0.396194 8.44615C-0.132713 8.9771 -0.132713 9.51826 0.396194 10.0431C2.24635 11.8987 4.09924 13.7516 5.95485 15.6017C6.4858 16.1327 7.02695 16.1409 7.55382 15.614C10.2453 12.9293 12.9355 10.2405 15.6243 7.54762C15.7483 7.4295 15.8462 7.28669 15.9116 7.1284C15.977 6.97012 16.0085 6.79988 16.0041 6.62867C16.0041 4.80914 16.0041 2.98962 16.0041 1.17009C16.0041 0.424714 15.5957 0.0101633 14.8524 0.00812116C13.9293 -4.73124e-05 13.0083 0.00403294 12.0975 0.00403294ZM12.1078 0.467598H14.74C15.3527 0.467598 15.5344 0.645255 15.5365 1.26402C15.5365 3.00594 15.5365 4.74788 15.5365 6.4898C15.543 6.64152 15.5171 6.79289 15.4604 6.93376C15.4037 7.07464 15.3175 7.20177 15.2077 7.30665C12.5679 9.93418 9.93221 12.5672 7.3006 15.2056C6.87175 15.6324 6.63895 15.6324 6.21214 15.2056C4.40555 13.399 2.59964 11.5903 0.794411 9.77966C0.36965 9.35489 0.36965 9.12005 0.794411 8.6912C3.43011 6.05823 6.06444 3.42594 8.69741 0.794332C8.79669 0.688305 8.91745 0.604679 9.05162 0.549038C9.18579 0.493398 9.33028 0.46702 9.47546 0.471674C10.3536 0.471674 11.2296 0.465556 12.1078 0.467598Z" fill="black"/>
<path d="M12.9409 1.29883C12.4658 1.2999 12.0105 1.48881 11.6742 1.82433C11.3379 2.15984 11.148 2.61474 11.1458 3.08977C11.1615 3.55732 11.356 4.00104 11.6892 4.32935C12.0225 4.65766 12.4691 4.84553 12.9368 4.85416C13.4051 4.84514 13.8514 4.65385 14.1809 4.32094C14.5103 3.98803 14.697 3.53976 14.7012 3.0714C14.7001 2.60373 14.5147 2.15533 14.1852 1.82349C13.8556 1.49165 13.4085 1.30313 12.9409 1.29883ZM11.6278 3.07343C11.6266 2.72755 11.7611 2.39501 12.0025 2.14721C12.2438 1.89941 12.5726 1.75611 12.9184 1.7481C13.2697 1.75792 13.6038 1.90213 13.8519 2.15099C14.1 2.39984 14.2432 2.73439 14.2519 3.08568C14.2428 3.43111 14.0988 3.75924 13.8507 3.99974C13.6025 4.24023 13.2701 4.37395 12.9245 4.37223C12.7536 4.37387 12.5841 4.34138 12.4259 4.27666C12.2677 4.21195 12.124 4.11631 12.0032 3.99535C11.8824 3.87439 11.787 3.73054 11.7226 3.57223C11.6581 3.41393 11.6259 3.24435 11.6278 3.07343Z" fill="black"/>
</g>
<defs>
<clipPath id="clip0_71_3651">
<rect width="16" height="16" fill="white" transform="matrix(-1 0 0 1 16 0)"/>
</clipPath>
</defs>
</svg>
