<svg width="11" height="8" viewBox="0 0 11 8" fill="none" xmlns="http://www.w3.org/2000/svg">
<path d="M5.97527 7.0342L10.1426 2.03336C10.2833 1.86336 10.3508 1.64456 10.3304 1.42487C10.3101 1.20519 10.2035 1.00253 10.034 0.861265C9.86453 0.720002 9.64599 0.651654 9.42623 0.671186C9.20647 0.690719 9.00341 0.79654 8.86151 0.965477L5.33468 5.19795L1.80785 0.965477C1.66614 0.795889 1.46292 0.689483 1.24281 0.669633C1.02271 0.649783 0.803726 0.718113 0.633968 0.859612C0.464211 1.00111 0.357561 1.20421 0.337448 1.42429C0.317334 1.64437 0.385403 1.86343 0.526698 2.03336L4.69414 7.0342C4.77248 7.12797 4.87045 7.20339 4.98113 7.25515C5.09182 7.30691 5.21252 7.33373 5.3347 7.33373C5.45689 7.33373 5.57759 7.30691 5.68827 7.25515C5.79896 7.20339 5.89693 7.12797 5.97527 7.0342Z" fill="black"/>
</svg>
