<svg width="50" height="50" viewBox="0 0 50 50" fill="none" xmlns="http://www.w3.org/2000/svg">
<rect width="50" height="50" rx="25" fill="#059669" fill-opacity="0.2"/>
<path d="M31.6667 17.5H18.3333C16.5 17.5 15 19 15 20.8333V29.1667C15 31 16.5 32.5 18.3333 32.5H31.6667C33.5 32.5 35 31 35 29.1667V20.8333C35 19 33.5 17.5 31.6667 17.5ZM33 22.3333L26.4167 26.75C26 27 25.5 27.1667 25 27.1667C24.5 27.1667 24 27 23.5833 26.75L17 22.3333C16.6667 22.0833 16.5833 21.5833 16.8333 21.1667C17.0833 20.8333 17.5833 20.75 18 21L24.5833 25.4167C24.8333 25.5833 25.25 25.5833 25.5 25.4167L32.0833 21C32.5 20.75 33 20.8333 33.25 21.25C33.4167 21.5833 33.3333 22.0833 33 22.3333Z" fill="#059669"/>
</svg>
