<svg width="34" height="34" viewBox="0 0 34 34" fill="none" xmlns="http://www.w3.org/2000/svg">
<rect width="34" height="34" rx="17" fill="#059669" fill-opacity="0.2"/>
<g clip-path="url(#clip0_96_1830)">
<path d="M16.8564 17.382C16.7071 17.6895 16.6642 17.9947 16.769 18.3172C16.8449 18.5741 17.0163 18.7921 17.248 18.9266C17.3778 19.0001 17.4251 19.0876 17.3967 19.2268C17.395 19.2405 17.395 19.2544 17.3967 19.2681C17.424 19.6312 17.3967 19.9276 17.0363 20.1854C16.6498 20.464 16.6102 21.0499 16.8436 21.4855C17.0475 21.8654 17.2614 22.2403 17.4903 22.6057C17.8206 23.1332 18.4483 23.2991 19.0059 23.0117C19.1273 22.9488 19.2098 22.9449 19.3212 23.0279C19.4472 23.1269 19.587 23.2068 19.7362 23.2652C19.9083 23.327 19.9495 23.4529 19.9033 23.5866C19.8765 23.6629 19.7584 23.7314 19.6688 23.7537C19.5333 23.7859 19.3941 23.7997 19.2549 23.7949C16.3306 23.7971 13.4065 23.7971 10.4825 23.7949C9.57181 23.7949 9.02984 23.2245 9.0705 22.316C9.18524 19.7376 10.9643 17.6683 13.5194 17.2305C14.579 17.0406 15.6666 17.0738 16.7127 17.328C16.7561 17.3436 16.8002 17.3625 16.8564 17.382Z" fill="#059669"/>
<path d="M22.5421 22.7724C22.5421 22.9696 22.5421 23.1913 22.5421 23.4135C22.5421 23.677 22.4519 23.7694 22.1968 23.7705C21.8347 23.7705 21.4727 23.7739 21.1106 23.7705C20.8878 23.7705 20.7942 23.672 20.7898 23.4519C20.7853 23.223 20.7898 22.9935 20.7898 22.7724C20.5146 22.6482 20.2417 22.5462 19.9899 22.4059C19.7788 22.2851 19.5812 22.142 19.4006 21.9792C19.2892 21.8806 19.2134 21.8745 19.0959 21.953C18.9461 22.0533 18.7856 22.1385 18.6263 22.2243C18.4592 22.3145 18.315 22.28 18.2169 22.1129C18.0231 21.7831 17.8298 21.4534 17.6449 21.1186C17.5435 20.9359 17.5847 20.8106 17.7685 20.6986C17.9523 20.5867 18.2275 20.5159 18.3211 20.3483C18.4063 20.1973 18.281 19.9389 18.2854 19.7289C18.2932 19.3896 18.3372 19.0515 18.3501 18.7129C18.3491 18.6732 18.3397 18.6342 18.3227 18.5984C18.3056 18.5626 18.2811 18.5308 18.2509 18.5051C18.0988 18.3937 17.9273 18.3152 17.7674 18.2171C17.5853 18.1057 17.5446 17.9782 17.6449 17.796C17.8304 17.4618 18.0242 17.1315 18.218 16.8023C18.3166 16.6352 18.4598 16.6018 18.628 16.6909C18.7962 16.7801 18.9695 16.8792 19.1338 16.9828C19.2251 17.0385 19.2858 17.0385 19.3677 16.9611C19.7321 16.6142 20.1734 16.3584 20.6555 16.2147C20.7669 16.1807 20.7953 16.1289 20.7914 16.0236C20.7853 15.8359 20.7864 15.6476 20.7914 15.4599C20.7964 15.2477 20.8878 15.1486 21.0945 15.1458C21.4777 15.1402 21.8605 15.1402 22.243 15.1458C22.4491 15.1491 22.5388 15.2483 22.5432 15.4627C22.5471 15.6577 22.5354 15.8526 22.5499 16.047C22.5555 16.08 22.5687 16.1112 22.5885 16.1381C22.6084 16.165 22.6343 16.1868 22.6641 16.2019C23.1553 16.3618 23.6072 16.6235 23.9904 16.97C24.0188 16.9876 24.051 16.9984 24.0844 17.0014C24.1178 17.0044 24.1514 16.9996 24.1825 16.9873C24.3569 16.902 24.5167 16.7934 24.6905 16.7004C24.8888 16.5929 25.013 16.6246 25.1289 16.8196C25.3172 17.136 25.5013 17.4551 25.6814 17.7771C25.7928 17.9726 25.7555 18.0991 25.565 18.2155C25.3745 18.3319 25.1005 18.3982 25.0125 18.5653C24.9245 18.7324 25.052 18.9892 25.0487 19.2064C25.0437 19.5317 25.0158 19.8575 24.9791 20.1806C24.9662 20.292 24.9751 20.3611 25.0815 20.4157C25.242 20.4987 25.3974 20.5917 25.5522 20.6847C25.7555 20.8067 25.7934 20.9337 25.6792 21.1376C25.4991 21.4595 25.3149 21.7787 25.1267 22.0951C25.0153 22.2844 24.8816 22.3179 24.6861 22.2098C24.5156 22.1162 24.3519 22.0076 24.1781 21.9229C24.1462 21.912 24.1124 21.9081 24.0789 21.9117C24.0454 21.9153 24.0131 21.9261 23.9842 21.9435C23.7542 22.0984 23.5436 22.2856 23.3052 22.4242C23.0668 22.5629 22.8128 22.6521 22.5421 22.7724ZM21.6604 18.0784C21.3867 18.0792 21.1195 18.1612 20.8924 18.314C20.6654 18.4667 20.4888 18.6835 20.3851 18.9367C20.2813 19.1899 20.255 19.4682 20.3095 19.7363C20.364 20.0045 20.4969 20.2505 20.6913 20.443C20.8857 20.6356 21.1328 20.7662 21.4015 20.8182C21.6702 20.8703 21.9482 20.8414 22.2004 20.7353C22.4527 20.6291 22.6677 20.4506 22.8184 20.2221C22.9691 19.9937 23.0485 19.7257 23.0468 19.452C23.0469 19.2705 23.011 19.0908 22.9412 18.9233C22.8714 18.7558 22.769 18.6038 22.6401 18.476C22.5112 18.3483 22.3582 18.2474 22.19 18.1791C22.0219 18.1109 21.8419 18.0767 21.6604 18.0784Z" fill="#059669"/>
<path d="M14.8523 16.0017C14.279 15.9981 13.7197 15.8247 13.2449 15.5034C12.7701 15.1821 12.4012 14.7274 12.1846 14.1966C11.9681 13.6658 11.9137 13.0827 12.0283 12.521C12.1429 11.9593 12.4213 11.4442 12.8284 11.0406C13.2356 10.637 13.7532 10.3631 14.3159 10.2535C14.8786 10.1439 15.4611 10.2034 15.99 10.4246C16.5189 10.6458 16.9703 11.0188 17.2874 11.4963C17.6045 11.9739 17.773 12.5348 17.7716 13.1081C17.7719 13.4903 17.6965 13.8689 17.5496 14.2218C17.4027 14.5747 17.1873 14.895 16.9158 15.1641C16.6443 15.4332 16.3221 15.6458 15.9679 15.7896C15.6137 15.9334 15.2345 16.0055 14.8523 16.0017Z" fill="#059669"/>
</g>
<defs>
<clipPath id="clip0_96_1830">
<rect width="16.6741" height="13.6" fill="white" transform="translate(9.06641 10.2)"/>
</clipPath>
</defs>
</svg>
