<svg width="369" height="246" viewBox="0 0 369 246" fill="none" xmlns="http://www.w3.org/2000/svg">
<mask id="mask0_96_2021" style="mask-type:luminance" maskUnits="userSpaceOnUse" x="0" y="0" width="369" height="246">
<path d="M368.808 0H0V245.872H368.808V0Z" fill="white"/>
</mask>
<g mask="url(#mask0_96_2021)">
<path d="M125.574 116.025C123.774 116.408 121.64 116.629 120.298 114.839C119.469 113.602 118.942 112.187 118.759 110.709C118.533 109.387 118.514 108.038 118.705 106.711C118.975 104.129 120.126 102.777 121.916 101.13C123.706 99.4823 126.007 97.3678 127.428 94.614C128.663 92.2219 129.117 89.503 128.726 86.8396L128.471 85.8561C128.184 84.6708 127.551 83.5977 126.652 82.7729C125.754 81.9481 124.631 81.4089 123.425 81.2239C122.584 81.0993 121.728 81.1293 120.898 81.3124C119.158 81.6839 117.59 82.6169 116.433 83.9678C115.769 84.8206 115.279 85.7959 114.993 86.838C114.706 87.88 114.627 88.9683 114.761 90.0408L114.982 90.8129C115.474 92.6421 117.062 93.4191 118.37 94.2551C119.157 94.9042 119.934 95.4844 120.072 96.345C120.159 96.8515 120.068 97.3726 119.816 97.8202C118.896 99.4282 116.443 101.803 113.699 102.384L113.413 102.443C110.551 102.9 107.581 101.459 105.742 97.9038C105.005 96.4923 104.507 94.9686 104.267 93.3945C103.74 90.2817 104.223 87.082 105.644 84.2628C108.048 79.7437 113.556 76.272 119.177 74.7132L120.406 74.4525C125.609 73.351 130.767 73.8133 134.327 75.2885C138.099 76.867 140.002 79.5814 140.922 82.8761L141.502 85.2807C141.941 88.0345 141.792 90.85 141.064 93.542C140.178 96.8578 138.435 99.8819 136.009 102.31C133.732 104.572 131.033 106.037 129.97 107.97C128.987 109.883 129.587 112.282 129.238 113.767C128.859 115.179 127.369 115.646 125.574 116.025ZM127.202 129.862C131.033 128.756 133.673 125.073 133.177 121.994C133.063 121.205 132.763 120.455 132.302 119.804C131.841 119.153 131.233 118.622 130.526 118.252C128.712 117.298 127.399 117.652 124.92 118.031C123.463 118.294 122.086 118.892 120.898 119.777C120.037 120.445 119.37 121.331 118.964 122.343C118.559 123.355 118.43 124.457 118.591 125.535C118.73 126.358 119.052 127.139 119.534 127.82C120.016 128.501 120.645 129.064 121.375 129.469C122.776 130.285 124.842 130.369 126.548 130.005L127.202 129.862Z" fill="#059669"/>
<path d="M232.883 89.972C231.408 90.2621 229.706 90.4096 228.585 88.8656C227.899 87.796 227.462 86.586 227.306 85.325C227.116 84.2004 227.091 83.054 227.233 81.9222C227.434 79.7339 228.364 78.6029 229.804 77.2407C231.245 75.8786 233.104 74.1231 234.23 71.8316C235.215 69.7862 235.558 67.4909 235.214 65.2471L234.997 64.4062C234.773 63.404 234.263 62.4883 233.529 61.77C232.795 61.0518 231.869 60.5617 230.862 60.3592C230.183 60.2316 229.485 60.2316 228.806 60.3592C227.394 60.6531 226.126 61.422 225.212 62.5376C224.124 64.0118 223.652 65.8507 223.894 67.6665L224.081 68.3254C224.489 69.8892 225.787 70.5825 226.859 71.3152C227.503 71.8808 228.137 72.3872 228.26 73.1249C228.335 73.5483 228.266 73.9846 228.064 74.3641C227.326 75.7114 225.349 77.6833 223.122 78.1259L222.891 78.1701C220.57 78.5045 218.14 77.2112 216.621 74.1624C215.718 72.3701 215.23 70.3971 215.195 68.3903C215.16 66.3835 215.579 64.3947 216.419 62.572C218.342 58.7807 222.812 55.9384 227.356 54.7041L228.339 54.5074C232.563 53.6715 236.758 54.1681 239.649 55.4909C242.728 56.9022 244.291 59.2479 245.058 62.0655L245.55 64.1161C245.925 66.4498 245.823 68.8352 245.25 71.1284C244.576 73.9002 243.182 76.4448 241.208 78.5045C239.369 80.383 237.186 81.5779 236.34 83.2007C235.494 84.8234 236.055 86.8593 235.784 88.1181C235.514 89.377 234.329 89.6868 232.883 89.972ZM234.299 101.774C237.407 100.908 239.526 97.8399 239.103 95.1943C239.008 94.5249 238.762 93.8858 238.384 93.3252C238.006 92.7647 237.505 92.2974 236.92 91.9586C235.445 91.1128 234.373 91.3882 232.357 91.6587C231.172 91.8571 230.053 92.3397 229.096 93.0651C228.391 93.6404 227.85 94.3917 227.528 95.243C227.206 96.0943 227.114 97.0155 227.262 97.9137C227.377 98.6124 227.641 99.2782 228.036 99.8655C228.432 100.453 228.949 100.948 229.554 101.317C230.699 102.039 232.381 102.148 233.763 101.872L234.299 101.774Z" fill="#059669"/>
<path d="M292.452 51.0552C291.277 50.7061 289.959 50.1603 289.733 48.5965C289.641 47.5634 289.784 46.5228 290.151 45.5526C290.444 44.6761 290.865 43.8476 291.4 43.0939C292.383 41.5892 293.495 41.1269 295.073 40.6942C296.652 40.2615 298.678 39.7107 300.394 38.4617C301.898 37.3678 303.032 35.8409 303.644 34.0852L303.811 33.3967C304.03 32.5838 304.006 31.7248 303.744 30.9249C303.482 30.125 302.993 29.4187 302.336 28.8924C301.885 28.5402 301.371 28.2765 300.822 28.1154C299.676 27.7801 298.451 27.8478 297.35 28.3072C295.995 28.9515 294.947 30.1006 294.429 31.5084L294.311 32.0493C294.011 33.3328 294.694 34.331 295.196 35.2703C295.452 35.9243 295.722 36.534 295.525 37.1094C295.419 37.451 295.2 37.747 294.906 37.9503C293.854 38.6436 291.651 39.3124 289.856 38.7813L289.669 38.7272C287.844 38.083 286.566 36.2242 286.62 33.441C286.646 31.7981 287.045 30.1826 287.788 28.7171C288.531 27.2516 289.598 25.9746 290.908 24.983C293.765 22.9767 298.107 22.6226 301.908 23.4832L302.715 23.7192C306.123 24.7027 308.999 26.6697 310.617 28.7497C311.372 29.6946 311.896 30.8033 312.145 31.9869C312.394 33.1705 312.363 34.3961 312.053 35.5653L311.625 37.2372C311.006 39.0683 310.018 40.7535 308.724 42.1891C307.166 43.939 305.172 45.2453 302.946 45.9755C300.885 46.6345 298.83 46.659 297.591 47.5098C296.352 48.3605 295.983 50.0472 295.304 50.8487C294.626 51.6502 293.627 51.4044 292.452 51.0552ZM288.98 60.1181C291.582 60.6787 294.311 59.2624 295.009 57.1971C295.196 56.6762 295.261 56.1194 295.199 55.5695C295.136 55.0195 294.949 54.4913 294.65 54.0254C293.888 52.8501 293.008 52.6436 291.429 52.0584C290.488 51.7495 289.486 51.6702 288.508 51.8273C287.776 51.9721 287.095 52.3075 286.534 52.7996C285.973 53.2918 285.551 53.9232 285.312 54.6302C285.129 55.1796 285.067 55.7621 285.131 56.3377C285.194 56.9132 285.382 57.4681 285.681 57.9642C286.366 58.9523 287.38 59.6637 288.543 59.9705L288.98 60.1181Z" fill="#059669"/>
<path d="M69.4856 44.043C68.5513 44.2889 67.4448 44.461 66.663 43.5169C66.1735 42.8604 65.8374 42.1026 65.6795 41.2991C65.5109 40.586 65.4512 39.8516 65.5025 39.1207C65.5516 37.7045 66.1073 36.9423 66.9777 36.003C67.8481 35.0638 68.9938 33.859 69.638 32.3297C70.2005 30.9802 70.3394 29.4916 70.0363 28.0614L69.8642 27.5303C69.6792 26.8944 69.3127 26.3263 68.8095 25.8957C68.3064 25.4651 67.6886 25.1906 67.0318 25.106C66.5867 25.0551 66.136 25.0902 65.7041 25.2093C64.7977 25.4544 64.0017 26.0007 63.447 26.7582C62.8007 27.7466 62.5661 28.9482 62.7929 30.107L62.9405 30.5201C63.265 31.5036 64.1305 31.897 64.8534 32.3199C65.291 32.6592 65.7237 32.9542 65.8368 33.4214C65.9006 33.6899 65.8729 33.9719 65.7582 34.2229C65.1305 35.4568 64.0478 36.3984 62.7389 36.8488L62.5913 36.8882C61.1161 37.2029 59.4835 36.4751 58.382 34.5819C57.9264 33.8317 57.5944 33.0132 57.3985 32.1576C57.0048 30.4822 57.1423 28.7257 57.7919 27.132C58.8934 24.6142 61.6669 22.5981 64.5681 21.6244L65.2074 21.4572C67.626 20.7714 70.1943 20.8228 72.5836 21.6048C73.478 21.9308 74.2837 22.4618 74.9361 23.1552C75.5885 23.8486 76.0695 24.6851 76.3405 25.5977L76.7339 26.8959C77.0682 28.3796 77.0933 29.9163 76.8076 31.4101C76.4765 33.2267 75.6707 34.9232 74.4719 36.3276C73.3556 37.611 71.9886 38.4716 71.5214 39.5485C71.0542 40.6254 71.4771 41.9089 71.3493 42.7252C71.2214 43.5415 70.4199 43.7972 69.4856 44.043ZM70.8575 51.5569C72.8245 50.8684 74.0883 48.8031 73.7146 47.1312C73.6258 46.7073 73.4408 46.3096 73.1739 45.9685C72.9071 45.6275 72.5655 45.3523 72.1754 45.1642C71.1919 44.6725 70.5035 44.9085 69.225 45.1642C68.4653 45.3382 67.7586 45.6924 67.1645 46.1969C66.7353 46.596 66.4185 47.1009 66.2459 47.661C66.0733 48.2211 66.0509 48.8168 66.1811 49.3883C66.2831 49.8324 66.4802 50.2492 66.7586 50.6099C67.037 50.9707 67.3902 51.2669 67.794 51.4782C68.6583 51.8623 69.6314 51.9251 70.5379 51.6552L70.8575 51.5569Z" fill="#059669"/>
<path d="M168.691 54.2025C167.874 54.4189 166.915 54.5812 166.291 53.8731C165.91 53.3821 165.663 52.8011 165.573 52.1864C165.463 51.6324 165.448 51.0637 165.529 50.5046C165.642 49.413 166.158 48.8032 166.965 48.0459C167.933 47.2119 168.763 46.2293 169.423 45.1348C169.968 44.1231 170.164 42.9596 169.979 41.8254L169.856 41.4172C169.705 40.9153 169.401 40.4729 168.987 40.1513C168.573 39.8297 168.069 39.6449 167.545 39.6223C167.159 39.5971 166.772 39.6369 166.399 39.7404C165.616 39.9479 164.913 40.3866 164.383 40.9992C164.091 41.3616 163.876 41.7793 163.75 42.2273C163.624 42.6752 163.59 43.1441 163.65 43.6055L163.754 43.9202C163.985 44.6726 164.707 44.9479 165.307 45.2577C165.666 45.5085 166.025 45.7495 166.089 46.0839C166.13 46.2983 166.092 46.5202 165.981 46.7084C165.335 47.7125 164.36 48.4602 163.222 48.8229L163.095 48.8573C162.413 48.9977 161.704 48.9119 161.076 48.6128C160.447 48.3137 159.934 47.8177 159.613 47.2001C159.267 46.6323 159.029 46.0055 158.91 45.3512C158.66 44.0273 158.867 42.658 159.495 41.4664C160.567 39.4994 163.055 37.857 165.598 37.0407L166.153 36.8932C168.217 36.297 170.403 36.2665 172.482 36.8047C173.201 36.9998 173.857 37.377 174.388 37.8998C174.919 38.4227 175.305 39.0736 175.511 39.7895L175.786 40.773C175.997 41.9325 175.942 43.1246 175.624 44.2595C175.222 45.715 174.449 47.0414 173.382 48.1098C172.359 49.1327 171.139 49.8359 170.663 50.6817C170.186 51.5275 170.505 52.506 170.358 53.1404C170.21 53.7747 169.502 53.9862 168.691 54.2025ZM169.492 59.9707C171.228 59.3855 172.408 57.7529 172.172 56.4695C172.111 56.1396 171.966 55.8308 171.752 55.5726C171.538 55.3144 171.261 55.1153 170.948 54.9943C170.117 54.65 169.527 54.8418 168.4 55.0778C167.741 55.2344 167.121 55.5276 166.581 55.9384C166.203 56.2242 165.908 56.6064 165.728 57.045C165.548 57.4836 165.49 57.9625 165.558 58.4315C165.628 58.7778 165.782 59.1017 166.005 59.375C166.229 59.6484 166.516 59.863 166.842 60.0002C167.598 60.2739 168.422 60.2963 169.192 60.0641L169.492 59.9707Z" fill="#059669"/>
<path d="M21.5802 107.901C20.8131 108.255 19.8985 108.584 19.1559 107.994C18.7007 107.575 18.3619 107.044 18.1724 106.455C17.9705 105.928 17.8575 105.372 17.8381 104.808C17.7594 103.711 18.1626 103.023 18.8215 102.147C19.6348 101.157 20.2854 100.043 20.7492 98.8478C21.1073 97.7552 21.0969 96.5753 20.7197 95.4892L20.5279 95.1105C20.2903 94.6427 19.9135 94.26 19.4494 94.0152C18.9853 93.7703 18.4567 93.6754 17.9364 93.7435C17.5511 93.7861 17.1755 93.8925 16.8251 94.0582C16.0843 94.3967 15.4623 94.9501 15.04 95.6465C14.8159 96.0544 14.6768 96.5035 14.6312 96.9667C14.5855 97.4299 14.6343 97.8975 14.7745 98.3413L14.9319 98.6363C15.2908 99.3395 16.053 99.4821 16.6972 99.6837C17.0955 99.8657 17.484 100.018 17.6119 100.362C17.6893 100.567 17.6893 100.792 17.6119 100.997C17.1521 102.098 16.3226 103.004 15.2662 103.559L15.1433 103.613C14.4931 103.875 13.7748 103.916 13.0987 103.731C12.4227 103.545 11.8263 103.142 11.4011 102.585C10.9632 102.088 10.6199 101.514 10.3881 100.893C9.91007 99.6315 9.87367 98.2448 10.2849 96.9595C10.9979 94.8253 13.1616 92.7846 15.5219 91.5208L16.0432 91.2798C17.97 90.3295 20.1165 89.9134 22.2588 90.0751C23.0008 90.1402 23.7133 90.3963 24.3269 90.8186C24.9405 91.2408 25.4342 91.8148 25.76 92.4846L26.2026 93.414C26.6096 94.5129 26.7626 95.6897 26.6501 96.8562C26.5052 98.3625 25.9733 99.8058 25.106 101.046C24.275 102.231 23.1981 103.136 22.8784 104.05C22.5588 104.965 23.0456 105.875 23.0063 106.509C22.9669 107.143 22.3424 107.547 21.5802 107.901ZM23.3997 113.438C25.0077 112.558 25.8879 110.743 25.4257 109.504C25.3088 109.185 25.1115 108.903 24.853 108.683C24.5945 108.463 24.2836 108.314 23.9504 108.25C23.0751 108.058 22.5244 108.348 21.4573 108.776C20.8341 109.045 20.2744 109.442 19.8149 109.942C19.4922 110.289 19.269 110.718 19.1686 111.181C19.0682 111.645 19.0944 112.127 19.2444 112.577C19.3743 112.905 19.5817 113.197 19.8489 113.427C20.1161 113.658 20.4351 113.82 20.7787 113.9C21.5713 114.039 22.3878 113.917 23.1046 113.551L23.3997 113.438Z" fill="#059669"/>
<path d="M321.214 125.019C320.393 124.837 319.464 124.527 319.247 123.617C319.136 123.005 319.185 122.375 319.39 121.788C319.55 121.247 319.8 120.737 320.127 120.278C320.732 119.359 321.47 119.059 322.532 118.768C323.781 118.478 324.976 117.992 326.073 117.328C327.017 116.684 327.724 115.747 328.084 114.662L328.163 114.244C328.26 113.729 328.194 113.197 327.976 112.72C327.758 112.244 327.397 111.847 326.943 111.584C326.611 111.384 326.249 111.24 325.871 111.156C325.081 110.977 324.255 111.04 323.501 111.338C323.075 111.524 322.691 111.794 322.373 112.132C322.054 112.47 321.807 112.869 321.647 113.305L321.593 113.635C321.45 114.407 321.967 114.992 322.35 115.543C322.59 115.854 322.702 116.244 322.665 116.634C322.6 116.839 322.464 117.013 322.281 117.126C321.239 117.722 320.021 117.934 318.839 117.726L318.711 117.696C318.036 117.508 317.441 117.103 317.019 116.543C316.596 115.983 316.37 115.3 316.375 114.598C316.331 113.934 316.409 113.267 316.607 112.632C316.996 111.343 317.811 110.225 318.918 109.46C320.782 108.206 323.742 107.906 326.382 108.343L326.943 108.471C329.048 108.896 330.999 109.88 332.593 111.319C333.141 111.823 333.55 112.461 333.779 113.17C334.008 113.879 334.05 114.635 333.901 115.366L333.685 116.374C333.335 117.5 332.735 118.532 331.929 119.393C330.895 120.499 329.592 121.319 328.148 121.773C326.766 122.206 325.36 122.265 324.548 122.796C323.737 123.327 323.565 124.345 323.137 124.837C322.709 125.328 322.035 125.205 321.214 125.019ZM319.247 130.506C321.057 130.787 322.862 129.887 323.24 128.643C323.342 128.321 323.36 127.978 323.291 127.647C323.222 127.316 323.069 127.009 322.847 126.754C322.271 126.066 321.657 125.963 320.545 125.653C319.888 125.487 319.203 125.46 318.534 125.574C318.066 125.652 317.628 125.855 317.265 126.162C316.902 126.468 316.629 126.866 316.474 127.315C316.378 127.652 316.366 128.007 316.438 128.349C316.51 128.692 316.664 129.012 316.887 129.282C317.43 129.875 318.152 130.276 318.942 130.423L319.247 130.506Z" fill="#059669"/>
<path d="M67.8486 86.633C67.8486 86.633 65.3555 76.9997 57.4384 78.1553C49.5213 79.3109 47.5249 84.966 47.9871 91.5504C48.4493 98.1349 48.3461 105.919 39.6766 110.783C31.0072 115.646 39.8733 121.857 41.3535 125.653C42.8336 129.449 41.5551 134.539 37.4195 137.597C33.284 140.656 32.3644 151.686 46.6496 150.85C60.9347 150.014 66.0734 139.938 63.3197 136.506C60.5659 133.073 55.7419 125.643 60.5708 124.163C65.3997 122.683 74.438 106.917 71.7924 98.5922C69.1468 90.267 67.8486 86.633 67.8486 86.633Z" fill="#17194D"/>
<path d="M60.3292 94.1125C63.0939 94.1125 65.3351 92.0033 65.3351 89.4016C65.3351 86.7998 63.0939 84.6907 60.3292 84.6907C57.5645 84.6907 55.3232 86.7998 55.3232 89.4016C55.3232 92.0033 57.5645 94.1125 60.3292 94.1125Z" fill="#EBCDC5"/>
<path d="M108.795 279.131C100.298 279.003 95.3414 279.131 90.9943 279.259C89.9863 275.094 89.0274 271.002 88.0439 266.872C85.5016 256.157 82.9248 245.191 79.758 232.056C79.758 231.983 79.7187 231.904 79.7039 231.83C79.7039 248.658 80.4563 260.528 81.1152 280.228C74.1423 279.013 69.3429 278.556 62.429 279.244C54.8561 242.801 49.6436 226.701 51.5368 209.987C52.2204 204.022 53.8136 197.983 56.533 190.917C57.6099 188.104 58.8737 185.129 60.3292 181.928C73.4637 184.347 86.4752 187.052 99.413 188.975C99.413 189.014 99.413 189.058 99.413 189.093C99.8457 195.805 99.5064 195.2 99.708 203.024C100.101 205.584 100.477 208.058 100.834 210.444C105.294 240.337 106.833 257.224 108.795 279.131Z" fill="#3C64AD"/>
<path d="M100.839 210.454C84.6038 214.236 67.6989 214.078 51.5371 209.992C52.2206 204.027 53.8139 197.988 56.5332 190.922C70.8233 190.161 85.1183 189.555 99.4182 189.103C99.8509 195.815 99.5116 195.21 99.7132 203.034C100.107 205.597 100.482 208.071 100.839 210.454Z" fill="#2C529E"/>
<path d="M88.0298 266.877C85.4875 256.162 82.9108 245.196 79.744 232.061C79.744 231.958 79.744 231.86 79.744 231.756C79.668 230.445 79.691 229.13 79.8128 227.822C82.4141 226.5 85.0105 225.177 87.4545 223.785C86.948 238.139 87.1398 252.532 88.0298 266.877Z" fill="#2C529E"/>
<path d="M82.2174 205.438C83.3038 212.586 83.2258 219.863 81.9863 226.986" stroke="#1F2F7A" stroke-miterlimit="10" stroke-linecap="round"/>
<path d="M85.9447 204.878C85.9939 209.534 87.3511 214.299 86.0283 218.769C85.8251 219.603 85.4274 220.376 84.8678 221.027C84.5824 221.347 84.2233 221.593 83.8215 221.744C83.4198 221.895 82.9873 221.946 82.5615 221.892" stroke="#1F2F7A" stroke-miterlimit="10" stroke-linecap="round"/>
<path d="M58.4017 196.021C55.5988 204.248 54.7235 213.04 54.9939 221.725C55.2644 230.409 56.6609 239.019 58.2985 247.556C60.3212 258.076 62.7209 268.511 65.4976 278.86" stroke="#1F2F7A" stroke-miterlimit="10"/>
<path d="M60.6048 200.373C60.7968 203.66 60.6319 206.957 60.113 210.208C60.0355 211.037 59.7715 211.837 59.341 212.549C58.4608 213.798 56.7987 214.162 55.2939 214.422" stroke="#1F2F7A" stroke-miterlimit="10"/>
<path d="M86.7063 132.532C86.7063 132.532 91.3778 132.557 95.7888 136.466C99.0687 139.382 102.914 146.857 113 166.01C113 166.01 109.189 181.471 106.607 179.371C82.4674 159.711 86.7063 132.532 86.7063 132.532Z" fill="#35BAB4"/>
<path d="M113.006 161.924C110.444 160.911 105.954 162.711 104.154 164.81C102.286 167.003 101.459 170.608 101.814 173.47C102.168 176.332 104.11 179.164 106.839 180.079C109.568 180.994 113.896 179.981 115.199 177.419C116.286 175.309 115.917 172.757 115.277 170.47C114.638 168.184 114.117 164.677 113.006 161.924Z" fill="#75EBDB"/>
<path d="M126.209 151.592C126.243 152.148 125.038 153.269 124.881 154.656C124.138 161.358 119.89 175.26 115.395 178.014C114.45 178.618 113.414 179.066 112.327 179.341C112.327 179.341 110.256 179.676 107.409 178.23C106.88 177.777 106.387 177.284 105.934 176.755C104.901 175.634 103.475 170.161 109.543 165.076C109.932 164.756 110.296 164.422 110.64 164.092C114.09 160.725 116.261 156.262 116.782 151.469L121.606 151.248L126.179 151.297C126.194 151.395 126.204 151.493 126.209 151.592Z" fill="#F69887"/>
<path d="M116.777 151.455C116.777 151.455 116.044 145.396 121.316 142.692C126.587 139.987 130.231 140.066 130.659 140.41C131.087 140.754 128.534 143.247 125.663 144.118C125.663 144.118 128.166 145.175 132.208 143.71C136.25 142.244 137.617 140.164 138.856 140.513C140.095 140.862 137.435 144.737 131.2 146.65C133.271 146.637 135.327 146.305 137.297 145.667C140.356 144.619 140.558 146.749 138.251 147.698C138.402 147.729 138.545 147.789 138.673 147.876C138.8 147.962 138.909 148.073 138.993 148.202C139.077 148.331 139.135 148.476 139.163 148.627C139.191 148.778 139.188 148.934 139.156 149.084C138.93 150.191 136.909 150.225 136.909 150.225C137.04 150.292 137.155 150.388 137.244 150.505C137.334 150.623 137.396 150.759 137.425 150.903C137.455 151.048 137.452 151.197 137.416 151.34C137.38 151.483 137.313 151.616 137.219 151.73C136.579 152.713 132.429 153.112 128.598 153.117C126.081 153.085 123.572 152.807 121.109 152.286L116.777 151.455Z" fill="#F69887"/>
<path d="M125.948 144.875C125.948 144.875 126.14 147.604 121.931 148.534" stroke="#AE3838" stroke-width="0.75" stroke-miterlimit="10" stroke-linecap="round"/>
<path d="M138.251 147.683C136.03 148.221 133.755 148.498 131.47 148.509" stroke="#AE3838" stroke-width="0.75" stroke-miterlimit="10" stroke-linecap="round"/>
<path d="M136.913 150.196C134.657 150.611 132.359 150.754 130.068 150.624" stroke="#AE3838" stroke-width="0.75" stroke-miterlimit="10" stroke-linecap="round"/>
<path d="M101.749 208.516C95.5924 212.45 70.5577 210.577 56.8921 206.549C56.8024 203.282 56.9388 200.012 57.3003 196.764C55.3333 200.447 54.3498 202.316 53.2631 205.31C52.329 204.953 51.4218 204.529 50.5486 204.042C50.5486 204.042 59.4443 179.7 58.4166 173.996C57.3691 168.041 48.5817 148.066 50.5486 143.872C52.3484 139.938 55.5103 137.155 59.3115 135.237C66.6877 131.509 76.4537 131.032 83.3627 131.795C85.4804 131.997 87.5706 132.424 89.598 133.068C94.0876 134.642 99.1624 154.026 99.5509 161.52C99.9394 169.015 101.749 208.516 101.749 208.516Z" fill="#41D8D3"/>
<path d="M83.3579 131.8C83.471 138.413 82.281 146.06 79.183 152.02C72.0822 147.004 65.9354 141.374 59.2969 135.232C66.673 131.5 76.444 131.023 83.3579 131.8Z" fill="#75EBDB"/>
<path d="M66.2646 185.808C70.0029 190.628 74.7137 194.608 80.091 197.489C85.4682 200.369 91.3914 202.086 97.4756 202.527C91.1686 203.732 84.6404 202.822 78.9025 199.941C73.0166 197.047 68.4853 191.979 66.2646 185.808Z" fill="#35BAB4"/>
<path d="M78.603 148.258C72.6086 144.506 67.4699 139.933 62.7295 134.981C63.4227 132.888 63.849 130.715 63.9982 128.515C64.1506 126.378 64.0333 124.23 63.6491 122.122C68.5173 122.555 72.0579 122.24 76.7983 122.397C76.8841 124.378 77.1075 126.349 77.467 128.298C77.591 129.214 77.9577 130.08 78.5292 130.806C78.8498 131.15 79.2473 131.413 79.6892 131.574C80.1311 131.735 80.6049 131.789 81.0715 131.731C81.2338 137.283 80.4962 143.12 78.603 148.258Z" fill="#F69887"/>
<path d="M78.5335 130.792C76.3176 131.302 74.0303 131.427 71.772 131.16C69.0251 130.824 66.3778 129.922 63.9976 128.51C64.15 126.373 64.0327 124.225 63.6484 122.117C68.5167 122.55 72.0572 122.235 76.7977 122.393C76.8834 124.373 77.1069 126.344 77.4664 128.293C77.5955 129.206 77.9637 130.068 78.5335 130.792Z" fill="#EB6C6A"/>
<path d="M71.3941 195.967C70.445 195.898 69.8746 195.22 69.0386 194.207C68.6796 193.784 68.2961 193.302 67.7994 192.771C66.1176 190.991 63.5016 191.01 63.5016 191.01C63.6098 191.04 65.6112 191.655 67.4749 194.04C69.3386 196.425 70.6073 201.234 69.4664 201.209C68.3256 201.185 66.8651 199.168 66.8651 199.168C67.1306 200.083 67.111 202.163 66.1963 202.399C66.1034 202.439 66.0003 202.45 65.9013 202.429C64.7555 202.286 63.9343 200.954 63.8655 200.767C64.1359 201.878 63.4524 203.82 62.0657 202.704C60.679 201.588 58.2645 198.047 58.2645 198.047L58.2301 198.072C57.0975 198.691 55.8514 199.074 54.5668 199.198C53.2822 199.322 51.9857 199.185 50.7556 198.795C47.751 197.733 46.6348 195.943 46.6348 195.943L50.7949 188.788C52.6277 189.293 54.5631 189.293 56.3959 188.788C56.8214 188.672 57.2361 188.519 57.6351 188.33L57.6941 188.306C58.5868 187.967 59.502 187.691 60.4331 187.48C61.5817 187.244 62.7699 187.285 63.8999 187.598C64.9687 187.933 66.0068 188.359 67.0028 188.871C69.7025 190.307 70.7794 191.92 71.0597 192.579C71.4285 193.454 72.7513 196.066 71.3941 195.967Z" fill="#F69887"/>
<path d="M63.6541 200.452C63.6541 200.452 61.6871 196.518 59.9414 195.697" stroke="#AE3838" stroke-width="0.75" stroke-miterlimit="10" stroke-linecap="round"/>
<path d="M66.7123 198.79C66.7123 198.79 65.2813 194.885 62.7783 193.695" stroke="#AE3838" stroke-width="0.75" stroke-miterlimit="10" stroke-linecap="round"/>
<path d="M52.329 189.265C50.7546 191.725 49.3229 194.273 48.041 196.897C26.7878 182.523 26.2223 177.979 26.8419 175.712C26.9353 175.363 27.0534 175.073 27.1271 174.808C27.3336 174.045 30.2841 169.197 32.8904 166.738C33.8738 165.804 34.8573 165.219 35.5851 165.317C36.8341 165.479 37.4685 166.502 37.8422 167.879C38.511 170.303 38.393 173.829 39.4305 175.781C40.596 177.256 41.8302 178.781 43.1186 180.3C46.0199 183.772 49.2113 187.16 52.329 189.265Z" fill="#F69887"/>
<path d="M43.1136 180.3C37.4411 179.85 31.9124 178.29 26.8418 175.707C26.9352 175.358 27.0532 175.068 27.127 174.803C27.3335 174.04 30.284 169.192 32.8902 166.733C34.5294 167.107 36.1784 167.489 37.8372 167.879C38.506 170.303 38.3879 173.829 39.4255 175.781C40.6106 177.242 41.8301 178.781 43.1136 180.3Z" fill="#EB6C6A"/>
<path d="M63.6543 155.546C62.5429 149.738 60.2809 136.427 54.38 139.033C49.615 141.143 38.8409 153.81 30.2305 167.313C31.7057 170.756 40.2129 174.749 44.2009 177.699C54.0063 166.979 57.4141 166.207 63.6543 155.546Z" fill="#41D8D3"/>
<path d="M30.102 166.413C35.1918 170.285 40.7416 173.51 46.6246 176.017C45.3854 177.748 45.2329 178.677 43.9938 180.408C31.8329 175.579 27.127 172.57 27.127 172.57C27.6071 170.308 28.6279 168.195 30.102 166.413Z" fill="#75EBDB"/>
<path d="M56.5332 165.518C58.4999 163.557 60.1356 161.291 61.3769 158.806C62.619 156.307 63.1303 153.508 62.8521 150.732C63.4149 152.138 63.6947 153.642 63.6753 155.156C63.6558 156.671 63.3377 158.167 62.739 159.558C62.1499 160.913 61.2981 162.137 60.2329 163.16C59.1676 164.183 57.9102 164.984 56.5332 165.518Z" fill="#35BAB4"/>
<path d="M59.7888 162.775C63.1239 161.155 66.0402 158.787 68.3107 155.856C67.3179 158.118 65.8065 160.114 63.8989 161.683C61.9912 163.253 59.7409 164.351 57.3301 164.889C58.3136 164.112 59.1544 163.089 59.7888 162.775Z" fill="#35BAB4"/>
<path d="M93.7878 112.504C94.7369 114.387 93.2371 116.929 90.4391 118.169C87.641 119.408 84.607 118.891 83.6628 117.008C82.7187 115.125 84.2136 112.582 87.0116 111.343C89.8096 110.104 92.8437 110.62 93.7878 112.504Z" fill="#EB6C6A"/>
<path d="M88.4426 111.009C88.2755 121.021 84.4743 128.18 76.1491 129.075C68.2812 129.921 57.0792 122.481 55.545 110.669C54.2566 100.741 62.5327 92.4995 71.8463 92.6372C81.1599 92.7749 88.6049 100.997 88.4426 111.009Z" fill="#F69887"/>
<path d="M55.422 114.244C55.422 114.244 55.9825 109.189 59.8477 106.426C63.7128 103.662 65.006 101.016 65.006 101.016C65.006 101.016 69.1859 103.475 75.4163 102.983C81.6466 102.492 85.3396 102.944 86.8001 105.732C88.2606 108.52 90.6406 101.798 86.8001 98.6511C82.9596 95.504 64.6717 90.9357 64.293 91.2258C63.9144 91.5159 61.2885 92.1011 58.7363 93.9206C56.1842 95.74 52.3191 101.075 52.6289 101.877L55.422 114.244Z" fill="#EB6C6A"/>
<path d="M91.4713 99.6347C91.4713 107.232 88.3389 113.895 88.3389 113.895C87.9258 102.924 84.1049 101.08 76.6747 100.977C72.0546 100.855 67.5428 99.5519 63.5697 97.1908C63.9828 100.589 60.1275 103.22 58.1163 107.439C56.1936 111.481 55.1019 113.905 55.1019 113.905C52.8694 109.288 50.8385 104.97 50.5877 99.5905C50.4283 97.6523 50.7056 95.7031 51.3991 93.8862C53.8578 87.9853 60.3783 87.7739 60.3783 87.7739C68.8363 78.0619 86.485 81.8729 90.1976 91.9439C91.0712 94.4126 91.5024 97.0161 91.4713 99.6347Z" fill="#271F64"/>
<path d="M91.4713 99.6346C91.4713 99.6346 88.5651 89.9522 79.5563 86.5296C70.5476 83.1071 62.1043 90.0751 62.1043 90.0751C62.1043 90.0751 51.3155 90.8029 50.5877 99.5805C50.4283 97.6424 50.7056 95.6931 51.3991 93.8763C53.8578 87.9754 60.3783 87.7639 60.3783 87.7639C68.8363 78.052 86.485 81.8384 90.1976 91.9339C91.0743 94.4053 91.5055 97.0126 91.4713 99.6346Z" fill="#473B8C"/>
<path d="M50.446 111.22C49.4379 113.074 50.8541 115.646 53.6079 116.978C56.3617 118.311 59.4105 117.873 60.4186 115.995C61.4266 114.116 60.0104 111.569 57.2567 110.237C54.5029 108.904 51.459 109.347 50.446 111.22Z" fill="#F69887"/>
<path d="M84.204 112.695C83.7713 112.725 83.4467 112.263 83.3877 111.515C83.3287 110.768 83.5697 110.266 84.0024 110.232C84.4351 110.197 84.7597 110.664 84.8187 111.412C84.8777 112.159 84.6417 112.646 84.204 112.695Z" fill="#1C2B45"/>
<path d="M72.4462 113.91C72.0086 113.939 71.6889 113.477 71.6299 112.73C71.5709 111.982 71.8119 111.481 72.2446 111.446C72.6773 111.412 73.0019 111.879 73.0609 112.627C73.1199 113.374 72.8789 113.876 72.4462 113.91Z" fill="#1C2B45"/>
<path d="M81.1357 113.546C81.4604 114.186 81.6333 114.892 81.641 115.609C81.6487 116.326 81.4909 117.035 81.18 117.682" stroke="#A83B4F" stroke-miterlimit="10" stroke-linecap="round"/>
<path d="M76.3065 119.319C74.5215 119.319 72.2545 121.419 73.8478 122.555C74.7526 123.204 75.564 122.063 76.6261 122.451C77.5654 122.801 78.9422 124.33 79.6012 122.643C80.0388 121.468 79.2422 119.294 76.3065 119.319Z" fill="#A83B4F"/>
<path d="M80.4424 104.911C81.2058 104.374 82.1121 104.078 83.0451 104.06C83.9782 104.041 84.8954 104.302 85.6794 104.808" stroke="#271F64" stroke-miterlimit="10" stroke-linecap="round"/>
<path d="M72.8594 107.232C72.0756 107.887 71.1657 108.373 70.1862 108.661C69.2067 108.95 68.1784 109.034 67.165 108.909" stroke="#271F64" stroke-miterlimit="10" stroke-linecap="round"/>
<path d="M160.803 261.162C165.927 261.851 171.077 262.343 176.253 262.638C177.783 247.551 179.336 234.839 180.679 229.381C180.679 229.352 180.679 229.322 180.679 229.297L182.597 256.309L183.064 262.918C184.529 262.957 185.993 262.982 187.455 262.992C194.149 263.031 200.845 262.895 207.543 262.584C208.448 244.487 209.451 219.713 208.974 206.766C208.974 206.353 208.939 205.949 208.92 205.561C208.885 205.02 208.861 204.523 208.826 204.037C208.752 202.626 208.588 201.222 208.335 199.832L192.835 198.126L190.947 197.919L154.946 193.705C154.946 193.705 154.715 196.065 154.612 198.008C154.612 198.111 154.612 198.224 154.612 198.337C154.582 198.829 154.553 199.404 154.518 200.019C154.366 202.92 154.149 206.982 153.903 211.924C153.304 223.996 152.512 241.306 151.937 259.751C154.877 260.248 157.828 260.764 160.803 261.162Z" fill="#3F65AE"/>
<path d="M208.988 206.761C191.094 211.8 172.432 213.548 153.913 211.919C154.159 207.002 154.375 202.916 154.528 200.014C160.606 200.727 166.821 200.231 172.919 199.739L192.864 198.121L208.364 199.827C208.617 201.217 208.781 202.621 208.856 204.032C208.89 204.524 208.915 205.015 208.949 205.556C208.954 205.945 208.969 206.348 208.988 206.761Z" fill="#2C529E"/>
<path d="M188.571 223.392C187.416 235.13 186.535 246.558 186.034 257.057C185.67 256.693 184.067 256.526 182.592 256.304L180.674 229.293C180.674 229.317 180.674 229.347 180.674 229.376C180.738 228.914 180.812 228.467 180.895 228.039C183.71 226.958 186.309 225.385 188.571 223.392Z" fill="#2C529E"/>
<path d="M183.177 200.531C183.875 209.311 183.688 218.14 182.621 226.883" stroke="#1F2F7A" stroke-miterlimit="10" stroke-linecap="round"/>
<path d="M187.996 200.678C188.488 205.394 188.98 210.189 188.095 214.84C187.909 216.14 187.435 217.381 186.708 218.474C186.339 219.016 185.84 219.457 185.257 219.756C184.673 220.056 184.025 220.205 183.369 220.191" stroke="#1F2F7A" stroke-miterlimit="10" stroke-linecap="round"/>
<path d="M158.088 203.476C158 205.414 157.931 207.592 157.773 208.91C157.464 211.492 157.1 214.698 154.159 215.106" stroke="#1F2F7A" stroke-miterlimit="10" stroke-linecap="round"/>
<path d="M204.721 202.97C204.721 205.537 204.721 206.466 204.785 208.138C204.849 209.81 204.873 211.521 205.404 213.085C205.935 214.649 207.076 216.035 208.532 216.281" stroke="#1F2F7A" stroke-miterlimit="10" stroke-linecap="round"/>
<path d="M233.62 167.707C232.047 175.457 207.873 196.631 207.779 196.651L202.252 187.745C202.252 187.745 214.088 174.404 217.157 166.63C216.999 166.438 216.847 166.246 216.694 166.04C216.226 165.427 215.791 164.84 215.391 164.279C213.741 162.069 212.272 159.729 211 157.282C210.688 156.66 210.414 156.019 210.179 155.364C210.505 154.767 210.914 154.219 211.393 153.736C211.589 153.629 211.793 153.537 212.003 153.461L215.209 153.422L225.231 153.308L225.61 153.053C225.61 153.053 227.341 154.975 229.204 157.537C231.58 160.778 234.156 165.066 233.62 167.707Z" fill="#F9978A"/>
<path d="M215.401 164.26C220.253 162.561 224.889 160.298 229.214 157.518C227.35 154.956 225.619 153.033 225.619 153.033L225.241 153.289L215.219 153.402L211.01 157.262" fill="#EB6C6A"/>
<path d="M193.543 123.091C194.187 119.934 203.869 122.373 209.937 129.346C216.006 136.319 227.094 152.276 227.094 152.276L210.183 165.189C210.183 165.189 191.384 133.708 193.543 123.091Z" fill="#CF3045"/>
<path d="M178.997 134.78C177.615 134.17 168.09 130.088 171.764 118.862C171.798 118.759 171.833 118.655 171.862 118.557C171.895 118.47 171.923 118.381 171.946 118.291C172.612 116.061 172.892 113.732 172.772 111.407L179.774 112.341H186.816C186.595 113.484 186.478 114.644 186.467 115.808C186.467 117.219 187.396 123.096 187.396 123.096C187.396 123.096 186.718 133.55 178.997 134.78Z" fill="#F9978A"/>
<path d="M186.447 115.803C185.149 116.939 180.379 120.396 171.862 118.552C171.895 118.465 171.923 118.377 171.946 118.287C172.613 116.056 172.892 113.727 172.772 111.402L179.774 112.336H186.816C186.591 113.479 186.468 114.639 186.447 115.803Z" fill="#EB6C6A"/>
<path d="M210.262 205.114C200.732 209.048 158.772 207.72 152.236 205.522C152.236 205.522 156.869 183.831 152.364 151.651C149.458 130.895 153.839 128.638 156.234 125.849C158.147 123.637 162.794 122.24 166.349 121.458C168.784 120.927 170.701 120.681 170.888 120.667C170.549 129.911 179.513 133.604 179.513 133.604C179.513 133.604 187.352 128.687 187.086 121.006C187.244 121.006 188.625 120.981 190.528 121.08C194.236 121.276 199.916 121.95 202.207 124.261C204.809 126.877 205.61 128.898 207.848 149.733C208.974 160.704 210.262 205.114 210.262 205.114Z" fill="#CF3045"/>
<path d="M190.48 121.08C190.106 125.441 188.45 129.593 185.72 133.014C184.481 134.558 182.932 135.965 181.004 136.457C178.408 137.071 175.723 135.793 173.628 134.131C169.708 130.959 167.099 126.451 166.301 121.473C168.735 120.942 170.653 120.696 170.84 120.681C170.5 129.926 179.465 133.619 179.465 133.619C179.465 133.619 187.303 128.702 187.038 121.021C187.205 121.011 188.587 120.981 190.48 121.08Z" fill="#941237"/>
<path d="M202.251 173.18C198.493 181.28 192.295 188.001 184.525 192.402C176.755 196.802 167.803 198.661 158.924 197.718C164.077 199.316 169.526 198.849 174.768 197.752C180.841 196.479 186.894 194.31 192.033 190.209C197.172 186.108 201.327 179.853 202.251 173.18Z" fill="#941237"/>
<path d="M204.258 190.789C198.113 195.099 191.153 198.107 183.803 199.629C176.454 201.151 168.871 201.155 161.521 199.64C166.881 202.375 173.131 202.748 179.135 202.37C183.846 202.075 188.581 201.332 192.928 199.498C197.384 197.606 201.284 194.608 204.258 190.789Z" fill="#941237"/>
<path d="M208.448 161.462C207.464 150.427 206.761 142.667 205.173 130.531C208.787 143.218 209.844 152.133 208.448 161.462Z" fill="#941237"/>
<path d="M208.295 155.477C210.262 148.249 210.375 141.074 210.754 133.201C212.057 139.972 211.476 152.32 208.447 161.299C208.256 160.055 208.093 156.22 208.295 155.477Z" fill="#941237"/>
<path d="M202.916 99.7971C203.836 101.872 202.144 104.547 199.139 105.767C196.135 106.986 192.953 106.293 192.039 104.218C191.124 102.143 192.811 99.4676 195.815 98.2481C198.82 97.0285 201.997 97.7219 202.916 99.7971Z" fill="#EB6C6A"/>
<path d="M157.35 96.9596C156.205 98.9266 157.591 101.764 160.439 103.318C163.286 104.872 166.526 104.537 167.667 102.575C168.808 100.613 167.426 97.771 164.579 96.2171C161.732 94.6632 158.496 94.9927 157.35 96.9596Z" fill="#EB6C6A"/>
<path d="M197.718 96.4334C197.595 102.256 191.325 117.087 179.484 116.29C165.474 115.346 162.642 98.2529 162.927 94.0632C163.778 81.5041 171.287 73.6165 181.122 74.1624C190.956 74.7082 198.018 82.3548 197.718 96.4334Z" fill="#F9978A"/>
<path d="M163.546 96.9596C164.195 94.9926 165.67 93.4485 166.988 91.87C168.306 90.2915 169.447 87.2182 169.727 85.4036C171.61 86.9456 173.857 87.9799 176.253 88.4082C178.618 88.7475 180.855 88.6393 181.49 86.51C182.7 87.8968 185.296 88.8753 187.302 88.8606C187.804 88.8591 188.299 88.7539 188.758 88.5517C189.216 88.3494 189.628 88.0544 189.968 87.6853C191.043 88.8691 192.433 89.722 193.975 90.144C193.975 90.144 196.822 95.7548 197.152 98.0119C197.354 93.6718 197.168 89.3222 196.596 85.0151C187.87 80.9922 178.523 78.4829 168.955 77.5947C165.25 83.3605 163.365 90.1081 163.546 96.9596Z" fill="#EB6C6A"/>
<path d="M201.224 85.4577C200.718 86.3783 200.064 87.2091 199.287 87.9164C199.447 92.3273 198.657 96.7211 196.971 100.8C196.843 95.0516 195.987 93.483 195.196 89.4654C193.21 88.6169 191.461 87.297 190.101 85.62C189.61 86.8592 187.706 87.7787 186.064 87.3755C184.034 86.826 182.174 85.7761 180.655 84.3218C180.781 84.6337 180.829 84.9718 180.794 85.3066C180.759 85.6413 180.643 85.9623 180.455 86.2415C180.267 86.5207 180.014 86.7495 179.717 86.9078C179.42 87.0661 179.088 87.149 178.752 87.1493C175.944 87.346 171.808 85.3741 168.868 83.4317C167.053 91.4717 165.583 90.203 163.375 98.6069C160.965 93.4535 159.785 89.431 159.771 84.3464C159.771 81.9221 160.011 77.875 165.14 76.8325C166.738 73.9095 168.814 71.2749 171.282 69.0384C173.336 67.172 175.656 65.6224 178.167 64.4406C179.642 63.7472 181.274 63.1817 182.838 63.58C184.402 63.9784 185.744 65.6798 185.267 67.3075C188.071 66.15 191.17 65.9091 194.119 66.619C195.86 67.0419 197.605 67.8582 198.662 69.3875C199.72 70.9169 198.825 73.5329 197.566 75.259C199.779 76.3162 202.105 78.7651 202.282 81.332C202.339 82.7809 201.972 84.215 201.224 85.4577Z" fill="#302565"/>
<path d="M201.224 85.4577C201.354 83.2019 200.617 80.9817 199.163 79.2519C197.71 77.5221 195.649 76.4137 193.405 76.1539C194.053 75.4882 194.636 74.762 195.146 73.9853C195.39 73.597 195.554 73.1638 195.628 72.7111C195.702 72.2585 195.686 71.7956 195.578 71.3496C195.146 69.9038 193.567 69.1416 192.087 68.8122C188.83 68.0999 185.425 68.6388 182.547 70.3218C182.719 69.0335 182.631 67.7893 182.001 67.0173C181.665 66.6446 181.25 66.3515 180.787 66.1593C180.323 65.9671 179.823 65.8805 179.321 65.906C178.322 65.9596 177.34 66.1893 176.42 66.5846C174.636 67.2601 172.91 68.0825 171.262 69.0433C173.315 67.1769 175.635 65.6273 178.146 64.4455C179.621 63.7521 181.254 63.1866 182.818 63.5849C184.381 63.9832 185.724 65.6847 185.247 67.3124C188.051 66.1549 191.149 65.9139 194.098 66.6239C195.839 67.0468 197.585 67.8631 198.642 69.3924C199.699 70.9217 198.804 73.5378 197.545 75.2638C199.758 76.3211 202.084 78.77 202.261 81.3369C202.316 82.7814 201.956 84.2115 201.224 85.4577Z" fill="#473B8C"/>
<path d="M184.269 91.639C185.872 91.2062 188.36 90.9948 190.209 92.9519" stroke="#302565" stroke-miterlimit="10" stroke-linecap="round"/>
<path d="M170.273 93.9352C172.183 94.2667 174.148 94.0414 175.933 93.2861" stroke="#302565" stroke-miterlimit="10" stroke-linecap="round"/>
<path d="M187.563 98.9756C187.101 98.9756 186.836 98.4101 186.88 97.6037C186.924 96.7972 187.249 96.2907 187.711 96.3153C188.173 96.3399 188.439 96.8808 188.394 97.6873C188.35 98.4937 188.021 99.0002 187.563 98.9756Z" fill="#142843"/>
<path d="M174.974 98.1153C174.512 98.1153 174.197 97.6235 174.163 96.8072C174.129 95.9909 174.409 95.4648 174.866 95.45C175.324 95.4353 175.643 95.9418 175.678 96.7581C175.712 97.5744 175.437 98.1005 174.974 98.1153Z" fill="#142843"/>
<path d="M179.095 100.141C178.711 101.34 178.624 102.614 178.845 103.854" stroke="#AE3838" stroke-miterlimit="10" stroke-linecap="round"/>
<path d="M174.778 106.676C176.839 106.557 178.868 107.231 180.448 108.56" stroke="#AE3838" stroke-miterlimit="10" stroke-linecap="round"/>
<path d="M148.027 145.529C147.678 152.182 147.339 158.9 148.406 165.479C149.473 172.059 152.91 182.454 157.287 182.975C158.615 176.163 159.941 169.351 161.265 162.538C161.491 161.383 161.708 160.144 161.265 159.052C160.906 158.329 160.404 157.687 159.79 157.164C155.856 153.358 151.947 149.576 148.027 145.529Z" fill="#EB6C6A"/>
<path d="M160.444 123.101C155.689 123.592 150.742 128.367 148.947 134.44C146.105 144.069 145.446 151.873 144.521 163.92C150.595 164.786 157.454 165.917 163.532 165.317C165.74 151.838 165.022 122.466 160.444 123.101Z" fill="#CF3045"/>
<path d="M161.319 128.741C163.046 140.466 163.274 152.364 161.998 164.146C164.462 152.364 165.371 139.835 161.319 128.741Z" fill="#941237"/>
<path d="M173.273 137.238C173.273 137.238 171.635 158.875 169.339 171.036C167.043 183.197 157.537 183.59 156.327 182.921C152.689 180.954 151.125 174.07 153.028 169.241C156.436 160.601 164.072 140.931 165.169 135.581L173.273 137.238Z" fill="#FAA998"/>
<path d="M177.158 129.779C177.158 129.779 176.897 134.814 173.273 137.238L165.149 135.581L167.48 120.46C167.48 120.46 167.662 115.847 169.732 113.276C171.803 110.704 176.464 111.073 177.045 112.577C177.625 114.082 174.753 113.733 173.347 114.284C171.94 114.834 171.424 118.296 171.424 118.296C171.424 118.296 174.866 116.644 176.833 117.037C178.8 117.431 181.672 120.553 180.177 122.265C180.615 122.629 180.893 123.15 180.953 123.717C181.013 124.283 180.849 124.851 180.497 125.299C180.497 125.299 182.572 128.923 177.158 129.779Z" fill="#FAA998"/>
<path d="M176.78 126.331C176.78 126.331 176.564 126.941 177.38 127.61" stroke="#AE3838" stroke-width="0.75" stroke-miterlimit="10" stroke-linecap="round"/>
<path d="M180.507 125.294C180.507 125.294 179.558 123.45 177.064 123.956" stroke="#AE3838" stroke-width="0.75" stroke-miterlimit="10" stroke-linecap="round"/>
<path d="M180.187 122.26C180.187 122.26 177.434 119.939 174.778 121.522" stroke="#AE3838" stroke-width="0.75" stroke-miterlimit="10" stroke-linecap="round"/>
<path d="M178.186 126.848C177.863 127.163 177.61 127.542 177.441 127.96C177.271 128.378 177.19 128.826 177.202 129.277" stroke="#AE3838" stroke-width="0.75" stroke-miterlimit="10" stroke-linecap="round"/>
<path d="M293.687 92.9026C298.24 87.2721 300.306 111.25 297.394 118.065C296.824 119.228 296.37 120.443 296.037 121.694C295.874 122.322 295.84 122.976 295.936 123.618C296.032 124.259 296.257 124.874 296.598 125.426C297.503 126.715 299.155 127.212 300.355 128.225C301.923 129.547 302.627 131.721 302.509 133.781C302.314 135.843 301.596 137.822 300.424 139.53C297.262 144.477 290.476 147.344 284.86 148.927C279.244 150.51 273.265 150.402 267.516 149.443C263.415 148.75 259.102 147.437 256.516 144.152C255.194 142.392 254.464 140.258 254.431 138.058C254.397 135.857 255.062 133.702 256.329 131.903C257.622 130.157 259.55 128.824 260.312 126.784C261.345 124.015 258.837 122.358 258.217 120.047C256.437 113.374 261.615 113.777 258.596 98.4789C258.375 97.3676 265.426 98.6609 266.557 98.6068C275.715 98.1167 284.896 98.9649 293.81 101.125C294.68 99.0002 292.384 94.5007 293.687 92.9026Z" fill="#17194D"/>
<path d="M265.692 138.119C264.775 135.141 263.53 132.275 261.979 129.572C258.562 129.847 253.226 130.816 250.964 133.398C248.815 135.857 248.737 139.412 248.471 142.657C247.684 152.32 245.845 161.167 245.693 170.859C245.649 173.499 245.919 176.322 247.566 178.387C248.933 180.099 251.599 181.008 253.359 179.705C254.933 178.54 255.08 176.293 255.164 174.335C255.648 161.582 259.264 149.144 265.692 138.119Z" fill="#EB8175"/>
<path d="M247.822 231.978C245.402 239.865 242.972 247.754 240.529 255.645C249.297 257.425 269.35 255.822 270.068 255.07C270.74 254.268 271.242 253.337 271.544 252.336L277.735 235.754C267.575 236.123 257.391 235.272 247.822 231.978Z" fill="#EB6C6A"/>
<path d="M306.428 224.567C304.716 233.835 302.3 242.959 299.199 251.859C298.393 254.18 297.36 256.693 295.083 257.868C293.677 258.596 292.01 258.684 290.402 258.743C282.986 259.022 275.569 259.009 268.15 258.704C270.61 252.276 272.053 245.504 272.429 238.631C283.763 234.618 295.103 230.63 306.428 224.567Z" fill="#F69887"/>
<path d="M302.519 246.499C280.1 249.567 256.757 248.594 242.324 245.378C244.95 235.243 254.062 202.075 254.426 198.932C254.519 198.146 254.618 196.965 254.716 195.49C254.77 194.802 254.814 194.059 254.854 193.272C255.09 189.215 255.291 184.013 255.306 179.735C255.306 179.592 255.306 179.449 255.306 179.317C269.532 178.825 282.49 180.241 295.629 178.446C298.236 180.821 300.472 183.572 302.263 186.609C302.405 186.855 302.553 187.101 302.691 187.352C312.098 204.16 307.505 227.301 302.519 246.499Z" fill="#3F65AE"/>
<path d="M302.71 187.357C296.155 190.524 280.35 197.477 254.735 195.495C254.789 194.807 254.834 194.064 254.873 193.277C255.109 189.221 255.311 184.018 255.325 179.74C255.325 179.597 255.325 179.455 255.325 179.322C269.552 178.83 282.509 180.246 295.648 178.451C298.255 180.826 300.491 183.577 302.282 186.614L302.71 187.357Z" fill="#2C529E"/>
<path d="M289.054 204.504C285.868 212.982 282.554 221.681 276.485 228.408C270.417 235.135 260.882 239.531 252.193 236.974C267.737 231.083 280.98 219.335 289.054 204.504Z" fill="#2C529E"/>
<path d="M255.911 195.579C271.764 196.788 287.67 194.067 302.219 187.657" stroke="#1F2F7A" stroke-miterlimit="10" stroke-linecap="round"/>
<path d="M299.376 189.103C303.802 197.433 304.992 207.189 304.293 216.596C303.595 226.003 300.763 237.249 298.274 246.356" stroke="#1F2F7A" stroke-miterlimit="10" stroke-linecap="round"/>
<path d="M295.029 190.74C295.314 192.017 295.735 193.26 296.283 194.448C296.84 195.642 297.761 196.628 298.914 197.265C299.494 197.573 300.144 197.725 300.8 197.705C301.456 197.685 302.096 197.495 302.656 197.152" stroke="#1F2F7A" stroke-miterlimit="10" stroke-linecap="round"/>
<path d="M272.975 195.47C273.827 202.066 273.927 208.738 273.275 215.357" stroke="#1F2F7A" stroke-miterlimit="10" stroke-linecap="round"/>
<path d="M276.938 195.112C277.432 198.564 277.663 202.049 277.631 205.537C277.631 206.52 277.567 207.548 276.967 208.305C276.186 209.289 274.946 209.446 273.692 209.525" stroke="#1F2F7A" stroke-miterlimit="10" stroke-linecap="round"/>
<path d="M298.387 180.281C290.416 186.639 256.23 186.221 254.421 182.523C253.531 180.699 253.265 174.271 253.496 166.517C253.924 151.627 256.156 131.863 259.225 130.462C265.244 127.708 280.97 128.298 291.862 133.412C295.85 135.291 299.853 137.346 301.598 141.384C302.267 143.183 302.581 145.095 302.523 147.014C302.602 155.477 298.869 167.707 297.689 172.059C297.035 174.468 301.894 177.487 298.387 180.281Z" fill="#FEE46B"/>
<path d="M298.387 180.281C290.416 186.639 256.23 186.221 254.421 182.523C253.531 180.699 253.265 174.272 253.496 166.517C259.835 169.89 266.96 171.705 273.992 170.628C282.352 169.339 289.728 164.083 295.221 157.616C297.971 154.312 300.413 150.763 302.518 147.014C302.597 155.477 298.864 167.707 297.684 172.059C297.035 174.468 301.894 177.488 298.387 180.281Z" fill="#F5CC53"/>
<path d="M270.895 142.274C275.979 144.909 284.742 146.67 286.798 145.76C290.594 144.083 291.415 133.388 290.633 132.055C290.038 131.099 289.216 130.303 288.241 129.738C287.267 129.173 286.168 128.856 285.042 128.815C279.884 134.052 275.001 135.97 270.895 142.274Z" fill="#FFF2A6"/>
<path d="M276.426 129.946C273.303 126.828 267.398 127.374 265.844 128.82C263.385 131.121 258.507 139.097 258.89 142.239C259.077 143.778 269.163 142.756 270.894 142.111C272.713 136.948 273.623 135.615 276.426 129.946Z" fill="#FFF2A6"/>
<path d="M269.817 147.472C270.415 147.472 270.899 146.987 270.899 146.39C270.899 145.792 270.415 145.308 269.817 145.308C269.22 145.308 268.735 145.792 268.735 146.39C268.735 146.987 269.22 147.472 269.817 147.472Z" fill="#EB9738"/>
<path d="M269.168 153.033C269.765 153.033 270.25 152.549 270.25 151.951C270.25 151.354 269.765 150.869 269.168 150.869C268.57 150.869 268.086 151.354 268.086 151.951C268.086 152.549 268.57 153.033 269.168 153.033Z" fill="#EB9738"/>
<path d="M270.781 142.603C277.631 139.309 287.933 134.903 287.801 132.896C287.722 131.667 286.684 128.053 286.532 125.707C286.38 123.461 286.496 121.204 286.876 118.985C282.013 119.442 278.477 119.113 273.737 119.275C273.651 121.356 273.429 123.429 273.073 125.481C272.952 126.438 272.586 127.347 272.011 128.121C271.322 128.943 270.191 128.471 269.468 129.105C267.944 130.398 268.991 136.919 270.781 142.603Z" fill="#F69887"/>
<path d="M272.016 128.102C274.224 128.638 276.512 128.77 278.767 128.49C281.526 128.13 284.174 127.179 286.532 125.702C286.38 123.455 286.496 121.199 286.876 118.98C282.013 119.437 278.477 119.108 273.737 119.27C273.651 121.352 273.429 123.427 273.073 125.481C272.951 126.431 272.587 127.333 272.016 128.102Z" fill="#EB6C6A"/>
<path d="M254.888 192.874C259.353 190.475 261.281 189.019 263.218 185.877C263.508 182.843 263.621 179.799 263.71 176.76C261.079 176.15 258.34 175.575 255.601 175.004C254.861 174.806 254.094 174.731 253.329 174.783C252.944 174.817 252.573 174.941 252.245 175.145C251.917 175.349 251.641 175.628 251.441 175.958C251.336 176.15 251.276 176.362 251.266 176.58C251.256 176.799 251.297 177.016 251.384 177.216C251.472 177.416 251.604 177.593 251.77 177.734C251.937 177.875 252.134 177.976 252.346 178.028C249.602 179.046 244.689 180.979 244.571 183.895C244.588 184.2 244.689 184.495 244.863 184.746C245.036 184.998 245.276 185.197 245.555 185.321C246.091 185.591 246.701 185.641 247.522 185.936C247.191 186.211 246.949 186.577 246.827 186.99C246.704 187.402 246.707 187.841 246.833 188.252C246.99 188.689 247.289 189.06 247.682 189.307C248.076 189.554 248.54 189.662 249.002 189.614C248.796 189.925 248.687 190.289 248.687 190.661C248.687 191.034 248.796 191.398 249.002 191.709C249.21 192.008 249.506 192.234 249.849 192.356C250.192 192.477 250.565 192.489 250.915 192.387C250.828 192.83 250.893 193.288 251.099 193.689C251.305 194.089 251.64 194.409 252.051 194.595C252.899 194.923 253.82 195.014 254.716 194.861C254.78 194.295 254.829 193.897 254.888 192.874Z" fill="#F69887"/>
<path d="M258.192 185.768C271.843 188.389 295.29 186.26 299.941 182.872C303.246 180.477 305.001 147.639 303.044 143.262C302.007 140.941 300.954 138.753 297.561 136.82C293.755 134.652 290.677 142.81 290.048 147.299C288.754 156.308 289.094 163.365 289.113 172.044C279.475 175.457 269.045 176.814 258.856 176.814C258.989 178.53 258.217 184.072 258.192 185.768Z" fill="#F69887"/>
<path d="M255.252 137.774C253.678 134.642 251.17 131.318 250.644 129.016C250.152 126.936 251.79 120.583 253.064 119.442C254.588 118.075 261.502 118.223 261.423 119.639C261.363 120.008 261.179 120.345 260.9 120.594C260.622 120.844 260.267 120.991 259.894 121.011C259.156 121.094 256.004 121.719 255.606 121.871C255.208 122.024 254.849 122.943 254.745 124.886C257.12 123.066 257.951 122.147 259.461 122.324C260.366 122.432 261.084 123.273 261.015 124.497C261.369 124.069 262.426 124.05 262.898 124.325C263.882 124.915 264.103 125.8 263.956 126.961C265.662 126.169 265.736 128.121 265.819 129.572C265.913 131.025 265.839 132.483 265.598 133.919C265.446 134.794 264.846 135.434 264.246 135.183C263.336 134.809 263.193 132.754 263.071 131.485C262.537 131.707 262.105 132.121 261.861 132.645C263.498 134.366 264.733 137.435 263.518 140.194C259.633 141.615 257.017 141.305 255.252 137.774Z" fill="#F69887"/>
<path d="M260.715 124.694C259.37 125.416 258.107 126.282 256.948 127.276" stroke="#A83B4F" stroke-miterlimit="10" stroke-linecap="round"/>
<path d="M263.602 127.035C262.341 127.691 261.201 128.555 260.229 129.592" stroke="#A83B4F" stroke-miterlimit="10" stroke-linecap="round"/>
<path d="M263.773 139.25L260.366 170.028C260.366 170.136 260.366 170.244 260.326 170.357C259.938 173.799 259.23 177.566 256.363 179.43C253.496 181.294 248.126 181.466 246.326 176.622C246.253 176.43 246.194 176.229 246.135 176.022C245.018 172.005 246.72 165.695 249.016 160.896C252.183 154.262 254.691 144.954 255.802 137.691C258.512 137.887 261.189 138.411 263.773 139.25Z" fill="#F69887"/>
<path d="M260.322 170.362C259.933 173.804 259.225 177.571 256.358 179.435C253.491 181.298 248.126 181.466 246.322 176.622C246.248 176.43 246.189 176.229 246.13 176.022L246.258 176.14C247.65 177.431 249.494 178.12 251.392 178.058C253.285 177.93 255.001 176.868 256.397 175.599C258.003 174.098 259.332 172.325 260.322 170.362Z" fill="#EB8175"/>
<path d="M254.721 107.527C253.737 109.494 255.301 112.189 258.251 113.502C261.202 114.815 264.403 114.264 265.401 112.277C266.399 110.291 264.846 107.616 261.895 106.303C258.945 104.99 255.724 105.541 254.721 107.527Z" fill="#EB6C6A"/>
<path d="M260.066 107.227C260.238 117.79 264.88 126.09 272.738 126.563C281.895 127.108 293.126 119.334 294.744 106.893C296.106 96.4186 287.368 87.7148 277.533 87.8672C267.698 88.0196 259.894 96.6645 260.066 107.227Z" fill="#F69887"/>
<path d="M290.628 104.778C286.88 104.823 283.179 103.95 279.847 102.235C276.514 100.521 273.652 98.0178 271.509 94.9435C266.736 97.7061 262.773 101.674 260.017 106.45C260.146 101.316 261.966 96.3669 265.195 92.3717C265.942 91.3468 266.93 90.5211 268.071 89.9671C269.239 89.5709 270.476 89.4202 271.705 89.5245C277.136 89.6447 282.555 90.0897 287.933 90.8571C288.36 90.8823 288.774 91.0142 289.138 91.2407C289.684 91.6488 289.811 92.4012 289.895 93.0749C290.422 96.9533 290.666 100.865 290.628 104.778Z" fill="#EB6C6A"/>
<path d="M267.796 109.902C267.452 110.577 267.269 111.322 267.26 112.08C267.252 112.837 267.418 113.587 267.747 114.269" stroke="#A83B4F" stroke-miterlimit="10" stroke-linecap="round"/>
<path d="M269.856 118.232C270.827 117.89 271.869 117.808 272.881 117.994C273.893 118.179 274.839 118.626 275.625 119.29" stroke="#A83B4F" stroke-miterlimit="10" stroke-linecap="round"/>
<path d="M264.536 109.809C264.993 109.843 265.332 109.351 265.396 108.565C265.46 107.778 265.205 107.247 264.747 107.212C264.29 107.178 263.951 107.67 263.887 108.457C263.823 109.243 264.078 109.779 264.536 109.809Z" fill="#1C2B45"/>
<path d="M276.303 110.537C276.761 110.571 277.1 110.079 277.164 109.292C277.228 108.506 276.972 107.975 276.515 107.94C276.057 107.906 275.718 108.397 275.654 109.184C275.59 109.971 275.846 110.502 276.303 110.537Z" fill="#1C2B45"/>
<path d="M262.142 103.962C263.877 104.454 266.218 103.652 267.148 102.384" stroke="#271F64" stroke-miterlimit="10" stroke-linecap="round"/>
<path d="M275.099 102.61C276.07 102.286 277.116 102.259 278.104 102.532C279.091 102.805 279.974 103.366 280.641 104.144" stroke="#271F64" stroke-miterlimit="10" stroke-linecap="round"/>
<path d="M296.219 111.643C294.498 113.541 294.252 113.335 292.256 114.441C291.095 111.323 290.063 108.614 288.942 105.59C280.867 104.06 276.304 98.9019 271.888 92.2732C266.685 95.4695 262.053 100.112 260.061 107.684C258.258 104.609 257.328 101.1 257.372 97.5348C257.372 96.0611 257.5 94.5902 257.755 93.1387C258.042 91.2127 258.71 89.3636 259.722 87.7C260.755 86.0345 262.349 84.7929 264.217 84.1988C267.226 83.3382 270.383 83.9873 273.23 85.2806C277.36 83.7665 281.861 83.5945 286.094 84.7889C287.542 85.1997 288.932 85.7929 290.23 86.5542C292.871 88.0222 295.03 90.2238 296.446 92.8928C299.017 97.9774 297.793 105.85 296.219 111.643Z" fill="#17194D"/>
<path d="M290.249 86.5739C284.765 84.9703 278.893 85.3392 273.653 87.6163C269.419 86.2198 264.585 87.9212 261.438 91.0586C259.649 92.9135 258.265 95.1207 257.376 97.5397C257.376 96.066 257.505 94.5951 257.76 93.1435C258.046 91.2176 258.715 89.3685 259.727 87.7049C260.76 86.0394 262.353 84.7978 264.221 84.2036C267.231 83.3431 270.388 83.9922 273.235 85.2855C277.364 83.7714 281.866 83.5993 286.099 84.7937C287.551 85.2115 288.945 85.8096 290.249 86.5739Z" fill="#2B356E"/>
<path d="M299.819 112.558C300.468 114.643 298.521 116.89 295.472 117.578C292.423 118.267 289.423 117.136 288.774 115.051C288.125 112.966 290.072 110.718 293.121 110.03C296.17 109.342 299.17 110.473 299.819 112.558Z" fill="#F69887"/>
</g>
</svg>
