<svg width="40" height="40" viewBox="0 0 40 40" fill="none" xmlns="http://www.w3.org/2000/svg">
<rect width="40" height="40" rx="20" fill="#1877F2"/>
<g clip-path="url(#clip0_96_1797)">
<path d="M31.3334 20.3334C31.3334 13.8901 26.11 8.66675 19.6667 8.66675C13.2233 8.66675 8 13.8901 8 20.3334C8 26.1566 12.2664 30.9831 17.8438 31.8584V23.7058H14.8815V20.3334H17.8438V17.7631C17.8438 14.8391 19.5855 13.224 22.2504 13.224C23.5269 13.224 24.862 13.4519 24.862 13.4519V16.323H23.3909C21.9416 16.323 21.4896 17.2223 21.4896 18.1449V20.3334H24.7253L24.208 23.7058H21.4896V31.8584C27.067 30.9831 31.3334 26.1566 31.3334 20.3334Z" fill="white"/>
<path d="M24.2083 23.7059L24.7256 20.3335H21.4899V18.145C21.4899 17.2224 21.9419 16.3231 23.3912 16.3231H24.8623V13.452C24.8623 13.452 23.5272 13.2241 22.2508 13.2241C19.5858 13.2241 17.8441 14.8392 17.8441 17.7632V20.3335H14.8818V23.7059H17.8441V31.8584C18.438 31.9516 19.0468 32.0002 19.667 32.0002C20.2872 32.0002 20.8959 31.9516 21.4899 31.8584V23.7059H24.2083Z" fill="#1877F2"/>
</g>
<defs>
<clipPath id="clip0_96_1797">
<rect width="23.3334" height="23.3333" fill="white" transform="translate(8 8.66675)"/>
</clipPath>
</defs>
</svg>
