<svg width="12" height="12" viewBox="0 0 12 12" fill="none" xmlns="http://www.w3.org/2000/svg">
<path d="M11.75 3C11.75 2.86739 11.6973 2.74021 11.6036 2.64645C11.5098 2.55268 11.3826 2.5 11.25 2.5H6C5.86739 2.5 5.74021 2.55268 5.64645 2.64645C5.55268 2.74021 5.5 2.86739 5.5 3C5.5 3.13261 5.55268 3.25979 5.64645 3.35355C5.74021 3.44732 5.86739 3.5 6 3.5H11.25C11.3826 3.5 11.5098 3.44732 11.6036 3.35355C11.6973 3.25979 11.75 3.13261 11.75 3Z" fill="black"/>
<path d="M0.75 3.5H2.0875C2.20545 3.83361 2.43753 4.11478 2.74274 4.29382C3.04795 4.47286 3.40662 4.53824 3.75537 4.4784C4.10411 4.41857 4.42048 4.23737 4.64855 3.96683C4.87662 3.6963 5.00171 3.35385 5.00171 3C5.00171 2.64616 4.87662 2.30371 4.64855 2.03317C4.42048 1.76264 4.10411 1.58144 3.75537 1.52161C3.40662 1.46177 3.04795 1.52715 2.74274 1.70619C2.43753 1.88523 2.20545 2.1664 2.0875 2.5H0.75C0.617392 2.5 0.490215 2.55268 0.396447 2.64645C0.302678 2.74022 0.25 2.86739 0.25 3C0.25 3.13261 0.302678 3.25979 0.396447 3.35356C0.490215 3.44732 0.617392 3.5 0.75 3.5ZM3.5 2.5C3.59889 2.5 3.69556 2.52933 3.77779 2.58427C3.86001 2.63921 3.9241 2.7173 3.96194 2.80866C3.99978 2.90002 4.00969 3.00056 3.99039 3.09755C3.9711 3.19454 3.92348 3.28363 3.85355 3.35356C3.78363 3.42348 3.69454 3.4711 3.59755 3.4904C3.50055 3.50969 3.40002 3.49979 3.30866 3.46194C3.2173 3.4241 3.13921 3.36001 3.08427 3.27779C3.02932 3.19556 3 3.09889 3 3C3 2.86739 3.05268 2.74022 3.14645 2.64645C3.24021 2.55268 3.36739 2.5 3.5 2.5Z" fill="black"/>
<path d="M11.25 5.5H9.4125C9.29456 5.1664 9.06247 4.88523 8.75726 4.70619C8.45206 4.52715 8.09339 4.46177 7.74464 4.52161C7.39589 4.58144 7.07952 4.76264 6.85145 5.03317C6.62338 5.30371 6.49829 5.64616 6.49829 6C6.49829 6.35385 6.62338 6.6963 6.85145 6.96683C7.07952 7.23737 7.39589 7.41857 7.74464 7.4784C8.09339 7.53824 8.45206 7.47286 8.75726 7.29382C9.06247 7.11478 9.29456 6.83361 9.4125 6.5H11.25C11.3826 6.5 11.5098 6.44732 11.6036 6.35356C11.6973 6.25979 11.75 6.13261 11.75 6C11.75 5.86739 11.6973 5.74022 11.6036 5.64645C11.5098 5.55268 11.3826 5.5 11.25 5.5ZM8 6.5C7.90111 6.5 7.80444 6.47068 7.72222 6.41574C7.63999 6.3608 7.57591 6.28271 7.53806 6.19134C7.50022 6.09998 7.49032 5.99945 7.50961 5.90246C7.5289 5.80547 7.57653 5.71638 7.64645 5.64645C7.71638 5.57652 7.80547 5.5289 7.90246 5.50961C7.99945 5.49032 8.09998 5.50022 8.19135 5.53806C8.28271 5.57591 8.3608 5.63999 8.41574 5.72222C8.47068 5.80444 8.5 5.90111 8.5 6C8.5 6.13261 8.44733 6.25979 8.35356 6.35356C8.25979 6.44732 8.13261 6.5 8 6.5Z" fill="black"/>
<path d="M5.5 5.5H0.75C0.617392 5.5 0.490215 5.55268 0.396447 5.64645C0.302678 5.74021 0.25 5.86739 0.25 6C0.25 6.13261 0.302678 6.25979 0.396447 6.35355C0.490215 6.44732 0.617392 6.5 0.75 6.5H5.5C5.63261 6.5 5.75979 6.44732 5.85355 6.35355C5.94732 6.25979 6 6.13261 6 6C6 5.86739 5.94732 5.74021 5.85355 5.64645C5.75979 5.55268 5.63261 5.5 5.5 5.5Z" fill="black"/>
<path d="M11.25 8.5H7C6.86739 8.5 6.74021 8.55268 6.64645 8.64645C6.55268 8.74021 6.5 8.86739 6.5 9C6.5 9.13261 6.55268 9.25979 6.64645 9.35355C6.74021 9.44732 6.86739 9.5 7 9.5H11.25C11.3826 9.5 11.5098 9.44732 11.6036 9.35355C11.6973 9.25979 11.75 9.13261 11.75 9C11.75 8.86739 11.6973 8.74021 11.6036 8.64645C11.5098 8.55268 11.3826 8.5 11.25 8.5Z" fill="black"/>
<path d="M4.5 7.5C4.1901 7.50036 3.88792 7.59669 3.63499 7.77575C3.38206 7.95482 3.1908 8.20782 3.0875 8.5H0.75C0.617392 8.5 0.490215 8.55268 0.396447 8.64645C0.302678 8.74022 0.25 8.86739 0.25 9C0.25 9.13261 0.302678 9.25979 0.396447 9.35355C0.490215 9.44732 0.617392 9.5 0.75 9.5H3.0875C3.17919 9.75934 3.34043 9.98847 3.55358 10.1623C3.76673 10.3362 4.02359 10.4481 4.29606 10.4858C4.56853 10.5235 4.84613 10.4856 5.09849 10.3762C5.35086 10.2667 5.56827 10.09 5.72695 9.86532C5.88564 9.64064 5.97948 9.37665 5.99823 9.10222C6.01697 8.82778 5.95989 8.55348 5.83323 8.30931C5.70657 8.06513 5.51521 7.86049 5.28007 7.71775C5.04493 7.57502 4.77507 7.49969 4.5 7.5ZM4.5 9.5C4.40111 9.5 4.30444 9.47068 4.22221 9.41574C4.13999 9.3608 4.0759 9.28271 4.03806 9.19134C4.00022 9.09998 3.99031 8.99945 4.00961 8.90246C4.0289 8.80546 4.07652 8.71637 4.14645 8.64645C4.21637 8.57652 4.30546 8.5289 4.40245 8.50961C4.49945 8.49032 4.59998 8.50022 4.69134 8.53806C4.7827 8.5759 4.86079 8.63999 4.91573 8.72222C4.97068 8.80444 5 8.90111 5 9C5 9.13261 4.94732 9.25979 4.85355 9.35355C4.75979 9.44732 4.63261 9.5 4.5 9.5Z" fill="black"/>
</svg>
