<svg width="17" height="16" viewBox="0 0 17 16" fill="none" xmlns="http://www.w3.org/2000/svg">
<path fill-rule="evenodd" clip-rule="evenodd" d="M1.16459 5.35223C1.07271 5.35223 0.998224 5.42671 0.998224 5.5186V8.18053C0.998224 8.27241 1.07271 8.3469 1.16459 8.3469H15.8052C15.8971 8.3469 15.9716 8.27241 15.9716 8.18053V5.5186C15.9716 5.42671 15.8971 5.35223 15.8052 5.35223H1.16459ZM0 5.5186C0 4.87541 0.521407 4.354 1.16459 4.354H15.8052C16.4484 4.354 16.9698 4.87541 16.9698 5.5186V8.18053C16.9698 8.82372 16.4484 9.34512 15.8052 9.34512H1.16459C0.521407 9.34512 0 8.82372 0 8.18053V5.5186Z" fill="black"/>
<path fill-rule="evenodd" clip-rule="evenodd" d="M1.83004 8.34692C2.1057 8.34692 2.32916 8.57038 2.32916 8.84604V14.8354C2.32916 14.8795 2.34668 14.9218 2.37789 14.953C2.40909 14.9842 2.4514 15.0017 2.49553 15.0017H14.4742C14.5183 15.0017 14.5607 14.9842 14.5919 14.953C14.6231 14.9218 14.6406 14.8795 14.6406 14.8354V8.84604C14.6406 8.57038 14.864 8.34692 15.1397 8.34692C15.4153 8.34692 15.6388 8.57038 15.6388 8.84604V14.8354C15.6388 15.1442 15.5161 15.4405 15.2977 15.6589C15.0793 15.8773 14.7831 16 14.4742 16H2.49553C2.18666 16 1.89044 15.8773 1.67203 15.6589C1.45363 15.4405 1.33093 15.1442 1.33093 14.8354V8.84604C1.33093 8.57038 1.55439 8.34692 1.83004 8.34692Z" fill="black"/>
<path fill-rule="evenodd" clip-rule="evenodd" d="M8.48495 4.354C8.7606 4.354 8.98406 4.57746 8.98406 4.85312V15.5008C8.98406 15.7765 8.7606 15.9999 8.48495 15.9999C8.2093 15.9999 7.98584 15.7765 7.98584 15.5008V4.85312C7.98584 4.57746 8.2093 4.354 8.48495 4.354Z" fill="black"/>
<path fill-rule="evenodd" clip-rule="evenodd" d="M9.77865 1.43702C9.62286 1.59459 9.47719 1.86396 9.35515 2.23115C9.23572 2.5905 9.15292 3.00009 9.09656 3.39513C9.04643 3.74649 9.01853 4.07675 9.00306 4.33506C9.26137 4.31959 9.59163 4.29169 9.94298 4.24156C10.338 4.1852 10.7476 4.1024 11.107 3.98297C11.4742 3.86092 11.7436 3.71525 11.9011 3.55945C12.1821 3.27807 12.3399 2.89668 12.3399 2.49902C12.3399 2.10099 12.1818 1.71925 11.9003 1.4378C11.6189 1.15634 11.2371 0.998224 10.8391 0.998224C10.4414 0.998224 10.06 1.15605 9.77865 1.43702ZM8.48495 4.85317C7.98584 4.85317 7.98584 4.85308 7.98584 4.85297L7.98584 4.852L7.98585 4.8498L7.98588 4.84238C7.98591 4.8361 7.98597 4.82719 7.9861 4.81578C7.98635 4.79297 7.98684 4.76017 7.98781 4.71854C7.98975 4.63532 7.99359 4.51655 8.00122 4.37151C8.01644 4.08218 8.04693 3.6846 8.10834 3.25414C8.16948 2.82565 8.26293 2.35244 8.40787 1.91632C8.55001 1.48867 8.75655 1.0502 9.07047 0.733505L9.07202 0.731947C9.54068 0.263289 10.1763 0 10.8391 0C11.5019 0 12.1375 0.263289 12.6062 0.731947C13.0748 1.2006 13.3381 1.83624 13.3381 2.49902C13.3381 3.1618 13.0748 3.79744 12.6062 4.2661L12.6046 4.26765C12.2879 4.58157 11.8495 4.78811 11.4218 4.93025C10.9857 5.07519 10.5125 5.16864 10.084 5.22978C9.65352 5.29119 9.25594 5.32168 8.96661 5.3369C8.82157 5.34453 8.7028 5.34837 8.61958 5.35031C8.57794 5.35128 8.54515 5.35177 8.52234 5.35202C8.51093 5.35214 8.50202 5.35221 8.49574 5.35224L8.48832 5.35227L8.48612 5.35228L8.48515 5.35228C8.48504 5.35228 8.48495 5.35228 8.48495 4.85317ZM8.48495 4.85317V5.35228C8.35258 5.35228 8.22563 5.29969 8.13203 5.20609C8.03842 5.11249 7.98584 4.98554 7.98584 4.85317H8.48495Z" fill="black"/>
<path fill-rule="evenodd" clip-rule="evenodd" d="M4.36366 0.731947C4.83232 0.263289 5.46795 0 6.13074 0C6.79352 0 7.42915 0.263289 7.89781 0.731947L7.89936 0.733505C8.21328 1.0502 8.41983 1.48867 8.56196 1.91632C8.7069 2.35244 8.80035 2.82565 8.86149 3.25414C8.92291 3.6846 8.9534 4.08218 8.96862 4.37151C8.97625 4.51655 8.98009 4.63532 8.98202 4.71854C8.98299 4.76017 8.98348 4.79297 8.98373 4.81578C8.98386 4.82719 8.98392 4.8361 8.98396 4.84238L8.98399 4.8498L8.98399 4.852L8.98399 4.85297C8.98399 4.85308 8.98399 4.85317 8.48488 4.85317C8.48488 5.35228 8.48479 5.35228 8.48469 5.35228L8.48371 5.35228L8.48152 5.35227L8.47409 5.35224C8.46782 5.35221 8.4589 5.35214 8.4475 5.35202C8.42469 5.35177 8.39189 5.35128 8.35026 5.35031C8.26703 5.34837 8.14826 5.34453 8.00322 5.3369C7.71389 5.32168 7.31631 5.29119 6.88585 5.22978C6.45737 5.16864 5.98415 5.07519 5.54804 4.93025C5.12038 4.78811 4.68191 4.58157 4.36522 4.26765L4.36366 4.2661C3.895 3.79744 3.63171 3.1618 3.63171 2.49902C3.63171 1.83624 3.895 1.2006 4.36366 0.731947ZM8.48488 4.85317V5.35228C8.61725 5.35228 8.7442 5.29969 8.83781 5.20609C8.93141 5.11249 8.98399 4.98554 8.98399 4.85317H8.48488ZM7.96677 4.33506C7.9513 4.07675 7.9234 3.74649 7.87327 3.39513C7.81691 3.00009 7.73411 2.5905 7.61468 2.23115C7.49264 1.86394 7.34696 1.59457 7.19117 1.437C6.90979 1.15605 6.5284 0.998224 6.13074 0.998224C5.7327 0.998224 5.35097 1.15634 5.06951 1.4378C4.78806 1.71925 4.62994 2.10099 4.62994 2.49902C4.62994 2.89669 4.78776 3.27807 5.06872 3.55945C5.22629 3.71525 5.49566 3.86093 5.86287 3.98297C6.22221 4.1024 6.6318 4.1852 7.02685 4.24156C7.3782 4.29169 7.70847 4.31959 7.96677 4.33506Z" fill="black"/>
</svg>
