<svg width="10" height="10" viewBox="0 0 15 14" fill="none" xmlns="http://www.w3.org/2000/svg">
<g clip-path="url(#clip0_103_4388)">
<path d="M14.8558 8.3639C14.8171 8.50279 14.7884 8.644 14.7424 8.77979C14.6131 9.16231 14.3713 9.49683 14.0485 9.73944C13.7257 9.98205 13.3372 10.1214 12.9338 10.1392C12.7117 10.1493 12.4889 10.145 12.2668 10.1431C11.9628 10.1404 11.7829 9.95858 11.7825 9.65218C11.7825 8.48693 11.7875 7.32168 11.7794 6.15682C11.7759 5.63571 11.7921 5.10802 11.7183 4.59503C11.4532 2.75624 9.9843 1.28963 8.15519 0.99019C5.90439 0.621891 3.78358 1.99257 3.21643 4.2012C3.12569 4.57654 3.07984 4.96133 3.07986 5.34749C3.06439 6.76382 3.07367 8.18053 3.07367 9.59685C3.07367 9.95161 2.96264 10.1048 2.61523 10.1454C1.48519 10.277 0.536973 9.86108 0.132696 8.8355C0.0731179 8.68462 0.0433293 8.52213 0 8.36506V6.65278C0.010501 6.62594 0.0191616 6.59841 0.0259207 6.57038C0.178347 5.70225 0.796563 5.06159 1.65657 4.89679C1.82022 4.86506 1.98889 4.86081 2.1537 4.84417C2.31657 2.31986 4.4428 0.171576 7.0797 0.0106387C8.28673 -0.0628664 9.404 0.226511 10.3998 0.917459C11.7705 1.86916 12.5226 3.19418 12.7017 4.85849C12.7628 4.85849 12.8158 4.85849 12.8684 4.85849C13.3069 4.86792 13.7306 5.0191 14.076 5.2894C14.4214 5.55971 14.67 5.93461 14.7846 6.35799C14.8113 6.45509 14.8322 6.55375 14.8554 6.65201L14.8558 8.3639Z" fill="#059669"/>
<path d="M7.41316 13.9985C7.22475 13.9985 7.03635 14.002 6.84794 13.9985C6.61053 13.9877 6.38633 13.8862 6.2215 13.7149C6.05667 13.5437 5.96378 13.3158 5.96194 13.0782C5.96011 12.8405 6.04947 12.6112 6.21164 12.4375C6.3738 12.2637 6.59641 12.1588 6.83363 12.1443C7.2294 12.133 7.62632 12.1334 8.02209 12.1443C8.25931 12.1588 8.48191 12.2638 8.64404 12.4376C8.80617 12.6114 8.8955 12.8407 8.89361 13.0784C8.89173 13.316 8.79878 13.5439 8.63391 13.7151C8.46904 13.8863 8.24481 13.9877 8.00739 13.9985C7.8097 14.0035 7.61124 13.9985 7.41316 13.9985Z" fill="#059669"/>
<path d="M1.96973 10.6868H2.46879C2.89976 12.1623 3.8913 12.8575 5.4144 12.8145V13.3097C3.72263 13.5225 2.18483 12.2563 1.96973 10.6868Z" fill="#059669"/>
</g>
<defs>
<clipPath id="clip0_103_4388">
<rect width="14.8558" height="14" fill="white"/>
</clipPath>
</defs>
</svg>
