<svg width="40" height="40" viewBox="0 0 40 40" fill="none" xmlns="http://www.w3.org/2000/svg">
<path d="M20 40C8.956 40 0 31.044 0 20C0 8.956 8.956 0 20 0C31.044 0 40 8.956 40 20C40 31.044 31.044 40 20 40Z" fill="url(#paint0_linear_96_1813)"/>
<path d="M20.0015 11.8017C22.6703 11.8017 22.9867 11.8105 24.0413 11.8603C25.0168 11.9042 25.5471 12.0683 25.8986 12.2059C26.3644 12.3876 26.6984 12.6044 27.047 12.953C27.3956 13.3016 27.6124 13.6356 27.7941 14.1014C27.9317 14.4529 28.0929 14.9832 28.1397 15.9587C28.1866 17.0133 28.1983 17.3297 28.1983 19.9985C28.1983 22.6673 28.1895 22.9837 28.1397 24.0384C28.0958 25.0139 27.9317 25.5442 27.7941 25.8957C27.6124 26.3615 27.3956 26.6955 27.047 27.0441C26.6984 27.3927 26.3644 27.6095 25.8986 27.7911C25.5471 27.9288 25.0168 28.0899 24.0413 28.1368C22.9867 28.1837 22.6703 28.1954 20.0015 28.1954C17.3327 28.1954 17.0163 28.1866 15.9616 28.1368C14.9861 28.0929 14.4558 27.9288 14.1043 27.7911C13.6385 27.6095 13.3045 27.3927 12.9559 27.0441C12.6073 26.6955 12.3905 26.3615 12.2089 25.8957C12.0712 25.5442 11.9101 25.0139 11.8632 24.0384C11.8163 22.9837 11.8046 22.6673 11.8046 19.9985C11.8046 17.3297 11.8134 17.0133 11.8632 15.9587C11.9071 14.9832 12.0712 14.4529 12.2089 14.1014C12.3905 13.6356 12.6073 13.3016 12.9559 12.953C13.3045 12.6044 13.6385 12.3876 14.1043 12.2059C14.4558 12.0683 14.9861 11.9071 15.9616 11.8603C17.0163 11.8105 17.3327 11.8017 20.0015 11.8017ZM20.0015 10C17.2858 10 16.946 10.0117 15.8796 10.0615C14.8162 10.1113 14.0896 10.2783 13.451 10.5273C12.7948 10.7793 12.2352 11.122 11.6816 11.6786C11.1249 12.2352 10.7851 12.7919 10.5273 13.451C10.2812 14.0867 10.1113 14.8132 10.0615 15.8796C10.0117 16.946 10 17.2858 10 20.0015C10 22.7172 10.0117 23.057 10.0615 24.1233C10.1113 25.1868 10.2783 25.9133 10.5273 26.5519C10.7822 27.2052 11.1249 27.7648 11.6816 28.3184C12.2382 28.8751 12.7948 29.2149 13.4539 29.4727C14.0896 29.7188 14.8162 29.8887 15.8825 29.9385C16.9489 29.9883 17.2887 30 20.0044 30C22.7201 30 23.0599 29.9883 24.1263 29.9385C25.1897 29.8887 25.9162 29.7217 26.5549 29.4727C27.2081 29.2178 27.7677 28.8751 28.3214 28.3184C28.878 27.7618 29.2178 27.2052 29.4756 26.5461C29.7217 25.9104 29.8916 25.1838 29.9414 24.1175C29.9912 23.0511 30.0029 22.7113 30.0029 19.9956C30.0029 17.2799 29.9912 16.9401 29.9414 15.8737C29.8916 14.8103 29.7246 14.0838 29.4756 13.4451C29.2207 12.7919 28.878 12.2323 28.3214 11.6786C27.7648 11.122 27.2081 10.7822 26.549 10.5244C25.9133 10.2783 25.1868 10.1084 24.1204 10.0586C23.057 10.0117 22.7172 10 20.0015 10Z" fill="white"/>
<path d="M20.0017 14.863C17.1659 14.863 14.8662 17.1627 14.8662 19.9985C14.8662 22.8343 17.1659 25.134 20.0017 25.134C22.8375 25.134 25.1372 22.8343 25.1372 19.9985C25.1372 17.1627 22.8375 14.863 20.0017 14.863ZM20.0017 23.3323C18.1619 23.3323 16.6679 21.8412 16.6679 19.9985C16.6679 18.1558 18.1619 16.6647 20.0017 16.6647C21.8415 16.6647 23.3355 18.1558 23.3355 19.9985C23.3355 21.8412 21.8415 23.3323 20.0017 23.3323Z" fill="white"/>
<path d="M25.3388 15.8619C26.0022 15.8619 26.5399 15.3242 26.5399 14.6608C26.5399 13.9975 26.0022 13.4597 25.3388 13.4597C24.6755 13.4597 24.1377 13.9975 24.1377 14.6608C24.1377 15.3242 24.6755 15.8619 25.3388 15.8619Z" fill="white"/>
<defs>
<linearGradient id="paint0_linear_96_1813" x1="5.85786" y1="34.1421" x2="34.1421" y2="5.85786" gradientUnits="userSpaceOnUse">
<stop stop-color="#FFD521"/>
<stop offset="0.0551048" stop-color="#FFD020"/>
<stop offset="0.1241" stop-color="#FEC01E"/>
<stop offset="0.2004" stop-color="#FCA71B"/>
<stop offset="0.2821" stop-color="#FA8316"/>
<stop offset="0.3681" stop-color="#F85510"/>
<stop offset="0.4563" stop-color="#F51E09"/>
<stop offset="0.5" stop-color="#F30005"/>
<stop offset="0.5035" stop-color="#F20007"/>
<stop offset="0.5966" stop-color="#E1003B"/>
<stop offset="0.6879" stop-color="#D30067"/>
<stop offset="0.7757" stop-color="#C70088"/>
<stop offset="0.8589" stop-color="#BF00A0"/>
<stop offset="0.9357" stop-color="#BB00AF"/>
<stop offset="1" stop-color="#B900B4"/>
</linearGradient>
</defs>
</svg>
