<svg width="18" height="16" viewBox="0 0 18 16" fill="none" xmlns="http://www.w3.org/2000/svg">
<path d="M9.73013 6.71359C9.73013 5.88549 9.5231 5.0574 9.10905 4.3476C8.99076 4.14058 8.72458 4.05185 8.51756 4.17015C8.31053 4.28845 8.22181 4.55463 8.34011 4.76165C8.66543 5.35315 8.84288 6.03337 8.84288 6.71359C8.84288 8.90213 7.03882 10.7062 4.85028 10.7062C2.66174 10.7062 0.857671 8.90213 0.857671 6.71359C0.857671 4.52505 2.66174 2.72099 4.85028 2.72099C5.38262 2.72099 5.91497 2.83929 6.41774 3.04631C6.65434 3.13503 6.89094 3.04631 7.00924 2.80971C7.09796 2.57311 7.00924 2.33651 6.77264 2.21821C6.18114 1.95204 5.5305 1.83374 4.87985 1.83374C2.18854 1.83374 0 4.02228 0 6.71359C0 9.25703 1.95194 11.3568 4.43623 11.5639V12.1849H3.40111C3.16451 12.1849 2.95749 12.392 2.95749 12.6286C2.95749 12.8652 3.16451 13.0722 3.40111 13.0722H4.43623V14.5214L3.69686 13.8116C3.51941 13.6341 3.25323 13.6341 3.07578 13.8116C2.89834 13.989 2.89834 14.2552 3.07578 14.4326L4.52495 15.8818C4.55453 15.9114 4.61368 15.9705 4.67283 15.9705C4.73198 16.0001 4.79113 16.0001 4.8207 16.0001C4.85028 16.0001 4.939 16.0001 4.96858 15.9705C5.02772 15.9409 5.08687 15.9114 5.11645 15.8818L6.56562 14.4326C6.74307 14.2552 6.74307 13.989 6.56562 13.8116C6.38817 13.6341 6.12199 13.6341 5.94455 13.8116L5.2939 14.5214V13.0722H6.32902C6.56562 13.0722 6.77264 12.8652 6.77264 12.6286C6.77264 12.392 6.56562 12.1849 6.32902 12.1849H5.2939V11.5639C7.77819 11.3568 9.73013 9.25703 9.73013 6.71359Z" fill="#727272"/>
<path d="M17.4492 0.266174C17.39 0.147874 17.3309 0.0591498 17.2126 0.029575C17.1534 1.12378e-07 17.0943 0 17.0647 0H14.9353C14.6987 0 14.4917 0.207024 14.4917 0.443623C14.4917 0.680222 14.6987 0.887246 14.9353 0.887246H15.9409L13.8706 2.95749C11.9483 1.36044 9.10907 1.44917 7.305 3.25323C5.76711 4.79113 5.44179 7.18669 6.47691 9.07948C6.59521 9.2865 6.86138 9.37523 7.0684 9.25693C7.27543 9.13863 7.36415 8.87246 7.24585 8.66543C6.38818 7.12754 6.65435 5.14602 7.92607 3.90388C8.66545 3.16451 9.67099 2.72089 10.7357 2.72089C11.8004 2.72089 12.8059 3.13493 13.5453 3.90388C14.2847 4.67283 14.7283 5.6488 14.7283 6.71349C14.7283 7.77819 14.3142 8.78373 13.5453 9.5231C12.3919 10.6765 10.6765 11.0018 9.19779 10.3808C8.96119 10.292 8.72459 10.3808 8.6063 10.6174C8.51757 10.854 8.6063 11.0906 8.8429 11.2089C9.46397 11.475 10.085 11.5933 10.7357 11.5933C12.0074 11.5933 13.2495 11.0906 14.1959 10.1737C16 8.36968 16.0887 5.5305 14.4917 3.60813L16.5619 1.53789V2.54344C16.5619 2.78004 16.769 2.98706 17.0056 2.98706C17.2422 2.98706 17.4492 2.78004 17.4492 2.54344V0.443623C17.4788 0.384473 17.4788 0.325323 17.4492 0.266174Z" fill="#727272"/>
</svg>
