<svg width="16" height="16" viewBox="0 0 16 16" fill="none" xmlns="http://www.w3.org/2000/svg">
<path d="M6.711 16C8.51151 16 10.2302 15.3043 11.4987 14.0358C13.9949 11.5396 14.1176 7.61125 11.9079 4.95141L14.7724 2.08696V3.51918C14.7724 3.84655 15.0588 4.13299 15.3862 4.13299C15.7136 4.13299 16 3.84655 16 3.51918V0.57289C16 0.491048 16 0.409207 15.9591 0.368286C15.8772 0.204603 15.7954 0.0818416 15.6317 0.0409209C15.5499 1.5549e-07 15.468 0 15.4271 0H12.5217C12.1944 0 11.9079 0.286445 11.9079 0.613811C11.9079 0.941176 12.1944 1.22762 12.5217 1.22762H13.954L11.0895 4.09207C9.86189 3.06905 8.34783 2.53708 6.75192 2.53708C4.95141 2.53708 3.23274 3.23274 1.96419 4.50128C-0.654731 7.1202 -0.654731 11.4169 1.96419 14.0358C3.19182 15.3043 4.91048 16 6.711 16ZM2.78261 5.36061C3.80563 4.3376 5.19693 3.72379 6.67008 3.72379C8.14322 3.72379 9.53453 4.29668 10.5575 5.36061C12.7263 7.52941 12.7263 11.0077 10.5575 13.1765C9.53453 14.1995 8.14322 14.8133 6.67008 14.8133C5.19693 14.8133 3.80563 14.2404 2.78261 13.1765C0.654732 11.0077 0.654732 7.48849 2.78261 5.36061Z" fill="#059669"/>
</svg>
