<svg width="13" height="14" viewBox="0 0 13 14" fill="none" xmlns="http://www.w3.org/2000/svg">
<path fill-rule="evenodd" clip-rule="evenodd" d="M4.15937 1.51734C4.38301 0.766283 5.03888 0 6.01037 0C6.98211 0 7.63735 0.766315 7.86267 1.51596C7.8638 1.51736 7.86531 1.51912 7.86726 1.52115C7.87187 1.52596 7.87711 1.5304 7.88206 1.53383C7.88582 1.53644 7.8881 1.53757 7.88835 1.5377C8.45388 1.77054 9.11951 2.14247 9.64012 2.82343C10.1649 3.50986 10.5063 4.46275 10.5063 5.79219C10.5063 7.1177 10.6461 7.84456 10.8521 8.34355C11.0327 8.78106 11.2701 9.06865 11.608 9.47789C11.6573 9.53766 11.7088 9.60003 11.7626 9.66583L11.7627 9.66599C12.3854 10.4288 11.7974 11.5 10.8382 11.5H1.18568C0.228241 11.5 -0.369676 10.4342 0.258179 9.66583C0.311986 9.59998 0.363512 9.53757 0.412893 9.47776C0.75071 9.06859 0.98818 8.78096 1.16891 8.34342C1.37503 7.84438 1.51521 7.11752 1.516 5.79219M4.15937 1.51734C4.15851 1.51836 4.15743 1.51958 4.15611 1.52094C4.15185 1.52536 4.14682 1.52962 4.1418 1.53307C4.13715 1.53628 4.13434 1.53754 4.13435 1.53754L4.13405 1.53767C3.56828 1.77065 2.90242 2.14187 2.38176 2.82266C1.857 3.50883 1.51605 4.46159 1.516 5.7919M6.01037 1C5.62542 1 5.25777 1.32101 5.1155 1.81049L5.11514 1.81174C5.0234 2.12432 4.7694 2.35762 4.51482 2.46233C4.51479 2.46235 4.51475 2.46236 4.51471 2.46238C4.03707 2.65909 3.54877 2.94285 3.17609 3.43015C2.80753 3.91206 2.516 4.64046 2.516 5.79219V5.79248C2.5152 7.17478 2.37132 8.05175 2.09317 8.72518C1.85118 9.31104 1.51338 9.71816 1.17822 10.1221C1.12951 10.1808 1.08086 10.2394 1.03256 10.2985L1.03254 10.2986C1.01263 10.3229 1.00707 10.3429 1.0057 10.358C1.00416 10.375 1.00737 10.3953 1.01807 10.4163C1.03665 10.4527 1.08292 10.5 1.18568 10.5H10.8382C10.9372 10.5 10.9828 10.4543 11.0017 10.4169C11.022 10.3768 11.0195 10.337 10.9882 10.2985C10.9399 10.2395 10.8913 10.1809 10.8426 10.1222C10.5074 9.71822 10.1696 9.31103 9.92772 8.72505C9.64975 8.05153 9.50631 7.17449 9.50631 5.79219C9.50631 4.64193 9.21457 3.91327 8.8457 3.43079C8.47268 2.94289 7.98416 2.65858 7.50752 2.46235C7.2501 2.35647 6.99879 2.11991 6.90759 1.81254L6.90721 1.81127C6.76309 1.32077 6.39534 1 6.01037 1Z" fill="#059669"/>
<path fill-rule="evenodd" clip-rule="evenodd" d="M4.01025 10.5C4.2864 10.5 4.51025 10.7239 4.51025 11V11.5C4.51025 11.8978 4.66829 12.2794 4.94959 12.5607C5.2309 12.842 5.61243 13 6.01025 13C6.40808 13 6.78961 12.842 7.07091 12.5607C7.35222 12.2794 7.51025 11.8978 7.51025 11.5V11C7.51025 10.7239 7.73411 10.5 8.01025 10.5C8.2864 10.5 8.51025 10.7239 8.51025 11V11.5C8.51025 12.163 8.24686 12.7989 7.77802 13.2678C7.30918 13.7366 6.6733 14 6.01025 14C5.34721 14 4.71133 13.7366 4.24249 13.2678C3.77365 12.7989 3.51025 12.163 3.51025 11.5V11C3.51025 10.7239 3.73411 10.5 4.01025 10.5Z" fill="#059669"/>
</svg>
