<svg width="35" height="35" viewBox="0 0 35 35" fill="none" xmlns="http://www.w3.org/2000/svg">
<circle cx="17.5" cy="17.5" r="17.5" fill="#059669"/>
<g clip-path="url(#clip0_114_7271)">
<path d="M22.7719 18.0184C23.1121 18.141 23.4473 18.2296 23.754 18.3775C25.1155 19.0348 25.8637 20.5212 25.6176 22.0415C25.3838 23.484 24.1973 24.6474 22.7335 24.8487C22.4223 24.8912 22.1029 24.8881 21.7877 24.8881C18.3499 24.8908 14.9121 24.8908 11.4743 24.8881C10.8315 24.8881 10.3565 24.5773 10.1788 24.0246C10.1327 23.8738 10.1101 23.7168 10.1118 23.5591C10.1082 19.2619 10.1075 14.9646 10.1096 10.6674C10.1096 9.86764 10.6393 9.33433 11.4354 9.33388C14.7715 9.33207 18.1074 9.33207 21.443 9.33388C22.2382 9.33523 22.7719 9.87397 22.7719 10.6687C22.7719 13.0604 22.7719 15.4519 22.7719 17.8433V18.0184ZM24.5772 21.4539C24.5778 20.99 24.4408 20.5364 24.1835 20.1504C23.9262 19.7644 23.5603 19.4634 23.1319 19.2854C22.7035 19.1074 22.232 19.0604 21.777 19.1503C21.3219 19.2403 20.9037 19.4632 20.5753 19.7908C20.247 20.1185 20.0231 20.5361 19.9321 20.991C19.841 21.4458 19.8869 21.9175 20.064 22.3462C20.241 22.775 20.5412 23.1416 20.9266 23.3998C21.312 23.658 21.7653 23.796 22.2291 23.7966C22.5377 23.7988 22.8436 23.7398 23.1291 23.6229C23.4146 23.506 23.6741 23.3336 23.8925 23.1157C24.1109 22.8978 24.2839 22.6387 24.4015 22.3534C24.519 22.0682 24.5787 21.7624 24.5772 21.4539ZM16.4351 16.2067H16.6387C17.6505 16.2067 18.6624 16.2067 19.6743 16.2067C20.0023 16.2067 20.2312 15.9806 20.2343 15.6748C20.2375 15.369 20.0127 15.1365 19.6888 15.1211C19.6494 15.1189 19.6096 15.1211 19.5703 15.1211C17.4847 15.1211 15.3989 15.1211 13.313 15.1211C13.2228 15.1186 13.1326 15.1268 13.0444 15.1456C12.9524 15.1656 12.868 15.2109 12.8005 15.2765C12.733 15.342 12.6852 15.4252 12.6626 15.5165C12.5585 15.8783 12.8173 16.2031 13.214 16.2045C14.2878 16.2067 15.3617 16.2036 16.4356 16.204L16.4351 16.2067ZM16.446 13.3145C17.5144 13.3145 18.5828 13.3145 19.6512 13.3145C20.0104 13.3145 20.2511 13.0707 20.233 12.7346C20.2167 12.4369 19.9783 12.2298 19.6449 12.2298C18.0165 12.2298 16.3881 12.2298 14.7596 12.2298C14.2394 12.2298 13.7192 12.2298 13.1995 12.2298C12.9281 12.2298 12.7218 12.3894 12.659 12.6328C12.5653 12.9947 12.8263 13.3113 13.2239 13.3136C14.2981 13.3139 15.3723 13.3133 16.4464 13.3118L16.446 13.3145ZM15.5472 18.0197C14.7732 18.0197 13.9992 18.0197 13.2253 18.0197C12.8788 18.0197 12.6372 18.25 12.6372 18.5625C12.6404 18.8652 12.8842 19.1022 13.2153 19.1031C14.7637 19.1063 16.3116 19.109 17.8595 19.0963C18.0016 19.0963 18.1676 19.014 18.2784 18.9185C18.4449 18.7751 18.4747 18.5643 18.3865 18.3581C18.296 18.1423 18.1264 18.0202 17.8853 18.0202C17.1061 18.0175 16.3267 18.0173 15.5472 18.0197ZM15.1808 20.9111C14.5255 20.9111 13.8703 20.9111 13.2153 20.9111C13.0213 20.9111 12.8603 20.9767 12.7463 21.1345C12.6843 21.2128 12.6467 21.3076 12.6382 21.4071C12.6297 21.5066 12.6506 21.6064 12.6983 21.6941C12.806 21.904 12.9878 21.9981 13.2244 21.9976C14.5117 21.9976 15.7993 21.9976 17.0869 21.9976C17.4569 21.9976 17.7098 21.7714 17.7066 21.4503C17.7035 21.1291 17.4529 20.9111 17.0779 20.9111H15.1808Z" fill="white"/>
<path d="M21.8534 21.4278C22.2153 21.066 22.5433 20.7272 22.8848 20.4001C22.9765 20.3102 23.0888 20.2439 23.2118 20.207C23.3202 20.181 23.434 20.1911 23.5362 20.2355C23.6384 20.28 23.7233 20.3565 23.7781 20.4535C23.8373 20.5512 23.864 20.6652 23.8542 20.779C23.8445 20.8928 23.7988 21.0006 23.7239 21.0868C23.7022 21.1128 23.6791 21.1376 23.6547 21.161C23.2023 21.6133 22.75 22.0649 22.2976 22.5157C22.0149 22.7971 21.7182 22.7966 21.4382 22.5184C21.2217 22.3037 21.0059 22.0878 20.7909 21.8707C20.5466 21.6232 20.5344 21.2957 20.7583 21.0723C20.9822 20.8488 21.3102 20.8597 21.5567 21.1053C21.6571 21.2021 21.7471 21.3111 21.8534 21.4278Z" fill="white"/>
</g>
<defs>
<clipPath id="clip0_114_7271">
<rect width="15.5551" height="15.5556" fill="white" transform="translate(10.1094 9.33398)"/>
</clipPath>
</defs>
</svg>
