<svg width="350" height="248" viewBox="0 0 350 248" fill="none" xmlns="http://www.w3.org/2000/svg">
<path d="M347.673 219.601H187.987C186.701 219.601 185.66 218.608 185.66 217.384C185.66 216.161 186.703 215.17 187.987 215.17H347.673C348.958 215.17 350 216.161 350 217.384C350.001 218.608 348.958 219.601 347.673 219.601Z" fill="#DEDEDE"/>
<path d="M162.013 247.127H2.32679C1.04124 247.127 0 246.136 0 244.912C0 243.689 1.04318 242.698 2.32679 242.698H162.013C163.298 242.698 164.339 243.689 164.339 244.912C164.341 246.136 163.298 247.127 162.013 247.127Z" fill="#DEDEDE"/>
<path d="M228.178 198.318L304.575 198.706C306.599 198.717 308.606 198.328 310.48 197.563C312.354 196.798 314.059 195.671 315.498 194.247C316.936 192.823 318.08 191.13 318.864 189.264C319.648 187.397 320.057 185.395 320.067 183.371L320.907 18.0075C320.917 15.9832 320.529 13.9768 319.764 12.1026C318.999 10.2285 317.872 8.52344 316.448 7.08479C315.024 5.64615 313.331 4.50209 311.464 3.71799C309.598 2.93389 307.596 2.5251 305.571 2.51494L229.175 2.12714C225.087 2.10703 221.159 3.71126 218.254 6.58707C215.348 9.46288 213.704 13.3748 213.683 17.4626L212.843 182.826C212.823 186.914 214.427 190.842 217.303 193.747C220.179 196.653 224.091 198.297 228.178 198.318Z" fill="#FEF6E4"/>
<path d="M325.869 195.309C325.836 191.276 324.475 27.1091 324.417 19.9368C324.326 8.95817 315.273 0.0504241 304.197 0.0387902L227.636 7.92009e-06C216.56 -0.00968705 207.664 8.88255 207.746 19.8611L209.192 195.235C209.283 206.214 218.335 215.122 229.412 215.133L305.971 215.172C317.056 215.18 325.96 206.288 325.869 195.309ZM306.227 193.161L228.807 193.12C222.408 193.12 217.198 187.976 217.144 181.643L216.417 93.857L215.8 19.4423C215.791 17.934 216.082 16.439 216.656 15.044C217.23 13.6491 218.075 12.382 219.142 11.3162C220.209 10.2505 221.478 9.4074 222.874 8.83584C224.27 8.26428 225.765 7.97566 227.273 7.98672L304.693 8.02745C311.08 8.02745 316.302 13.1716 316.355 19.5044C316.682 58.8911 317.669 178.161 317.7 181.705C317.709 183.213 317.418 184.708 316.844 186.103C316.271 187.498 315.426 188.765 314.358 189.831C313.291 190.897 312.023 191.74 310.627 192.312C309.231 192.883 307.735 193.172 306.227 193.161Z" fill="#0B0A08"/>
<path d="M250.258 72.8286H248.788V82.1533H250.258V72.8286Z" fill="#352424"/>
<path d="M286.306 72.8286H284.836V82.1533H286.306V72.8286Z" fill="#352424"/>
<path d="M280.858 89.5196H275.099V85.3488C275.288 85.3125 275.475 85.2645 275.659 85.2053H273.708V89.5196H266.996C264.848 89.5222 262.788 90.3768 261.269 91.8959C259.751 93.415 258.897 95.4745 258.895 97.6226V98.3168H288.959V97.6226C288.957 95.4745 288.102 93.415 286.584 91.8959C285.065 90.3768 283.006 89.5222 280.858 89.5196ZM260.32 96.9285C260.495 95.2796 261.274 93.7538 262.506 92.6442C263.739 91.5347 265.337 90.9198 266.996 90.9176H280.858C282.516 90.9198 284.115 91.5347 285.347 92.6442C286.579 93.7538 287.358 95.2796 287.533 96.9285H260.32Z" fill="#35974D"/>
<path d="M266.664 96.1003H281.348L274.647 113.369L266.664 96.1003Z" fill="#F16D4A"/>
<path d="M292.65 174.591L284.06 131.157L286.732 111.38C286.732 111.38 282.402 107.188 285.264 96.1062H278.261L274.495 110.067L269.149 96.1062H262.514C262.514 96.1062 263.871 108.933 260.253 110.437L264.325 131.165L259.505 174.599L292.65 174.591Z" fill="#E9B81F"/>
<path d="M272.221 89.5196H266.464V85.3488C266.653 85.3125 266.841 85.2645 267.024 85.2053H265.074V89.5196H258.361C256.213 89.5221 254.153 90.3767 252.634 91.8958C251.115 93.4148 250.26 95.4743 250.258 97.6226V98.3168H280.324V97.6226C280.321 95.4743 279.467 93.4148 277.948 91.8958C276.429 90.3767 274.369 89.5221 272.221 89.5196ZM251.683 96.9285C251.859 95.2793 252.638 93.7532 253.87 92.6436C255.103 91.534 256.702 90.9193 258.361 90.9176H272.221C273.879 90.9193 275.478 91.5341 276.711 92.6437C277.943 93.7533 278.722 95.2794 278.897 96.9285H251.683Z" fill="#35974D"/>
<path d="M262.179 89.5196H256.422V85.3488C256.611 85.3125 256.799 85.2645 256.982 85.2053H255.032V89.5196H248.319C246.171 89.5221 244.111 90.3767 242.592 91.8958C241.073 93.4148 240.218 95.4743 240.216 97.6226V98.3168H270.282V97.6226C270.28 95.4742 269.425 93.4144 267.906 91.8952C266.387 90.376 264.327 89.5216 262.179 89.5196ZM241.643 96.9285C241.818 95.2796 242.597 93.7538 243.829 92.6442C245.062 91.5347 246.661 90.9198 248.319 90.9176H262.179C263.837 90.9193 265.437 91.534 266.669 92.6436C267.902 93.7532 268.681 95.2793 268.857 96.9285H241.643Z" fill="#287540"/>
<path d="M242.491 96.8022L237.062 136.038C237.062 136.038 244.191 140.304 252.876 137.542C257.369 136.115 259.579 138.824 263.269 139.2C266.959 139.576 271.327 138.231 271.855 138.231C272.382 138.231 268.353 96.812 268.353 96.812L242.491 96.8022Z" fill="#288340"/>
<path d="M247.763 138.45C247.963 138.442 248.165 138.431 248.368 138.415L249.816 96.8022H249.211L247.763 138.45Z" fill="#287540"/>
<path d="M253.234 98.8674C253.234 99.5402 252.631 100.085 251.891 100.085C251.15 100.085 250.547 99.5402 250.547 98.8674C250.547 98.1945 251.148 97.6497 251.891 97.6497C252.633 97.6497 253.234 98.2003 253.234 98.8674Z" fill="#E9B81F"/>
<path d="M253.234 108.399C253.234 109.072 252.631 109.617 251.891 109.617C251.15 109.617 250.547 109.072 250.547 108.399C250.547 107.727 251.148 107.182 251.891 107.182C252.633 107.182 253.234 107.727 253.234 108.399Z" fill="#E9B81F"/>
<path d="M268.244 81.5445C268.246 81.75 268.22 81.9549 268.166 82.1533H259.534C259.664 81.2124 259.47 80.2554 258.985 79.4387H267.052C267.418 79.654 267.721 79.962 267.93 80.3317C268.14 80.7013 268.248 81.1196 268.244 81.5445Z" fill="#352424"/>
<path d="M299.453 181.856V184.583H297.194V193.13H292.651V184.59H239.815V193.137H235.272V184.59H233.988V181.61C233.989 181.512 234.028 181.418 234.097 181.349C234.167 181.279 234.261 181.24 234.359 181.24H242.4V90.6286C242.404 87.7097 243.546 84.9074 245.583 82.8172C247.62 80.727 250.393 79.5136 253.31 79.4348C253.407 79.4348 253.504 79.4348 253.605 79.4348H257.01C257.377 79.6512 257.681 79.9608 257.89 80.3323C258.1 80.7037 258.207 81.1239 258.202 81.5502C258.204 81.7557 258.177 81.9605 258.125 82.1591H253.605C251.357 82.1657 249.203 83.0616 247.614 84.6511C246.025 86.2405 245.129 88.3944 245.122 90.6422V180.173H289.928V90.6286C289.925 88.3816 289.03 86.2276 287.441 84.6389C285.852 83.0502 283.698 82.1564 281.451 82.1533H278.221C278.351 81.2124 278.158 80.255 277.672 79.4387H281.461C282.932 79.4387 284.388 79.7284 285.747 80.2914C287.106 80.8543 288.341 81.6795 289.381 82.7197C290.421 83.7599 291.246 84.9947 291.808 86.3537C292.371 87.7128 292.661 89.1693 292.66 90.6402V181.249H298.84C299 181.252 299.154 181.317 299.268 181.43C299.382 181.543 299.448 181.696 299.453 181.856Z" fill="#352424"/>
<path d="M291.34 57.5281H242.399V74.0793H291.34V57.5281Z" fill="#35974D"/>
<path d="M276.878 81.5445C276.88 81.75 276.854 81.9549 276.801 82.1533H269.576C269.707 81.2124 269.513 80.2551 269.027 79.4387H275.686C276.052 79.6543 276.355 79.9624 276.564 80.332C276.773 80.7016 276.882 81.1197 276.878 81.5445Z" fill="#352424"/>
<path d="M278.221 82.1532C278.136 82.8541 277.85 83.5155 277.398 84.0574C276.945 84.5994 276.345 84.9987 275.671 85.2071H273.72V84.0204H274.412C274.963 84.0201 275.498 83.8363 275.932 83.4982C276.366 83.16 276.676 82.6868 276.811 82.1532C276.864 81.9547 276.891 81.7499 276.888 81.5443C276.894 81.118 276.786 80.6978 276.577 80.3263C276.367 79.9549 276.063 79.6453 275.696 79.4289C275.308 79.1939 274.863 79.0697 274.409 79.0697C273.956 79.0697 273.511 79.1939 273.123 79.4289H271.991L271.502 79.0023C271.864 78.5863 272.311 78.2526 272.812 78.0238C273.314 77.795 273.859 77.6764 274.41 77.676C275.946 77.676 277.049 78.4109 277.67 79.4211C278.16 80.2421 278.355 81.2063 278.221 82.1532Z" fill="#35974D"/>
<path d="M269.576 82.1532C269.492 82.8547 269.205 83.5167 268.752 84.0588C268.299 84.6009 267.698 84.9998 267.022 85.2071H265.083V84.0204H265.778C266.328 84.02 266.862 83.8362 267.296 83.498C267.73 83.1598 268.039 82.6866 268.174 82.1532C268.228 81.9547 268.254 81.7499 268.252 81.5443C268.257 81.1179 268.15 80.6976 267.94 80.326C267.731 79.9545 267.427 79.645 267.059 79.4289C266.672 79.1939 266.227 79.0697 265.774 79.0697C265.32 79.0697 264.876 79.1939 264.488 79.4289H263.348L262.861 79.0023C263.224 78.5872 263.671 78.2542 264.173 78.0256C264.674 77.7969 265.219 77.6777 265.77 77.676C267.306 77.676 268.407 78.4109 269.027 79.4211C269.517 80.2424 269.711 81.2066 269.576 82.1532Z" fill="#35974D"/>
<path d="M259.534 82.1534C259.449 82.8543 259.164 83.5157 258.711 84.0576C258.259 84.5996 257.659 84.9989 256.984 85.2073H255.034V84.0206H255.728C256.278 84.0199 256.813 83.836 257.247 83.4979C257.681 83.1598 257.991 82.6868 258.126 82.1534C258.179 81.9547 258.205 81.75 258.204 81.5445C258.209 81.1181 258.101 80.698 257.892 80.3265C257.683 79.9551 257.379 79.6455 257.011 79.4291C256.623 79.1941 256.178 79.0699 255.725 79.0699C255.271 79.0699 254.826 79.1941 254.438 79.4291H253.607C253.51 79.4291 253.413 79.4291 253.312 79.4291L252.817 78.9967C253.179 78.5806 253.626 78.247 254.128 78.0182C254.63 77.7894 255.174 77.6708 255.726 77.6704C257.262 77.6704 258.365 78.4053 258.985 79.4155C259.475 80.2387 259.669 81.2049 259.534 82.1534Z" fill="#287540"/>
<path d="M250.44 68.5822C252.079 69.5886 254.706 69.4838 254.706 67.5642C254.706 65.1017 250.332 66.013 250.332 62.9107C250.332 60.357 253.686 59.6783 255.596 60.7603L255.251 61.7783C253.766 60.9697 251.594 61.1966 251.594 62.7672C251.594 65.0939 255.982 64.171 255.982 67.4712C255.982 68.9622 254.878 70.2536 252.598 70.2536C251.666 70.2536 250.648 69.9822 250.132 69.637L250.44 68.5822Z" fill="white"/>
<path d="M259.245 67.0679L258.241 70.1083H256.949L260.234 60.4424H261.739L265.035 70.1083H263.701L262.669 67.0679H259.245ZM262.415 66.0984C261.465 63.1899 261.492 63.6068 260.965 61.5534H260.938C260.43 63.5855 260.216 63.9054 259.503 66.0984H262.415Z" fill="white"/>
<path d="M266.458 60.4365H267.705V69.0553H271.835V70.1024H266.458V60.4365Z" fill="white"/>
<path d="M278.23 65.571H274.474V69.0612H278.661V70.1082H273.231V60.4365H278.451V61.4836H274.48V64.5472H278.236L278.23 65.571Z" fill="white"/>
<path d="M250.142 44.2363C250.141 44.1328 250.116 44.0309 250.07 43.9384C250.023 43.8459 249.957 43.7652 249.874 43.7026C249.792 43.6399 249.696 43.5968 249.595 43.5768C249.493 43.5567 249.389 43.5601 249.289 43.5867C248.656 43.7806 248.019 43.9745 247.383 44.1684C245.977 44.5969 245.936 44.657 245.812 44.5562C245.513 44.3293 245.822 43.7399 245.955 43.5324C246.252 43.0748 246.667 42.687 246.867 42.1751C247.255 41.1688 246.655 40.2128 245.535 40.43C244.509 40.6239 243.489 40.876 242.473 41.1339C242.977 40.0752 243.514 39.0301 244.003 37.9656C244.045 37.887 244.064 37.7978 244.057 37.7089C244.05 37.6199 244.017 37.5349 243.963 37.464C243.908 37.3932 243.835 37.3395 243.751 37.3095C243.667 37.2794 243.576 37.2743 243.489 37.2946L239.029 38.0392C238.802 38.078 237.761 38.3805 237.633 38.1536C237.505 37.9268 237.92 37.2365 237.99 37.0678C238.378 36.1332 238.494 35.7978 239.669 32.7283C239.809 32.3638 239.374 31.9198 239.004 32.0652C235.374 33.5039 235.19 33.0463 234.564 33.7269C234.533 33.7585 234.512 33.7974 234.501 33.8398C234.489 33.8823 234.489 33.9268 234.501 33.9693C234.512 34.0117 234.533 34.0506 234.564 34.0822C234.594 34.1137 234.632 34.137 234.674 34.1496C235.12 34.3435 235.241 34.3435 236.916 33.8859C237.35 33.7657 237.779 33.6338 238.205 33.4981C236.71 37.1977 236.245 38.0955 236.972 38.8303C237.478 39.3403 237.684 39.2065 242.735 38.3495C242.153 39.4314 241.63 40.5425 241.087 41.6458C241.039 41.7349 241.017 41.836 241.025 41.937C241.033 42.0379 241.07 42.1344 241.132 42.215C241.193 42.2956 241.276 42.3568 241.371 42.3913C241.466 42.4258 241.57 42.4322 241.668 42.4097C245.337 41.702 245.403 41.5333 245.74 41.5585C245.74 41.5585 245.845 41.3646 245.74 41.6632C245.568 42.1615 244.594 42.9139 244.464 43.9183C244.35 44.8024 244.852 45.7952 245.822 45.834C246.392 45.8572 246.634 45.7041 248.697 45.1379C248.646 46.2213 248.723 47.307 248.928 48.3721C248.984 48.8065 249.173 49.213 249.469 49.5355C249.539 49.6037 249.625 49.6526 249.72 49.6775C249.814 49.7023 249.913 49.7022 250.008 49.6772C250.102 49.6522 250.188 49.6031 250.258 49.5348C250.328 49.4664 250.379 49.3812 250.405 49.2873C250.648 48.1317 249.894 47.4181 250.142 44.2363Z" fill="#E9B81F"/>
<path d="M268.742 37.7891C267.7 37.4401 266.691 36.9989 265.727 36.4706C265.533 36.3678 265.163 36.2166 265.146 35.9587C265.097 35.3402 266.261 35.0532 267.579 33.4516C268.161 32.7574 269.396 31.371 268.525 30.4868C268.079 30.035 267.342 29.7985 266.78 29.5173C266.357 29.3021 265.943 29.0675 265.522 28.8445C267.849 26.3413 267.934 26.5953 267.986 25.7828C267.986 25.6724 267.942 25.5667 267.864 25.4886C267.785 25.4106 267.68 25.3665 267.569 25.366C266.774 25.4377 266.988 25.4493 264.021 28.5769C263.952 28.647 263.9 28.7319 263.869 28.825C263.838 28.9181 263.828 29.0171 263.84 29.1145C263.853 29.212 263.887 29.3053 263.941 29.3875C263.995 29.4697 264.067 29.5386 264.151 29.5891C264.733 29.8799 267.393 31.0666 267.697 31.2644C267.66 31.2838 267.616 31.4369 267.598 31.4583C266.928 32.6604 265.96 33.4613 264.934 34.3338C264.095 35.0512 263.453 36.2728 264.465 37.1647C265.016 37.6437 266.346 38.2486 267.393 38.6694C265.91 40.1605 264.415 41.6399 262.933 43.1291C262.644 43.4238 262.646 44.0579 263.077 44.2459C264.277 44.7637 265.454 45.3221 266.629 45.8902C265.746 46.7618 264.733 47.4917 263.627 48.0541C262.811 48.471 263.302 49.7992 265.289 48.599C266.424 47.9635 267.445 47.1438 268.31 46.1733C268.599 45.8495 268.593 45.2775 268.165 45.0564C267.019 44.4592 265.838 43.9144 264.659 43.3947C266.117 41.892 267.567 40.3738 269.024 38.873C269.1 38.7914 269.154 38.6918 269.182 38.5836C269.209 38.4753 269.209 38.3619 269.181 38.2538C269.153 38.1457 269.098 38.0464 269.021 37.9651C268.945 37.8839 268.849 37.8233 268.742 37.7891Z" fill="#E9B81F"/>
<path d="M300.696 42.3747C300.844 42.4543 301.017 42.4747 301.18 42.4319C301.343 42.3891 301.484 42.2863 301.574 42.144C302.644 40.7091 303.573 39.22 304.106 37.4904C304.384 36.5926 303.038 36.2553 302.718 37.1026C302.239 38.4634 301.606 39.7646 300.83 40.9806C299.919 40.4648 299.067 39.851 298.29 39.1502C297.993 38.8826 297.421 38.8729 297.227 39.2879C296.742 40.3233 295.022 44.3002 295.046 44.3544C295.016 44.3304 294.982 44.3138 294.945 44.306C294.507 44.1683 293.299 43.1426 292.663 42.8537C291.949 42.5221 291.218 43.3384 290.875 43.8871C290.179 44.9982 290.349 46.7278 289.337 47.6333C288.368 48.5039 287.309 46.3884 285.56 46.5823C284.203 46.7297 283.927 48.0618 283.346 50.09C283.204 50.5883 283.07 51.0769 283.39 51.5345C283.428 51.5966 283.485 51.645 283.552 51.6725C283.62 51.7001 283.694 51.7054 283.764 51.6877C284.54 51.3969 284.655 50.6096 285.23 48.7792C285.304 48.5466 285.362 48.118 285.618 48.0036C286.452 47.6391 287.4 49.3183 288.973 49.1942C290.196 49.0972 290.958 48.0114 291.342 46.9508C291.643 46.1189 291.683 44.9206 292.356 44.2711C292.996 44.6589 293.632 45.0777 294.295 45.4189C295.02 45.7893 295.713 45.6768 296.147 44.9613C296.628 44.1722 296.948 43.255 297.324 42.4116C297.582 41.8454 297.835 41.2779 298.082 40.7091C298.898 41.3471 299.773 41.9049 300.696 42.3747Z" fill="#E9B81F"/>
<path d="M231.58 56.3453C226.926 58.3657 228.586 61.47 230.286 61.0764C231.016 60.9077 231.45 60.1632 231.074 59.4806C230.901 59.1684 230.333 59.2053 230.267 59.5873C230.211 59.9033 229.879 59.8083 229.899 59.4574C229.939 58.9862 230.467 58.6604 230.816 58.4161C231.63 57.8461 232.679 57.0957 233.724 57.468C235.275 58.0206 236.065 60.3066 234.081 62.075C231.219 64.6248 226.11 61.7958 226.982 57.976C227.456 55.8974 229.247 54.3248 231.33 53.9758C231.737 53.906 231.595 53.336 231.238 53.303C228.541 53.0509 226.22 55.4747 225.864 58.0361C225.497 60.6634 227.265 62.9786 229.695 63.8123C232.245 64.6868 235.262 63.6689 236.288 61.057C237.404 58.1912 234.829 54.9317 231.58 56.3453Z" fill="#E9B81F"/>
<path d="M304.089 57.7607C303.401 58.1252 302.551 59.1762 303.119 59.9576C303.387 60.3202 303.881 60.4501 304.232 60.1011C304.583 59.752 304.554 59.2634 305.095 59.1432C305.559 59.0385 305.941 59.4418 306.104 59.8393C306.602 61.0531 305.502 62.5229 304.552 63.1724C303.036 64.204 300.868 63.3993 300.674 61.3478C300.616 60.706 300.839 60.1088 300.992 59.4961C301.078 59.1587 300.676 58.767 300.351 59.0036C299.102 59.913 299.117 61.8384 299.784 63.1026C300.484 64.4289 302.055 65.2006 303.532 65.0668C305.183 64.9175 306.619 63.6417 307.341 62.1971C308.857 59.1897 306.323 56.5702 304.089 57.7607Z" fill="#E9B81F"/>
<path d="M125.024 116.101C124.914 116.102 124.805 116.086 124.7 116.055C124.558 116.012 124.425 115.942 124.31 115.848C124.195 115.755 124.099 115.639 124.028 115.508C123.958 115.378 123.914 115.234 123.898 115.086C123.883 114.939 123.897 114.789 123.94 114.647L129.04 97.5586C129.13 97.2762 129.327 97.0404 129.59 96.902C129.852 96.7635 130.158 96.7335 130.442 96.8183C130.726 96.9031 130.966 97.096 131.109 97.3555C131.253 97.6151 131.289 97.9205 131.209 98.2063L126.11 115.293C126.04 115.526 125.897 115.731 125.701 115.877C125.505 116.023 125.268 116.101 125.024 116.101Z" fill="#287540"/>
<path d="M152.354 111.089H118.278V156.027H152.354V111.089Z" fill="white"/>
<path d="M150.01 83.3924L150.631 83.9469C150.777 84.0849 150.971 84.1596 151.172 84.1549C151.373 84.1502 151.564 84.0664 151.703 83.9217L162.711 71.8205C162.776 71.7457 162.825 71.6587 162.856 71.5647C162.887 71.4706 162.899 71.3714 162.891 71.2727C162.883 71.174 162.856 71.0778 162.811 70.9898C162.765 70.9017 162.703 70.8236 162.627 70.7598L162.007 70.2053C161.861 70.0673 161.666 69.9926 161.465 69.9973C161.265 70.002 161.074 70.0858 160.935 70.2305L149.929 82.3317C149.864 82.4065 149.815 82.4934 149.784 82.5873C149.753 82.6813 149.741 82.7804 149.748 82.879C149.756 82.9777 149.783 83.0738 149.828 83.1619C149.873 83.2501 149.935 83.3284 150.01 83.3924Z" fill="#13375B"/>
<path d="M112.695 73.5615C114.164 72.3651 125.542 77.3581 125.399 79.0954C125.255 80.8327 133.337 97.6826 133.337 97.6826L147.298 86.543C147.422 86.1397 148.746 81.808 148.81 81.0344C148.878 80.22 151.238 78.7987 152.335 79.0081C153.433 79.2175 151.397 80.5923 151.263 80.8444C150.901 81.5327 152.306 81.7906 152.306 81.7906C152.306 81.7906 156.341 79.5743 156.427 78.2713C156.512 76.9683 157.346 74.2382 158.218 74.8102C158.668 75.1049 158.664 77.042 158.523 77.9611C158.783 76.9179 159.151 75.739 159.508 75.6226C160.161 75.4094 160.477 76.2393 160.367 76.6484C160.256 77.0575 159.203 81.4959 158.874 81.9845C158.544 82.4731 152.043 87.722 151.104 88.8621C151.104 88.8621 133.035 109.518 131.749 110.057C130.621 110.532 126.595 103.414 122.793 98.6889C118.991 93.9636 108.097 77.2999 112.695 73.5615Z" fill="#F7A491"/>
<path d="M76.2355 225.441C76.2355 225.441 73.7536 227.863 73.6974 228.753C73.6411 229.643 73.4783 239.167 74.4904 240.055C75.5026 240.943 78.4809 241.575 77.525 242.576C76.8017 243.33 71.2349 243.169 67.5469 242.964C66.4707 242.905 65.1193 234.314 64.6927 233.052C64.0741 231.217 62.5598 227.087 63.1299 225.809C63.4052 225.185 64.7179 223.905 66.5677 222.707C68.5067 221.451 70.3739 218.653 70.3739 218.653L76.2355 225.441Z" fill="#F48C7F"/>
<path d="M101.966 231.082C101.966 231.082 99.744 237.358 99.7421 237.376C99.5753 238.37 98.9258 240.827 98.9258 241.731C98.9258 245.126 114.244 238.847 110.81 237.343C110.498 237.205 109.524 236.117 109.422 234.961C109.264 233.181 110.711 230.948 110.711 230.948L101.966 231.082Z" fill="#F7A491"/>
<path d="M125.984 114.201C125.984 114.201 127.099 125.447 127.099 125.62C127.099 143.823 130.707 179.378 130.021 182.801C128.348 191.138 110.33 233.726 110.33 233.726L100.593 232.563L113.282 181.583L108.612 161.063L102.004 120.501L125.984 114.201Z" fill="#0B0A08"/>
<path d="M93.3026 124.154L91.4547 134.818L86.454 178.711L67.417 221.606C67.417 221.606 70.0947 227.849 74.0464 228.726L104.347 184.681L123.169 128.325L122.508 115.804L93.3026 124.154Z" fill="#352424"/>
<path d="M129.866 87.41L116.363 88.7866C116.363 88.7866 115.744 77.7169 115.744 72.437C115.744 66.0383 116.289 57.7802 117.063 57.9566C119.234 58.455 122.158 59.6552 123.9 62.046C129.924 70.3235 129.866 87.41 129.866 87.41Z" fill="white"/>
<path d="M79.9334 140.577C77.8723 137.246 77.4127 137.719 77.1587 137.281C76.8582 136.767 77.1917 128.836 77.1917 128.836C77.1917 128.836 78.0177 105.452 78.1049 104.192L88.6531 82.603L79.5398 74.1277C79.5398 74.1277 68.6814 97.9308 68.3305 99.2784C67.9795 100.626 70.4905 132.406 70.6224 135.21C70.6224 135.21 69.5637 138.601 68.9703 140.753C68.377 142.906 68.7571 145.225 68.6814 145.859C68.6142 147.496 68.7444 149.135 69.0692 150.741C69.523 153.039 70.126 150.66 70.126 150.66C70.126 150.66 70.0368 146.258 70.38 146.314C70.6437 146.359 70.5526 148.763 71.0296 151.311C71.1517 151.967 71.2758 152.612 71.3921 153.204C71.7024 154.755 72.7281 155.021 72.6602 153.345C72.6362 152.583 72.5584 151.824 72.4276 151.073C72.2744 150.322 72.3694 149.584 72.3345 148.94C72.2647 147.648 72.1988 146.706 72.2531 146.733C72.3074 146.76 72.4857 146.504 72.6409 147.195C72.8231 148.027 72.8251 149.874 73.1857 151.073C73.3893 151.755 73.7325 153.206 73.7325 153.206C73.7325 153.206 74.6516 155.304 74.7893 155.29C75.5377 155.226 75.307 153.619 74.9095 152.727C74.9424 152.033 74.5411 150.516 74.5411 150.516C74.5411 150.516 74.4034 147.272 74.8552 147.251C75.0491 147.251 75.3651 149.223 75.9779 151.129C76.546 152.89 77.403 154.577 77.7617 154.518C78.3706 154.421 77.944 152.399 77.944 152.399C77.944 152.399 77.5698 150.999 77.4825 150.526C77.3778 149.969 77.1897 148.283 77.1897 148.283C77.1897 148.283 76.8019 142.378 77.2363 142.396C77.6706 142.413 78.7545 142.9 78.9038 143.259C79.0531 143.617 78.9872 144.422 79.1345 144.775C79.2819 145.128 79.7802 145.477 80.2262 145.329C80.6722 145.182 80.614 143.177 80.614 143.177C80.614 143.177 80.5287 141.539 79.9334 140.577Z" fill="#F8A492"/>
<path d="M123.233 71.3064C123.516 73.2609 128.706 126.36 128.706 126.36C104.12 138.235 90.5547 128.476 90.5547 128.476C90.5547 128.476 91.3594 91.1888 90.3938 86.1125C89.7559 82.7542 88.9609 60.4422 91.1364 59.8179C93.9305 59.0151 97.1318 58.1639 100.622 57.8013C103.6 57.493 115.164 57.3127 117.241 58.0088C117.241 58.0088 122.044 63.0928 123.233 71.3064Z" fill="white"/>
<path d="M73.5869 82.3452L85.2907 90.2C85.2907 90.2 91.8833 80.3887 95.4219 76.8966C99.8564 72.5203 93.8067 59.118 90.9506 59.8761C84.5558 61.5727 73.5869 82.3452 73.5869 82.3452Z" fill="white"/>
<path d="M66.6879 222.653C66.6879 222.653 72.4098 238.766 74.6494 239.543C75.2447 239.749 78.0989 240.272 78.6379 241.535C78.7988 241.923 78.6379 243.185 78.6379 243.185H66.7092C66.7092 243.185 65.2007 236.086 64.6054 232.968C64.6054 232.968 61.4468 225.346 61.7977 224.654C62.1487 223.962 66.6879 222.653 66.6879 222.653Z" fill="#352424"/>
<path d="M98.0449 242.851L99.79 237.31C99.79 237.31 103.474 238.861 105.316 238.609C107.158 238.357 110.745 237.31 110.745 237.31C118.096 239.729 124.124 240.904 123.023 242.851H98.0449Z" fill="#352424"/>
<path d="M103.889 46.9023L102.08 57.9545C102.08 57.9545 108.702 72.0258 112.659 70.8411C115.979 69.8464 113.935 57.7606 113.935 57.7606C113.935 57.7606 112.126 51.2708 112.669 48.023C113.212 44.7752 103.889 46.9023 103.889 46.9023Z" fill="#F7A491"/>
<path d="M112.669 48.0268C113.212 44.779 103.89 46.8983 103.89 46.8983L103.738 47.8504C103.976 48.4399 104.319 48.9813 104.75 49.4481C106.833 51.5985 110.087 52.8898 112.894 52.9868C112.619 51.2359 112.446 49.3589 112.669 48.0268Z" fill="#F47458"/>
<path d="M102.354 30.6691C102.09 30.5779 100.242 43.734 103.75 47.3444C107.258 50.9548 114.093 52.1512 116.547 49.2989C119.262 46.1461 119.122 32.005 113.67 28.2802C108.217 24.5554 102.354 30.6691 102.354 30.6691Z" fill="#F7A491"/>
<path d="M103.645 25.6005C101.731 25.8177 99.1291 26.8318 96.4436 31.0976C93.1473 36.3329 95.5788 42.1498 99.4257 45.006C103.273 47.8621 103.201 51.1216 103.201 51.1216L103.825 49.4463C104.282 48.1614 104.446 46.7909 104.306 45.4345C104.234 44.6015 104.024 43.7864 103.684 43.0224C102.759 41.1164 105.671 39.8521 106.488 38.268C107.116 37.0483 107.147 34.2581 108.138 32.2416L109.32 30.702C109.32 30.702 112.049 28.6661 114.719 29.24C117.389 29.814 114.108 17.323 103.645 25.6005Z" fill="#F16D4A"/>
<path d="M106.307 40.6083C106.336 42.2138 105.574 43.5285 104.609 43.544C103.643 43.5595 102.837 42.272 102.807 40.6665C102.778 39.061 103.54 37.7464 104.508 37.7309C105.475 37.7153 106.28 39.0048 106.307 40.6083Z" fill="#F7A491"/>
<path d="M132.309 117.394C132.215 117.413 132.118 117.412 132.024 117.393C131.93 117.373 131.841 117.335 131.762 117.281C131.683 117.227 131.615 117.158 131.563 117.077C131.511 116.997 131.475 116.907 131.458 116.813C130.961 113.888 130.618 110.938 130.432 107.977C130.044 101.082 130.977 97.1824 133.275 96.0539C135.572 94.9254 139.241 96.5348 144.505 100.971C146.754 102.891 148.899 104.929 150.931 107.077C150.997 107.147 151.049 107.229 151.083 107.32C151.117 107.41 151.133 107.506 151.129 107.602C151.125 107.698 151.103 107.793 151.062 107.88C151.021 107.968 150.964 108.046 150.892 108.111C150.751 108.239 150.565 108.307 150.375 108.299C150.184 108.291 150.005 108.209 149.874 108.07C145.085 102.937 136.928 95.8774 133.916 97.3569C130.905 98.8363 131.655 109.625 132.887 116.553C132.92 116.741 132.878 116.935 132.769 117.093C132.66 117.25 132.493 117.358 132.305 117.393L132.309 117.394Z" fill="#EFE7D3"/>
<path d="M137.822 112.689C137.209 112.689 137.843 112.431 137.8 111.816C136.637 95.3345 132.953 97.035 132.782 96.5697C132.511 95.7941 133.364 95.2589 133.959 95.4683C134.477 95.6622 138.613 97.6749 138.954 111.529C138.959 111.678 138.933 111.827 138.88 111.966C138.827 112.105 138.747 112.233 138.644 112.341C138.541 112.449 138.418 112.536 138.282 112.596C138.145 112.656 137.998 112.689 137.849 112.692L137.822 112.689Z" fill="#287540"/>
<path d="M152.355 104.62L127.729 116.373L139.418 164.13L180.976 143.107L152.355 104.62Z" fill="#FEF6E4"/>
<path d="M131.762 110.061C131.892 109.978 132.015 109.886 132.132 109.786C131.694 104.584 131.774 99.5441 133.406 97.8397C133.368 97.7582 133.019 96.9982 132.631 96.2129C130.738 97.6749 129.839 101.564 130.192 107.874C130.215 108.308 130.341 108.65 130.442 109.183C130.996 109.784 131.495 110.174 131.762 110.061Z" fill="#F7A491"/>
<path d="M184.319 136.748L152.354 104.62L180.976 143.107L181.945 138.904L184.319 136.748Z" fill="#EFE7D3"/>
<path d="M82.1356 63.7405C82.3489 58.7418 81.5927 53.8051 79.297 49.1515C77.3231 45.1475 72.4348 42.875 67.979 42.8692C53.8244 42.8517 52.0308 61.0666 43.0223 68.0935C40.3212 70.2012 37.308 71.925 34.735 74.1781C34.6946 75.6673 34.9252 77.1515 35.4156 78.5583C38.1961 85.9265 45.2851 90.0972 52.0909 93.8511C58.2511 97.159 64.8068 98.5706 71.4809 98.8751C73.9686 93.8492 75.7234 88.2785 77.6333 83.0858C79.9329 76.8617 81.8525 70.3835 82.1356 63.7405Z" fill="#0B0A08"/>
<path d="M105.939 142.369C105.939 142.369 104.878 141.564 104.547 141.269C104.159 140.924 103.079 139.801 103.079 139.801C103.079 139.801 99.5071 135.716 99.8407 135.478C100.174 135.239 101.198 135.604 101.502 135.78C101.807 135.956 102.197 136.131 102.509 136.305C102.674 136.396 102.868 136.418 103.049 136.367C103.231 136.316 103.385 136.195 103.478 136.032C103.734 135.666 102.648 134.7 102.206 134.44C100.822 133.632 96.6704 132.199 96.238 132.028C95.7261 131.834 90.8786 123.611 88.9881 120.927C86.0273 116.442 81.5831 110.561 81.2729 110.084L76.4777 89.1821L67.2578 88.4375C67.2578 88.4375 74.0443 112.985 74.5213 114.172C74.752 114.738 82.444 124.602 82.4479 124.6C86.5527 129.22 90.5277 133.277 91.2024 134.078C91.2024 134.078 92.2068 137.009 92.9475 138.925C93.6882 140.841 95.1735 142.303 95.4682 142.803C96.2061 144.128 97.1678 145.316 98.3108 146.313C99.9318 147.726 99.0651 145.64 99.0651 145.64C99.0651 145.64 96.5444 142.479 96.8391 142.32C97.0621 142.198 98.3321 144.007 100.108 145.589C100.564 145.997 101.018 146.396 101.435 146.753C102.534 147.709 103.455 147.303 102.47 146.119C102.029 145.577 101.548 145.068 101.033 144.597C100.498 144.137 100.161 143.544 99.7728 143.088C98.9972 142.186 98.4271 141.537 98.4834 141.527C98.5396 141.517 98.5318 141.223 99.0302 141.64C99.6312 142.142 100.661 143.489 101.601 144.16C102.134 144.548 103.199 145.399 103.199 145.399C103.199 145.399 105.082 146.605 105.181 146.516C105.71 146.033 104.618 144.787 103.823 144.366C103.463 143.84 102.315 142.968 102.315 142.968C102.315 142.968 100.409 140.68 100.736 140.403C101.008 140.174 106.664 144.759 107.16 144.24C107.575 143.825 105.939 142.369 105.939 142.369Z" fill="#F48C7F"/>
<path d="M37.9037 224.664C37.9037 224.664 36.9071 231.388 35.1892 233.558C34.6075 234.285 33.5623 235.206 32.8721 236.522C31.7979 238.572 32.3912 241.622 33.1842 243.309C33.5914 244.172 33.1552 244.17 34.082 244.447C35.405 244.834 36.8229 244.731 38.0768 244.159C39.3306 243.587 40.3366 242.582 40.9111 241.329C41.7209 239.523 42.1757 237.578 42.251 235.599C42.5438 229.496 44.4963 226.391 44.4963 226.391L37.9037 224.664Z" fill="#F7A491"/>
<path d="M67.9076 227.739C67.9076 227.739 68.5242 235.32 68.024 237.785C67.7564 239.103 66.2673 241.82 66.9498 243.061C67.6323 244.302 68.4137 244.612 68.4137 244.612L86.1264 244.889C87.0959 244.905 86.4541 244.307 85.6766 243.745C84.4027 242.834 83.375 242.233 79.307 240.319C79.0414 240.195 78.0757 239.598 77.7286 239.39C76.8445 238.867 75.9583 238.033 75.1944 237.215C73.9224 235.838 73.8119 229.16 73.8119 229.16L67.9076 227.739Z" fill="#F7A491"/>
<path d="M81.7519 126.96C81.7519 126.96 83.9818 139.27 82.5275 147.34C81.0733 155.41 74.0328 230.215 74.0328 230.215L66.2225 230.643C66.2225 230.643 64.586 199.396 64.8788 195.051C65.1716 190.706 67.4887 183.433 67.4887 183.433L66.7131 158.205L76.5651 125.061L81.7519 126.96Z" fill="#0B0A08"/>
<path d="M58.7947 124.371C58.7947 124.371 52.6442 133.372 51.1803 140.821C49.7164 148.271 52.2545 171.165 49.4352 180.928C47.9112 186.211 42.131 194.373 41.2527 201.202C40.3743 208.031 36.9268 225.916 36.9268 225.916L44.7351 227.421L62.8802 182.75L77.1124 142.373L80.7577 121.577L58.7947 124.371Z" fill="#352424"/>
<path d="M63.7677 73.1564C63.7677 73.1564 55.6239 72.6522 52.4032 76.0648C49.1826 79.4775 59.5484 106.488 60.134 110.833C60.7196 115.178 57.1479 126.733 57.1479 126.733C57.1479 126.733 76.2781 130.477 81.746 126.958C81.746 126.958 82.7504 95.4082 82.1648 92.3039C81.5793 89.1996 76.2781 76.8792 75.1069 75.6286C73.9358 74.3779 63.7677 73.1564 63.7677 73.1564Z" fill="#FEF6E4"/>
<path d="M66.4827 62.577C66.4827 62.577 66.44 62.8097 66.3644 63.2053C66.0018 65.1094 64.6038 71.4247 63.6595 73.1601C62.5174 75.26 67.5666 81.9495 72.4257 81.1332C73.8741 80.8909 71.2041 74.9847 71.3321 74.3603C71.5784 73.162 71.9138 71.5294 72.2512 69.8541C72.4451 68.9098 72.639 67.9519 72.8212 67.0503C73.3409 64.4928 73.7655 62.3967 73.7655 62.3967L66.4827 62.577Z" fill="#F7A491"/>
<path d="M66.3656 63.2053C66.4412 62.8175 66.4839 62.5771 66.4839 62.5771L73.7667 62.3987C73.7667 62.3987 73.3421 64.4928 72.8224 67.0523C72.6402 67.9481 72.4482 68.9001 72.2562 69.8405C71.1316 69.6796 69.9566 69.1483 68.7796 68.1459C67.5813 67.1306 66.6723 65.8169 66.1445 64.3377C66.2357 63.8878 66.3093 63.502 66.3656 63.2053Z" fill="#F47458"/>
<path d="M71.3865 46.4816C71.3865 46.4816 67.9544 46.0938 65.8022 48.8083C63.6499 51.5229 61.3308 59.882 66.6766 64.4308C72.0225 68.9797 77.3023 63.8317 78.0857 58.3715C78.869 52.9113 79.1735 46.2838 71.3865 46.4816Z" fill="#F7A491"/>
<path d="M79.6679 58.2823C79.03 59.4883 77.9596 60.1573 77.2771 59.7753C76.5946 59.3933 76.5578 58.1058 77.1957 56.8998C77.8336 55.6937 78.9039 55.0248 79.5865 55.4068C80.269 55.7887 80.3039 57.0762 79.6679 58.2823Z" fill="#F7A491"/>
<path d="M71.7701 45.5856C71.7701 45.5856 67.1844 53.5355 63.9036 53.9117C60.6228 54.2879 60.1924 58.5071 60.1924 58.5071C60.1924 58.5071 61.3655 48.7637 64.6133 46.8848C67.8611 45.0059 71.7701 45.5856 71.7701 45.5856Z" fill="#0B0A08"/>
<path d="M41.4442 239.978C37.19 240.732 34.3591 238.312 32.8855 236.499C31.8035 238.552 31.2761 241.616 32.0711 243.301C32.773 244.786 34.8206 244.744 36.4319 244.802C38.1363 244.864 39.4567 243.943 40.3099 242.5C40.7718 241.7 41.1518 240.854 41.4442 239.978Z" fill="#F16D4A"/>
<path d="M77.7289 239.39C73.0462 240.554 69.5851 239.764 67.6461 239.002C67.1459 240.379 66.4827 242.105 66.8356 243.102C67.2661 244.321 67.8769 244.596 68.4178 244.61C72.6972 244.719 84.0907 244.868 87.354 244.909C87.4545 244.913 87.5539 244.888 87.6402 244.836C87.7265 244.784 87.7958 244.709 87.8397 244.618C87.8836 244.528 87.9001 244.427 87.8872 244.327C87.8742 244.227 87.8325 244.134 87.7671 244.057C86.9546 243.129 78.076 239.598 77.7289 239.39Z" fill="#F16D4A"/>
<path d="M64.762 55.9109C65.0296 57.3244 64.4925 58.6255 63.5637 58.8058C62.635 58.9861 61.6674 57.9953 61.3998 56.5818C61.1322 55.1683 61.6693 53.8672 62.5981 53.6888C63.5269 53.5104 64.4964 54.4973 64.762 55.9109Z" fill="#F7A491"/>
<path d="M45.3994 126.74C46.7315 124.844 49.5392 121.505 51.7787 119.46C55.0595 116.448 58.2375 114.761 62.6196 115.713C66.6392 116.673 68.7546 118.719 70.4435 119.956C70.4551 119.968 74.1276 123.122 76.4951 126.384L73.8328 127.915C73.2046 126.438 71.0213 123.132 68.4734 120.776C65.371 117.881 62.6565 117.274 62.6681 117.286C61.7008 117.019 60.6982 116.904 59.6956 116.943C59.293 116.966 58.8929 117.022 58.4993 117.109C53.7953 118.201 49.2154 125.172 48.1121 128.195L45.3994 126.74Z" fill="#288340"/>
<path d="M52.4592 102.509L48.4493 116.489C53.6846 116.144 66.1174 117.449 69.2586 117.594C74.0712 117.012 75.5604 117.422 76.7276 118.011C77.3578 118.329 79.9153 119.801 79.9153 119.801C79.9153 119.801 81.9144 122.674 81.7147 122.818C81.0419 123.297 79.225 120.551 79.225 120.551C79.225 120.551 77.4799 119.733 77.2143 119.648C76.5454 119.436 76.811 119.733 76.811 119.733C77.352 119.995 79.5256 121.522 79.5256 121.522C79.5256 121.522 82.5815 124.51 82.3391 124.58C82.1956 124.623 81.4801 124.352 80.3613 123.551C79.6768 123.064 78.6841 122.096 78.0345 121.703C76.9041 121.013 76.0354 120.927 76.4096 121.237C76.683 121.457 77.2007 121.478 77.8813 121.891C79.5353 122.897 81.6158 124.877 81.2687 124.993C80.9643 125.102 79.2328 123.898 77.6215 123.103C76.9176 122.758 75.4227 122.655 74.4803 122.587C74.6443 122.845 74.8397 123.081 75.062 123.291C75.3063 123.52 77.48 124.512 77.1154 124.982C76.7509 125.451 71.7774 123.444 71.7774 123.444L69.3924 122.013L69.2392 121.992C69.2392 121.992 45.1143 127.338 40.1369 121.881C35.8944 117.228 44.0149 97.4809 44.0536 97.6011L52.4592 102.509Z" fill="#F8A492"/>
<path d="M45.3994 126.74C46.7315 124.844 49.5392 121.505 51.7787 119.46C55.0595 116.448 58.2375 114.761 62.6196 115.713C66.6392 116.673 62.9027 116.923 62.6487 117.088C60.8881 116.95 59.682 116.935 59.6956 116.935C59.293 116.958 58.8929 117.014 58.4993 117.102C53.7953 118.193 49.2154 125.164 48.1121 128.187L45.3994 126.74Z" fill="#DEDEDE"/>
<path d="M52.7598 104.333C52.7598 104.333 61.9584 90.5664 62.7844 85.5057C63.6104 80.4449 59.0615 74.1878 54.4157 74.6725C49.7698 75.1573 43.3809 98.21 43.3809 98.21L52.7598 104.333Z" fill="#FEF6E4"/>
<path d="M74.0132 151.947H46.3166C43.2375 151.947 40.8874 149.268 41.3644 146.305L45.3471 125.546H76.3477L79.0061 146.611C79.2795 149.475 76.9663 151.947 74.0132 151.947Z" fill="white"/>
<path d="M79.0058 146.611L76.3475 125.546C74.2146 125.457 72.0623 125.31 70.0787 125.546L72.7351 146.611C73.0085 149.475 70.6953 151.947 67.7441 151.947H74.0129C76.966 151.947 79.2792 149.475 79.0058 146.611Z" fill="white"/>
<path d="M169.303 17.0904C155.536 19.6557 145.648 28.5886 147.23 37.0446C148.017 41.2735 151.519 44.5814 156.537 46.5127L152.244 61.5864L163.238 48.1395C167.161 48.6015 171.131 48.4583 175.01 47.7148C188.777 45.1515 198.665 36.2186 197.085 27.7626C195.505 19.3067 183.07 14.5212 169.303 17.0904Z" fill="white"/>
<path d="M171.181 42.1927L171.157 39.8446C170.152 39.8098 169.155 39.6423 168.193 39.3463C167.847 39.2367 167.555 38.9995 167.378 38.683C167.2 38.3665 167.15 37.9942 167.237 37.6419L167.258 37.5527C167.305 37.3618 167.391 37.1827 167.51 37.0265C167.629 36.8703 167.78 36.7404 167.951 36.645C168.123 36.5496 168.313 36.4908 168.509 36.4721C168.704 36.4535 168.902 36.4754 169.089 36.5367C169.953 36.8273 170.86 36.9747 171.772 36.9729C173.182 36.9594 174.14 36.4067 174.13 35.4217C174.13 34.4833 173.325 33.8977 171.491 33.2888C168.838 32.424 167.031 31.2064 167 28.8078C166.979 26.6342 168.495 24.9143 171.134 24.3695L171.111 22.0233L173.533 22L173.554 24.1736C174.315 24.1937 175.072 24.2958 175.811 24.478C176.175 24.5718 176.487 24.8056 176.679 25.1285C176.871 25.4515 176.928 25.8373 176.837 26.2018C176.791 26.3881 176.709 26.5632 176.594 26.7169C176.48 26.8705 176.335 26.9994 176.169 27.0959C176.004 27.1924 175.82 27.2544 175.63 27.2784C175.44 27.3023 175.247 27.2877 175.063 27.2353C174.354 27.0373 173.621 26.9426 172.885 26.9541C171.278 26.9697 170.766 27.6657 170.772 28.358C170.772 29.1743 171.65 29.6843 173.758 30.456C176.709 31.4662 177.907 32.8138 177.928 35.0378C177.95 37.2618 176.412 39.1291 173.573 39.6507L173.599 42.1714L171.181 42.1927Z" fill="#059669"/>
</svg>
