<svg width="7" height="10" viewBox="0 0 7 10" fill="none" xmlns="http://www.w3.org/2000/svg">
<path d="M6.36794 5.64128L1.3671 9.80865C1.1971 9.94928 0.978298 10.0168 0.758614 9.99644C0.53893 9.97608 0.336267 9.86949 0.195005 9.70002C0.0537425 9.53055 -0.0146061 9.312 0.00492635 9.09224C0.0244588 8.87249 0.13028 8.66942 0.299218 8.52752L4.53169 5.00069L0.299218 1.47386C0.129629 1.33216 0.0232229 1.12893 0.00337299 0.908829C-0.0164769 0.688725 0.051853 0.469742 0.193353 0.299984C0.334852 0.130226 0.537949 0.0235767 0.758029 0.00346375C0.97811 -0.0166502 1.19717 0.0514183 1.3671 0.192714L6.36794 4.36015C6.46171 4.43849 6.53713 4.53646 6.58889 4.64715C6.64065 4.75783 6.66747 4.87853 6.66747 5.00072C6.66747 5.12291 6.64065 5.2436 6.58889 5.35429C6.53713 5.46497 6.46171 5.56294 6.36794 5.64128Z" fill="black"/>
</svg>
