<svg width="15" height="14" viewBox="0 0 15 14" fill="none" xmlns="http://www.w3.org/2000/svg">
<g clip-path="url(#clip0_61_2444)">
<path d="M7.45205 0C7.72347 0.227215 7.99269 0.457717 8.2674 0.681644C10.157 2.221 12.0468 3.75939 13.9368 5.2968C13.9609 5.31616 13.9828 5.33845 14.0194 5.37242L7.43489 10.7558V7.42393C7.11014 7.46447 6.80183 7.48493 6.50082 7.54374C4.06101 8.02119 2.23306 9.34466 1.08274 11.5529C0.709042 12.2703 0.431781 13.0382 0.109589 13.7812C0.0770776 13.8542 0.0365297 13.9273 0 14.0004V10.7397C0.010044 10.7003 0.0176081 10.6603 0.0226482 10.6199C0.0792692 9.68548 0.288584 8.78502 0.691507 7.94155C1.88603 5.44146 3.84804 3.92731 6.57753 3.42174C6.85443 3.37023 7.1368 3.34868 7.42539 3.31215V0H7.45205Z" fill="black"/>
</g>
<defs>
<clipPath id="clip0_61_2444">
<rect width="14.0194" height="14" fill="white"/>
</clipPath>
</defs>
</svg>
