<svg width="12" height="10" viewBox="0 0 12 10" fill="none" xmlns="http://www.w3.org/2000/svg">
<g clip-path="url(#clip0_59_2323)">
<path d="M2.0356 3.23395L1.36326 3.48481C1.18646 3.55053 1.01058 3.61841 0.832851 3.68228C0.685361 3.73566 0.594954 3.68938 0.552991 3.53726C0.371354 2.87633 0.190848 2.2152 0.011474 1.55386C-0.0218501 1.43044 0.0148681 1.35299 0.134897 1.30362C1.17082 0.876581 2.20706 0.450773 3.2436 0.0261999C3.29059 0.00944398 3.34031 0.00169791 3.39017 0.00336707C4.21566 0.00213285 5.04104 0.00213285 5.86633 0.00336707C5.93516 0.00512689 6.00307 0.01967 6.06658 0.0462559C7.07453 0.45931 8.08248 0.873907 9.09043 1.29005C9.25335 1.35731 9.28328 1.41748 9.23761 1.58564C9.06421 2.22477 8.89008 2.86368 8.71523 3.50239C8.66123 3.69925 8.58101 3.74029 8.3931 3.67025C8.0434 3.53942 7.6937 3.40829 7.344 3.27684C7.30883 3.26388 7.27273 3.25277 7.22243 3.23611V7.50221C7.22243 7.72992 7.17245 7.77991 6.94473 7.77991H2.30312C2.08991 7.77991 2.03591 7.72653 2.03591 7.51486C2.03591 6.13808 2.03591 4.7613 2.03591 3.38453L2.0356 3.23395ZM6.84908 7.40378V3.06856C6.84908 3.0337 6.84723 2.99883 6.84908 2.96427C6.86019 2.82727 6.96911 2.75322 7.10179 2.79518C7.18263 2.82049 7.26131 2.85227 7.34061 2.88189L8.39186 3.27499C8.54614 2.71064 8.69733 2.15555 8.85069 1.59305L6.08849 0.455402C6.01166 0.797899 5.85615 1.08486 5.5948 1.30794C5.33345 1.53103 5.0323 1.66494 4.68919 1.66402C3.87336 1.66217 3.38152 1.23204 3.16091 0.465585C3.15154 0.466331 3.14225 0.467879 3.13314 0.470213C2.24964 0.833281 1.36624 1.19625 0.482948 1.55911C0.417534 1.58595 0.410746 1.61712 0.428334 1.68253C0.566567 2.17961 0.700172 2.67793 0.835936 3.17594C0.844576 3.2068 0.859078 3.23765 0.873271 3.27468L2.04825 2.83252C2.31546 2.73162 2.40587 2.79303 2.40587 3.07535V7.40378H6.84908ZM3.54753 0.377337C3.5827 0.892318 4.12762 1.32615 4.69752 1.29684C5.20571 1.27061 5.7247 0.798208 5.70526 0.377337H3.54753Z" fill="black"/>
<path d="M1.0031 9.27082C1.14535 9.40967 1.27093 9.5297 1.39312 9.65251C1.4971 9.7568 1.50512 9.86418 1.41996 9.94594C1.3348 10.0277 1.23483 10.0166 1.13486 9.91786C0.904673 9.68994 0.675622 9.46069 0.447702 9.23009C0.339707 9.12056 0.340016 9.02922 0.447702 8.91969C0.675622 8.68909 0.904776 8.45983 1.13517 8.23191C1.23421 8.13379 1.33819 8.12577 1.41996 8.20538C1.50173 8.28498 1.4971 8.39236 1.40021 8.49048C1.27525 8.61638 1.14689 8.73887 1.00218 8.88019H8.26251C8.11316 8.73733 7.97802 8.61884 7.85799 8.48709C7.81053 8.43439 7.7858 8.36508 7.78918 8.29424C7.81232 8.14243 7.99159 8.10664 8.11286 8.22482C8.29521 8.40254 8.47356 8.58398 8.65376 8.76417C8.71084 8.82126 8.77039 8.8768 8.8247 8.93666C8.90955 9.02922 8.91233 9.12395 8.8247 9.21436C8.5869 9.45688 8.34674 9.69694 8.10422 9.93453C8.0172 10.02 7.91291 10.0203 7.83608 9.94564C7.75925 9.87096 7.75771 9.7605 7.84811 9.66948C7.97524 9.5405 8.10699 9.41584 8.25541 9.27113L1.0031 9.27082Z" fill="black"/>
<path d="M10.7501 7.14532C10.8887 7.00369 11.0087 6.87873 11.1315 6.75623C11.2361 6.65194 11.3423 6.64299 11.4246 6.72784C11.507 6.8127 11.4956 6.91513 11.3901 7.02128C11.1673 7.2455 10.9436 7.4691 10.719 7.69208C10.5996 7.81088 10.5104 7.81057 10.3916 7.69208C10.1653 7.46581 9.93905 7.23953 9.71278 7.01326C9.61373 6.91359 9.60509 6.81084 9.68439 6.72846C9.76369 6.64607 9.87323 6.65101 9.97752 6.75469C10.1009 6.87811 10.2204 7.00153 10.3595 7.14501V0.63725C10.2231 0.776718 10.1056 0.906928 9.97597 1.02387C9.92404 1.07188 9.85631 1.09921 9.78559 1.1007C9.75512 1.09388 9.72681 1.0796 9.70323 1.05913C9.67964 1.03866 9.6615 1.01266 9.65045 0.98345C9.64448 0.949323 9.64577 0.914322 9.65422 0.880724C9.66267 0.847126 9.6781 0.815684 9.69951 0.788443C9.87384 0.598063 10.0614 0.418175 10.2441 0.236744C10.3012 0.179352 10.3567 0.12011 10.4163 0.0654954C10.5058 -0.0168891 10.6014 -0.0239865 10.6847 0.0580895C10.9334 0.300203 11.1791 0.545506 11.4219 0.793996C11.44 0.810316 11.4546 0.830217 11.4647 0.852446C11.4748 0.874675 11.4801 0.89875 11.4804 0.923155C11.4808 0.947561 11.476 0.971768 11.4665 0.994253C11.457 1.01674 11.443 1.03701 11.4253 1.0538C11.3506 1.13094 11.2435 1.13372 11.1574 1.0501C11.0244 0.921122 10.8976 0.786591 10.7505 0.636325L10.7501 7.14532Z" fill="black"/>
</g>
<defs>
<clipPath id="clip0_59_2323">
<rect width="11.4801" height="10" fill="white"/>
</clipPath>
</defs>
</svg>
