<svg width="196" height="200" viewBox="0 0 196 200" fill="none" xmlns="http://www.w3.org/2000/svg">
<g clip-path="url(#clip0_112_6886)">
<path d="M83.9136 64.8673L82.1736 64.7909C82.2773 62.4174 83.3194 41.4915 87.8997 37.6742C88.1906 37.4142 88.5336 37.2194 88.9058 37.1029C89.278 36.9863 89.6707 36.9506 90.0578 36.9983C92.7847 37.3781 95.7622 41.7048 99.161 50.226C101.581 56.293 103.325 62.3423 103.343 62.4028L101.669 62.8839C101.652 62.8242 99.928 56.848 97.5393 50.8611C93.3214 40.2904 90.7344 38.8522 89.8179 38.7247C89.6709 38.7088 89.5221 38.7265 89.3829 38.7765C89.2436 38.8265 89.1176 38.9076 89.0142 39.0135C85.6345 41.8299 84.1865 58.631 83.9136 64.8673Z" fill="black"/>
<path d="M68.541 53.5762L66.7991 97.2852L124.271 91.0904L117.167 48.8904L68.541 53.5762Z" fill="#FFBA49"/>
<path d="M117.167 48.8904L112.939 49.2977L118.566 86.3028L67.0004 92.2401L66.7991 97.2852L124.271 91.0904L117.167 48.8904Z" fill="#FFA113"/>
<path d="M148.215 124.05L145.826 123.784C145.846 123.597 147.831 104.898 141.394 97.9062C140.638 97.0556 139.699 96.3874 138.648 95.9517C137.596 95.516 136.46 95.3241 135.325 95.3903C121.304 95.7891 114.712 119.867 114.647 120.11L112.324 119.488C113.619 114.992 115.417 110.656 117.685 106.564C122.57 97.8685 128.646 93.1727 135.256 92.9847C136.736 92.9088 138.214 93.1651 139.583 93.7347C140.951 94.3044 142.175 95.173 143.164 96.2771C150.341 104.076 148.306 123.238 148.215 124.05Z" fill="#FFBA49"/>
<path d="M105.566 106.902L156.299 112.923L155.512 193.425L87.7903 185.353L105.566 106.902Z" fill="#D21717"/>
<path d="M156.299 112.923L151.274 112.326L148.827 186.812L88.7441 181.143L87.7903 185.353L155.512 193.424L156.299 112.923Z" fill="#F94444"/>
<path d="M169.013 138.507C171.323 138.991 173.524 137.143 173.929 134.375C174.36 135.111 174.791 135.848 175.222 136.586C174.818 139.353 172.615 141.202 170.307 140.717C169.876 139.98 169.445 139.243 169.013 138.507Z" fill="#FFBA49"/>
<path d="M100.781 197.712C103.092 198.196 105.293 196.347 105.698 193.58C106.129 194.316 106.56 195.053 106.991 195.79C106.587 198.558 104.384 200.407 102.076 199.923C101.645 199.185 101.213 198.448 100.781 197.712Z" fill="#9B9B9B"/>
<path d="M174.173 92.1772C175.142 94.7348 177.657 95.8714 179.794 94.7108C179.53 95.5536 179.265 96.3961 178.999 97.2385C176.862 98.397 174.347 97.262 173.379 94.7034C173.645 93.8622 173.91 93.0202 174.173 92.1772Z" fill="#FFDCC8"/>
<path d="M159.222 74.0091C159.612 71.2382 158.054 68.6146 155.74 68.1478C156.352 67.6257 156.964 67.1037 157.577 66.5818C159.889 67.0486 161.448 69.6733 161.059 72.4431C160.447 72.9654 159.835 73.4874 159.222 74.0091Z" fill="#021193"/>
<path d="M20.3828 62.8265C20.7727 60.0556 19.2146 57.4319 16.9014 56.9651C17.5131 56.4429 18.1254 55.921 18.7383 55.3992C21.0497 55.8658 22.6087 58.4906 22.2196 61.2605C21.608 61.7827 20.9957 62.3047 20.3828 62.8265Z" fill="#FFDCC8"/>
<path d="M67.6942 161.009C68.0842 158.238 66.5261 155.614 64.2129 155.148C64.8246 154.625 65.4368 154.103 66.0497 153.582C68.3611 154.048 69.9201 156.673 69.5311 159.443C68.9194 159.965 68.3071 160.487 67.6942 161.009Z" fill="#FFDCC8"/>
<path d="M189.044 57.1729C191.339 57.7522 193.59 55.9931 194.074 53.2424C194.484 53.9961 194.895 54.7503 195.305 55.5051C194.822 58.253 192.57 60.0132 190.276 59.4355C189.865 58.6819 189.454 57.9277 189.044 57.1729Z" fill="#FFBA49"/>
<path d="M5.46553 91.2123C4.64286 88.5806 2.19657 87.246 0 88.2328C0.310721 87.4146 0.621899 86.5953 0.933535 85.7749C3.12828 84.7893 5.57594 86.1228 6.39906 88.7534C6.08835 89.5727 5.77717 90.3923 5.46553 91.2123Z" fill="#FFBA49"/>
<path d="M62.4732 123.267C62.6353 126.069 64.6635 128.184 67.0025 127.989C66.5093 128.669 66.0151 129.347 65.5228 130.027C63.1829 130.22 61.1554 128.105 60.9934 125.303C61.4867 124.625 61.9799 123.947 62.4732 123.267Z" fill="#DB3022"/>
<path d="M45.9424 72.3503C48.2654 71.9641 49.8868 69.3942 49.5635 66.6111C50.1637 67.1545 50.7629 67.6973 51.3612 68.2395C51.6835 71.0237 50.0631 73.592 47.7401 73.9798C47.1417 73.4362 46.5425 72.8931 45.9424 72.3503Z" fill="#021193"/>
<path d="M140.668 38.2213C137.656 38.321 139.821 43.6287 136.808 43.7306C136.233 43.1519 135.658 42.5732 135.082 41.9944C138.095 41.8941 135.93 36.5864 138.942 36.4846C139.518 37.0633 140.093 37.6422 140.668 38.2213Z" fill="#FFDCC8"/>
<path d="M146.142 177.726C143.21 176.894 144.16 182.69 141.227 181.859C140.796 181.122 140.364 180.385 139.933 179.648C142.866 180.48 141.915 174.683 144.849 175.515C145.279 176.252 145.711 176.989 146.142 177.726Z" fill="#FFBA49"/>
<path d="M58.9488 185.272C56.8778 187.896 61.5416 189.819 59.4705 192.441C58.7226 192.517 57.9738 192.598 57.2259 192.673C59.2969 190.051 54.6331 188.131 56.7041 185.507C57.4529 185.43 58.2012 185.352 58.9488 185.272Z" fill="#021193"/>
<path d="M126.033 4.08896C123.084 4.8394 126.011 9.59514 123.064 10.344C122.412 9.89805 121.756 9.45379 121.105 9.00679C124.053 8.25841 121.124 3.50438 124.073 2.75391C124.727 3.20089 125.38 3.64591 126.033 4.08896Z" fill="#DB3022"/>
<path d="M31.4026 19.7219C32.853 22.888 35.8094 18.1591 37.2576 21.3242C37.0894 22.2005 36.9233 23.0801 36.7542 23.9569C35.306 20.7908 32.3513 25.5213 30.9009 22.3552C31.0696 21.4762 31.2368 20.5984 31.4026 19.7219Z" fill="#9B9B9B"/>
<path d="M6.39917 144.209C6.78821 144.139 7.14018 143.934 7.39363 143.63C7.64709 143.327 7.78593 142.944 7.78593 142.548C7.78593 142.152 7.64709 141.769 7.39363 141.466C7.14018 141.162 6.78821 140.957 6.39917 140.886" fill="black"/>
<path d="M163.801 15.8364C162.533 15.8364 161.502 14.601 161.502 13.0825C161.502 11.5639 162.533 10.3286 163.801 10.3286C165.068 10.3286 166.099 11.5639 166.099 13.0825C166.099 14.601 165.068 15.8364 163.801 15.8364ZM163.801 11.421C163.398 11.4608 163.027 11.6572 162.768 11.9679C162.508 12.2787 162.381 12.6789 162.414 13.0825C162.377 13.2857 162.385 13.4944 162.438 13.6941C162.491 13.8937 162.587 14.0793 162.719 14.2378C162.851 14.3963 163.017 14.5237 163.204 14.6112C163.391 14.6987 163.594 14.744 163.801 14.744C164.007 14.744 164.211 14.6987 164.398 14.6112C164.585 14.5237 164.75 14.3963 164.882 14.2378C165.015 14.0793 165.11 13.8937 165.163 13.6941C165.216 13.4944 165.224 13.2857 165.187 13.0825C165.22 12.6789 165.093 12.2787 164.834 11.968C164.574 11.6572 164.203 11.4608 163.801 11.421Z" fill="black"/>
<path d="M29.9975 120.172C28.73 120.172 27.699 118.937 27.699 117.418C27.699 115.9 28.7301 114.664 29.9975 114.664C31.2649 114.664 32.2959 115.9 32.2959 117.418C32.296 118.937 31.2649 120.172 29.9975 120.172ZM29.9975 115.757C29.6084 115.827 29.2565 116.032 29.003 116.336C28.7495 116.639 28.6107 117.022 28.6107 117.418C28.6107 117.814 28.7495 118.197 29.003 118.501C29.2565 118.804 29.6084 119.009 29.9975 119.08C30.3865 119.009 30.7385 118.804 30.9919 118.501C31.2454 118.197 31.3842 117.814 31.3842 117.418C31.3842 117.022 31.2454 116.639 30.9919 116.336C30.7385 116.032 30.3865 115.827 29.9975 115.757Z" fill="black"/>
</g>
<defs>
<clipPath id="clip0_112_6886">
<rect width="195.305" height="200" fill="white"/>
</clipPath>
</defs>
</svg>
