<svg width="35" height="35" viewBox="0 0 35 35" fill="none" xmlns="http://www.w3.org/2000/svg">
<circle cx="17.5" cy="17.5" r="17.5" fill="#059669"/>
<g clip-path="url(#clip0_114_7272)">
<path d="M11.4945 10H19.141C19.1531 10.0074 19.1645 10.0203 19.1773 10.0219C19.9012 10.118 20.6461 10.7746 20.6309 11.8227C20.6172 12.7402 20.6277 13.6586 20.6277 14.5758V14.7402L18.7113 15.3926C18.5629 15.0867 18.3148 14.998 17.998 14.9992C16.2066 15.0059 14.4148 15.0023 12.6234 15.0027C12.5648 15.0027 12.5062 15.0027 12.4477 15.0059C12.3576 15.0135 12.2704 15.0407 12.192 15.0856C12.1136 15.1305 12.046 15.1921 11.9939 15.2659C11.9418 15.3397 11.9065 15.424 11.8904 15.5129C11.8743 15.6018 11.8778 15.6931 11.9008 15.7805C11.9816 16.0801 12.2133 16.2469 12.5598 16.2473C13.8488 16.2473 15.1379 16.2473 16.427 16.2473H16.6133C16.1926 16.6242 15.9883 17.0582 15.9457 17.5625C15.841 17.5406 15.7465 17.5035 15.6516 17.5031C14.5926 17.4992 13.5332 17.4961 12.4738 17.5031C12.1355 17.5055 11.8727 17.8027 11.8801 18.141C11.8883 18.4926 12.1668 18.75 12.5508 18.7512C13.4146 18.754 14.2786 18.754 15.143 18.7512C15.4078 18.7512 15.6723 18.7312 15.9445 18.7203C15.9445 19.1555 15.9508 19.6187 15.9445 20.0824C15.9281 21.1371 16.2062 22.1059 16.7453 23.0059C16.7656 23.0402 16.782 23.077 16.8051 23.123C15.0613 23.123 13.3379 23.1328 11.6148 23.1168C11.107 23.1121 10.6926 22.8621 10.3715 22.4652C10.173 22.2203 10.0789 21.9305 10.0059 21.6313V11.4941C10.0156 11.4625 10.0285 11.4312 10.0352 11.3988C10.1313 10.9344 10.3629 10.5488 10.7668 10.3016C10.9836 10.1652 11.2504 10.0984 11.4945 10ZM13.7441 13.75C14.1441 13.75 14.5437 13.75 14.9437 13.75C15.3437 13.75 15.6254 13.4879 15.6254 13.125C15.6254 12.7672 15.3449 12.5 14.9566 12.5C14.152 12.4974 13.3474 12.4974 12.543 12.5C12.1551 12.5 11.8754 12.7676 11.8754 13.125C11.8754 13.4824 12.157 13.7477 12.5441 13.75C12.9445 13.75 13.3441 13.75 13.7441 13.75Z" fill="white"/>
<path d="M20.957 24.9999C20.0352 24.5874 19.2094 24.0355 18.5133 23.2999C17.8266 22.5734 17.3555 21.7351 17.2242 20.7296C17.1989 20.5361 17.1858 20.3412 17.1852 20.146C17.1809 19.3554 17.1828 18.5648 17.1852 17.7741C17.1852 17.378 17.3258 17.1847 17.7012 17.0573C18.7428 16.7034 19.7845 16.3486 20.8262 15.9929C20.9968 15.9305 21.1838 15.9294 21.3551 15.9898C22.4152 16.3515 23.4759 16.7122 24.5371 17.0718C24.7809 17.1538 24.9211 17.3241 24.9992 17.5585V20.5468C24.9889 20.5681 24.9811 20.5905 24.9758 20.6136C24.8848 21.5155 24.5164 22.2987 23.9445 22.9894C23.2023 23.8843 22.2785 24.5339 21.2199 24.9999H20.957ZM20.8656 20.6152C20.6117 20.3585 20.3781 20.1159 20.1375 19.8812C19.8758 19.6257 19.4906 19.6253 19.2453 19.8722C19 20.1191 18.9988 20.5019 19.2574 20.764C19.6647 21.1773 20.0751 21.5878 20.4887 21.9956C20.775 22.2773 21.1918 22.2538 21.4367 21.9339C22.0645 21.1066 22.6867 20.2734 23.3078 19.4421C23.4059 19.3179 23.451 19.1599 23.4332 19.0027C23.4222 18.875 23.3715 18.7541 23.2882 18.6568C23.2049 18.5596 23.0932 18.4909 22.9688 18.4605C22.6988 18.3913 22.4742 18.4761 22.3082 18.6948C21.9441 19.1718 21.5871 19.6542 21.2273 20.1339L20.8656 20.6152Z" fill="white"/>
</g>
<defs>
<clipPath id="clip0_114_7272">
<rect width="15" height="15" fill="white" transform="translate(10 10)"/>
</clipPath>
</defs>
</svg>
