<svg width="40" height="40" viewBox="0 0 40 40" fill="none" xmlns="http://www.w3.org/2000/svg">
<g clip-path="url(#clip0_96_1819)">
<path d="M20 0C31.044 0 40 8.956 40 20C40 31.044 31.044 40 20 40C8.956 40 0 31.044 0 20C0 8.956 8.956 0 20 0Z" fill="#1DA1F2"/>
<path d="M15.3598 30.16C24.7918 30.16 29.9558 22.344 29.9558 15.564C29.9558 15.344 29.9558 15.12 29.9398 14.9C30.9438 14.172 31.8118 13.276 32.4998 12.244C31.5638 12.66 30.5718 12.932 29.5558 13.052C30.6278 12.412 31.4278 11.404 31.8118 10.216C30.8038 10.812 29.7038 11.236 28.5558 11.46C26.6118 9.39595 23.3638 9.29595 21.2998 11.236C19.9678 12.488 19.4038 14.356 19.8158 16.136C15.6918 15.928 11.8478 13.98 9.24381 10.776C7.88381 13.12 8.57581 16.116 10.8318 17.624C10.0158 17.6 9.21581 17.38 8.50381 16.984C8.50381 17.004 8.50381 17.028 8.50381 17.048C8.50381 19.488 10.2238 21.592 12.6198 22.076C11.8638 22.28 11.0718 22.3119 10.3038 22.1639C10.9758 24.252 12.8998 25.684 15.0958 25.728C13.2798 27.156 11.0358 27.932 8.72781 27.928C8.31981 27.928 7.91181 27.9039 7.50781 27.8519C9.84381 29.36 12.5758 30.16 15.3598 30.156" fill="white"/>
</g>
<defs>
<clipPath id="clip0_96_1819">
<rect width="40" height="40" fill="white"/>
</clipPath>
</defs>
</svg>
