<svg width="40" height="40" viewBox="0 0 40 40" fill="none" xmlns="http://www.w3.org/2000/svg">
<rect width="40" height="40" rx="20" fill="#25D366"/>
<g clip-path="url(#clip0_96_1803)">
<path d="M19.9994 33.3334C12.6367 33.3334 6.66602 27.3627 6.66602 20.0001C6.66602 12.6374 12.6367 6.66675 19.9994 6.66675C27.362 6.66675 33.3327 12.6374 33.3327 20.0001C33.3327 27.3627 27.362 33.3334 19.9994 33.3334Z" fill="#25D366"/>
<path fill-rule="evenodd" clip-rule="evenodd" d="M26.2368 13.7921C24.5835 12.1361 22.3808 11.2241 20.0368 11.2214C15.2075 11.2214 11.2741 15.1521 11.2741 19.9841C11.2741 21.5281 11.6768 23.0374 12.4448 24.3654L11.2021 28.9068L15.8475 27.6881C17.1275 28.3868 18.5675 28.7548 20.0342 28.7548H20.0368C24.8662 28.7548 28.7968 24.8241 28.7995 19.9921C28.8022 17.6508 27.8928 15.4481 26.2368 13.7921ZM20.0395 27.2748H20.0368C18.7302 27.2748 17.4475 26.9228 16.3302 26.2588L16.0635 26.1014L13.3062 26.8241L14.0422 24.1361L13.8688 23.8614C13.1408 22.7014 12.7541 21.3628 12.7541 19.9841C12.7568 15.9681 16.0235 12.7014 20.0422 12.7014C21.9888 12.7014 23.8155 13.4614 25.1915 14.8374C26.5675 16.2134 27.3248 18.0454 27.3222 19.9894C27.3222 24.0081 24.0528 27.2748 20.0395 27.2748ZM24.0342 21.8188C23.8155 21.7094 22.7382 21.1788 22.5382 21.1068C22.3382 21.0348 22.1915 20.9974 22.0448 21.2161C21.8982 21.4348 21.4795 21.9281 21.3515 22.0748C21.2235 22.2214 21.0955 22.2401 20.8768 22.1308C20.6582 22.0214 19.9515 21.7894 19.1168 21.0428C18.4662 20.4614 18.0262 19.7441 17.8982 19.5254C17.7702 19.3068 17.8848 19.1868 17.9942 19.0774C18.0928 18.9788 18.2128 18.8214 18.3222 18.6934C18.4315 18.5654 18.4688 18.4748 18.5408 18.3281C18.6128 18.1814 18.5782 18.0534 18.5222 17.9441C18.4662 17.8348 18.0288 16.7574 17.8475 16.3174C17.6688 15.8908 17.4902 15.9494 17.3542 15.9414C17.2262 15.9361 17.0795 15.9334 16.9355 15.9334C16.7888 15.9334 16.5515 15.9894 16.3515 16.2081C16.1515 16.4268 15.5862 16.9574 15.5862 18.0348C15.5862 19.1121 16.3702 20.1548 16.4795 20.2988C16.5888 20.4454 18.0235 22.6561 20.2208 23.6054C20.7435 23.8321 21.1515 23.9654 21.4688 24.0668C21.9942 24.2348 22.4715 24.2108 22.8475 24.1548C23.2688 24.0908 24.1435 23.6241 24.3248 23.1148C24.5062 22.6028 24.5062 22.1654 24.4528 22.0748C24.3995 21.9841 24.2528 21.9308 24.0342 21.8188Z" fill="white"/>
</g>
<defs>
<clipPath id="clip0_96_1803">
<rect width="26.6667" height="26.6667" fill="white" transform="translate(6.66602 6.66675)"/>
</clipPath>
</defs>
</svg>
