<svg width="12" height="16" viewBox="0 0 12 16" fill="none" xmlns="http://www.w3.org/2000/svg">
<path d="M11.0345 5.5172C11.0345 4.44951 10.7247 3.40477 10.1427 2.50967C9.56067 1.61457 8.73143 0.907571 7.75555 0.474424C6.77968 0.0412765 5.69908 -0.0994131 4.64483 0.0694181C3.59058 0.238249 2.60796 0.709347 1.81615 1.42558C1.02433 2.14181 0.457346 3.0724 0.183949 4.10449C-0.0894486 5.13658 -0.05751 6.22582 0.275891 7.24012C0.609293 8.25441 1.22983 9.15018 2.06225 9.81879C2.89467 10.4874 3.9032 10.9001 4.96554 11.0069V12.6896H2.75863C2.61231 12.6896 2.47197 12.7478 2.3685 12.8512C2.26503 12.9547 2.20691 13.095 2.20691 13.2414C2.20691 13.3877 2.26503 13.528 2.3685 13.6315C2.47197 13.735 2.61231 13.7931 2.75863 13.7931H4.96554V15.4483C4.96554 15.5946 5.02367 15.7349 5.12714 15.8384C5.2306 15.9419 5.37094 16 5.51726 16C5.66359 16 5.80393 15.9419 5.90739 15.8384C6.01086 15.7349 6.06899 15.5946 6.06899 15.4483V13.7931H8.2759C8.42222 13.7931 8.56256 13.735 8.66603 13.6315C8.7695 13.528 8.82762 13.3877 8.82762 13.2414C8.82762 13.095 8.7695 12.9547 8.66603 12.8512C8.56256 12.7478 8.42222 12.6896 8.2759 12.6896H6.06899V11.0069C7.4293 10.8686 8.69 10.2308 9.60722 9.21673C10.5244 8.20269 11.033 6.88452 11.0345 5.5172ZM1.10345 5.5172C1.10345 4.64423 1.36232 3.79086 1.84731 3.06502C2.33231 2.33917 3.02165 1.77344 3.82817 1.43937C4.63469 1.1053 5.52216 1.01789 6.37836 1.1882C7.23455 1.3585 8.02102 1.77888 8.6383 2.39616C9.25558 3.01344 9.67596 3.79991 9.84627 4.65611C10.0166 5.5123 9.92917 6.39977 9.5951 7.20629C9.26102 8.01281 8.69529 8.70215 7.96945 9.18715C7.2436 9.67214 6.39023 9.93101 5.51726 9.93101C4.34721 9.92918 3.2256 9.46357 2.39824 8.63622C1.57089 7.80886 1.10528 6.68725 1.10345 5.5172Z" fill="#727272"/>
</svg>
